# primes 3 5 11
0 0 0 0 0 0 0 0 1 | 0 0 0 0 0 0 0 0 1
5 0 0 0 0 0 0 0 6 | 0 0 0 0 -1 0 0 0 6
5 0 0 0 0 1 0 0 12 | 0 5 0 0 -1 0 0 0 12
-5 0 0 0 0 1 0 0 12 | 0 5 0 0 1 0 0 0 12
-5 0 0 0 0 0 0 0 6 | 0 0 0 0 1 0 0 0 6
-5 0 0 0 0 -1 0 0 12 | 0 -5 0 0 1 0 0 0 12
5 0 0 0 0 -1 0 0 12 | 0 -5 0 0 -1 0 0 0 12
0 0 0 0 0 1 0 0 6 | 0 -1 0 0 0 0 0 0 6
3 0 0 0 0 1 0 0 12 | 0 -1 0 0 3 0 0 0 12
3 0 0 0 0 -1 0 0 12 | 0 1 0 0 3 0 0 0 12
0 0 0 0 0 -1 0 0 6 | 0 1 0 0 0 0 0 0 6
-3 0 0 0 0 -1 0 0 12 | 0 1 0 0 -3 0 0 0 12
-3 0 0 0 0 1 0 0 12 | 0 -1 0 0 -3 0 0 0 12
1 0 0 0 0 0 0 0 1 | 0 0 0 0 0 0 0 0 1
1 0 0 0 0 0 0 0 2 | 0 1 0 0 0 0 0 0 2
-1 0 0 0 0 0 0 0 2 | 0 1 0 0 0 0 0 0 2
-1 0 0 0 0 0 0 0 1 | 0 0 0 0 0 0 0 0 1
-1 0 0 0 0 0 0 0 2 | 0 -1 0 0 0 0 0 0 2
1 0 0 0 0 0 0 0 2 | 0 -1 0 0 0 0 0 0 2
0 0 0 0 0 1 0 0 6 | 0 1 0 0 0 0 0 0 6
-3 0 0 0 0 1 0 0 12 | 0 1 0 0 3 0 0 0 12
-3 0 0 0 0 -1 0 0 12 | 0 -1 0 0 3 0 0 0 12
0 0 0 0 0 -1 0 0 6 | 0 -1 0 0 0 0 0 0 6
3 0 0 0 0 -1 0 0 12 | 0 -1 0 0 -3 0 0 0 12
3 0 0 0 0 1 0 0 12 | 0 1 0 0 -3 0 0 0 12
5 0 0 0 0 0 0 0 6 | 0 0 0 0 1 0 0 0 6
5 0 0 0 0 -1 0 0 12 | 0 5 0 0 1 0 0 0 12
-5 0 0 0 0 -1 0 0 12 | 0 5 0 0 -1 0 0 0 12
-5 0 0 0 0 0 0 0 6 | 0 0 0 0 -1 0 0 0 6
-5 0 0 0 0 1 0 0 12 | 0 -5 0 0 -1 0 0 0 12
5 0 0 0 0 1 0 0 12 | 0 -5 0 0 1 0 0 0 12
15 0 0 0 0 1 0 0 12 | 0 5 0 0 -3 0 0 0 12
15 0 0 0 0 -1 0 0 12 | 0 -5 0 0 -3 0 0 0 12
5 0 0 0 0 1 0 0 6 | 0 -1 0 0 -1 0 0 0 6
13 0 0 0 0 1 0 0 12 | 0 -1 0 0 1 0 0 0 12
13 0 0 0 0 -1 0 0 12 | 0 1 0 0 1 0 0 0 12
5 0 0 0 0 -1 0 0 6 | 0 1 0 0 -1 0 0 0 6
7 0 0 0 0 -1 0 0 12 | 0 1 0 0 -5 0 0 0 12
7 0 0 0 0 1 0 0 12 | 0 -1 0 0 -5 0 0 0 12
4 0 0 0 0 0 0 0 3 | 0 3 0 0 -1 0 0 0 6
1 0 0 0 0 0 0 0 3 | 0 3 0 0 -1 0 0 0 6
-1 0 0 0 0 0 0 0 6 | 0 0 0 0 -1 0 0 0 6
1 0 0 0 0 0 0 0 3 | 0 -3 0 0 -1 0 0 0 6
5 0 0 0 0 1 0 0 6 | 0 1 0 0 -1 0 0 0 6
7 0 0 0 0 1 0 0 12 | 0 1 0 0 1 0 0 0 12
7 0 0 0 0 -1 0 0 12 | 0 -1 0 0 1 0 0 0 12
5 0 0 0 0 -1 0 0 6 | 0 -1 0 0 -1 0 0 0 6
0 0 0 0 0 1 0 0 6 | 0 5 0 0 0 0 0 0 6
4 0 0 0 0 1 0 0 6 | 0 2 0 0 1 0 0 0 6
2 0 0 0 0 0 0 0 3 | 0 3 0 0 1 0 0 0 6
5 0 0 0 0 -1 0 0 12 | 0 7 0 0 -1 0 0 0 12
1 0 0 0 0 0 0 0 6 | 0 3 0 0 -2 0 0 0 6
1 0 0 0 0 1 0 0 6 | 0 1 0 0 -1 0 0 0 3
-7 0 0 0 0 1 0 0 12 | 0 5 0 0 -1 0 0 0 12
-1 0 0 0 0 1 0 0 12 | 0 -1 0 0 -1 0 0 0 12
11 0 0 0 0 1 0 0 12 | 0 -1 0 0 -1 0 0 0 12
1 0 0 0 0 1 0 0 6 | 0 3 0 0 1 0 0 0 6
1 0 0 0 0 0 0 0 6 | 0 2 0 0 1 0 0 0 6
5 0 0 0 0 -1 0 0 12 | 0 3 0 0 -1 0 0 0 12
2 0 0 0 0 0 0 0 3 | 0 1 0 0 -1 0 0 0 3
0 0 0 0 0 1 0 0 6 | 0 0 0 0 -1 0 0 0 6
-15 0 0 0 0 1 0 0 12 | 0 5 0 0 3 0 0 0 12
-5 0 0 0 0 3 0 0 12 | 0 3 0 0 1 0 0 0 12
-1 0 0 0 0 0 0 0 6 | 0 3 0 0 2 0 0 0 6
-5 0 0 0 0 -1 0 0 12 | 0 7 0 0 1 0 0 0 12
-2 0 0 0 0 0 0 0 3 | 0 3 0 0 -1 0 0 0 6
-4 0 0 0 0 1 0 0 6 | 0 2 0 0 -1 0 0 0 6
7 0 0 0 0 1 0 0 12 | 0 5 0 0 1 0 0 0 12
-11 0 0 0 0 1 0 0 12 | 0 -1 0 0 1 0 0 0 12
1 0 0 0 0 1 0 0 12 | 0 -1 0 0 1 0 0 0 12
-2 0 0 0 0 0 0 0 3 | 0 1 0 0 1 0 0 0 3
-5 0 0 0 0 -1 0 0 12 | 0 3 0 0 1 0 0 0 12
-1 0 0 0 0 0 0 0 6 | 0 2 0 0 -1 0 0 0 6
-1 0 0 0 0 1 0 0 6 | 0 3 0 0 -1 0 0 0 6
0 0 0 0 0 1 0 0 6 | 0 0 0 0 1 0 0 0 6
-15 0 0 0 0 -1 0 0 12 | 0 -5 0 0 3 0 0 0 12
-5 0 0 0 0 1 0 0 6 | 0 -1 0 0 1 0 0 0 6
-7 0 0 0 0 1 0 0 12 | 0 -1 0 0 5 0 0 0 12
-7 0 0 0 0 -1 0 0 12 | 0 1 0 0 5 0 0 0 12
-5 0 0 0 0 -1 0 0 6 | 0 1 0 0 1 0 0 0 6
-13 0 0 0 0 -1 0 0 12 | 0 1 0 0 -1 0 0 0 12
-13 0 0 0 0 1 0 0 12 | 0 -1 0 0 -1 0 0 0 12
1 0 0 0 0 0 0 0 6 | 0 0 0 0 1 0 0 0 6
-1 0 0 0 0 0 0 0 3 | 0 3 0 0 1 0 0 0 6
-1 0 0 0 0 0 0 0 3 | 0 -3 0 0 1 0 0 0 6
-5 0 0 0 0 1 0 0 6 | 0 1 0 0 1 0 0 0 6
-5 0 0 0 0 -1 0 0 6 | 0 -1 0 0 1 0 0 0 6
-7 0 0 0 0 -1 0 0 12 | 0 -1 0 0 -1 0 0 0 12
-7 0 0 0 0 1 0 0 12 | 0 1 0 0 -1 0 0 0 12
0 0 0 0 0 0 0 0 1 | 0 0 0 0 1 0 0 0 3
0 0 0 0 0 -1 0 0 6 | 0 -5 0 0 0 0 0 0 6
-5 0 0 0 0 1 0 0 12 | 0 -7 0 0 1 0 0 0 12
-1 0 0 0 0 0 0 0 6 | 0 -3 0 0 2 0 0 0 6
-1 0 0 0 0 -1 0 0 6 | 0 -1 0 0 1 0 0 0 3
-5 0 0 0 0 -3 0 0 12 | 0 -3 0 0 1 0 0 0 12
-4 0 0 0 0 -1 0 0 6 | 0 -2 0 0 -1 0 0 0 6
-2 0 0 0 0 0 0 0 3 | 0 -3 0 0 -1 0 0 0 6
7 0 0 0 0 -1 0 0 12 | 0 -5 0 0 1 0 0 0 12
1 0 0 0 0 -1 0 0 12 | 0 1 0 0 1 0 0 0 12
-11 0 0 0 0 -1 0 0 12 | 0 1 0 0 1 0 0 0 12
-5 0 0 0 0 1 0 0 12 | 0 -3 0 0 1 0 0 0 12
-2 0 0 0 0 0 0 0 3 | 0 -1 0 0 1 0 0 0 3
-1 0 0 0 0 -1 0 0 6 | 0 -3 0 0 -1 0 0 0 6
-1 0 0 0 0 0 0 0 6 | 0 -2 0 0 -1 0 0 0 6
0 0 0 0 0 -1 0 0 6 | 0 0 0 0 1 0 0 0 6
5 0 0 0 0 1 0 0 12 | 0 -7 0 0 -1 0 0 0 12
2 0 0 0 0 0 0 0 3 | 0 -3 0 0 1 0 0 0 6
4 0 0 0 0 -1 0 0 6 | 0 -2 0 0 1 0 0 0 6
5 0 0 0 0 -3 0 0 12 | 0 -3 0 0 -1 0 0 0 12
1 0 0 0 0 -1 0 0 6 | 0 -1 0 0 -1 0 0 0 3
1 0 0 0 0 0 0 0 6 | 0 -3 0 0 -2 0 0 0 6
11 0 0 0 0 -1 0 0 12 | 0 1 0 0 -1 0 0 0 12
-1 0 0 0 0 -1 0 0 12 | 0 1 0 0 -1 0 0 0 12
-7 0 0 0 0 -1 0 0 12 | 0 -5 0 0 -1 0 0 0 12
5 0 0 0 0 1 0 0 12 | 0 -3 0 0 -1 0 0 0 12
1 0 0 0 0 0 0 0 6 | 0 -2 0 0 1 0 0 0 6
1 0 0 0 0 -1 0 0 6 | 0 -3 0 0 1 0 0 0 6
2 0 0 0 0 0 0 0 3 | 0 -1 0 0 -1 0 0 0 3
0 0 0 0 0 1 0 0 3 | 0 -1 0 0 0 0 0 0 3
1 0 0 0 0 1 0 0 4 | 0 -1 0 0 1 0 0 0 4
-1 0 0 0 0 1 0 0 4 | 0 -1 0 0 -1 0 0 0 4
6 0 0 0 0 1 0 0 6 | 0 -1 0 0 0 0 0 0 6
3 0 0 0 0 1 0 0 6 | 0 1 0 0 0 0 0 0 3
-3 0 0 0 0 1 0 0 6 | 0 1 0 0 0 0 0 0 3
-6 0 0 0 0 1 0 0 6 | 0 -1 0 0 0 0 0 0 6
-3 0 0 0 0 1 0 0 6 | 0 -2 0 0 0 0 0 0 3
3 0 0 0 0 1 0 0 6 | 0 -2 0 0 0 0 0 0 3
0 0 0 0 0 1 0 0 3 | 0 0 0 0 0 0 0 0 1
-1 0 0 0 0 1 0 0 4 | 0 -1 0 0 3 0 0 0 12
-3 0 0 0 0 1 0 0 12 | 0 -1 0 0 1 0 0 0 4
0 0 0 0 0 0 0 0 1 | 0 -1 0 0 0 0 0 0 3
3 0 0 0 0 1 0 0 12 | 0 -1 0 0 -1 0 0 0 4
1 0 0 0 0 1 0 0 4 | 0 -1 0 0 -3 0 0 0 12
5 0 0 0 0 1 0 0 6 | 0 -1 0 0 1 0 0 0 6
5 0 0 0 0 1 0 0 12 | 0 3 0 0 1 0 0 0 12
-5 0 0 0 0 1 0 0 12 | 0 3 0 0 -1 0 0 0 12
-5 0 0 0 0 1 0 0 6 | 0 -1 0 0 -1 0 0 0 6
3 0 0 0 0 1 0 0 6 | 0 -1 0 0 3 0 0 0 6
1 0 0 0 0 0 0 0 2 | 0 0 0 0 1 0 0 0 2
15 0 0 0 0 1 0 0 12 | 0 -1 0 0 3 0 0 0 12
9 0 0 0 0 1 0 0 12 | 0 5 0 0 3 0 0 0 12
-3 0 0 0 0 1 0 0 12 | 0 5 0 0 3 0 0 0 12
-9 0 0 0 0 1 0 0 12 | 0 -1 0 0 3 0 0 0 12
-3 0 0 0 0 1 0 0 12 | 0 -7 0 0 3 0 0 0 12
9 0 0 0 0 1 0 0 12 | 0 -7 0 0 3 0 0 0 12
1 0 0 0 0 1 0 0 4 | 0 1 0 0 3 0 0 0 12
0 0 0 0 0 1 0 0 6 | 0 0 0 0 1 0 0 0 2
0 0 0 0 0 0 0 0 1 | 0 -1 0 0 3 0 0 0 6
3 0 0 0 0 -1 0 0 12 | 0 -1 0 0 1 0 0 0 4
1 0 0 0 0 0 0 0 2 | 0 -1 0 0 0 0 0 0 6
3 0 0 0 0 1 0 0 6 | 0 0 0 0 0 0 0 0 1
2 0 0 0 0 0 0 0 3 | 0 1 0 0 1 0 0 0 3
-1 0 0 0 0 0 0 0 6 | 0 2 0 0 1 0 0 0 6
-7 0 0 0 0 1 0 0 12 | 0 -1 0 0 1 0 0 0 12
-1 0 0 0 0 1 0 0 6 | 0 -3 0 0 1 0 0 0 6
3 0 0 0 0 -1 0 0 6 | 0 1 0 0 3 0 0 0 6
1 0 0 0 0 -1 0 0 4 | 0 1 0 0 1 0 0 0 4
15 0 0 0 0 -1 0 0 12 | 0 1 0 0 3 0 0 0 12
9 0 0 0 0 -1 0 0 12 | 0 7 0 0 3 0 0 0 12
-3 0 0 0 0 -1 0 0 12 | 0 7 0 0 3 0 0 0 12
-9 0 0 0 0 -1 0 0 12 | 0 1 0 0 3 0 0 0 12
-3 0 0 0 0 -1 0 0 12 | 0 -5 0 0 3 0 0 0 12
9 0 0 0 0 -1 0 0 12 | 0 -5 0 0 3 0 0 0 12
3 0 0 0 0 1 0 0 12 | 0 1 0 0 1 0 0 0 4
0 0 0 0 0 0 0 0 1 | 0 1 0 0 3 0 0 0 6
0 0 0 0 0 -1 0 0 6 | 0 0 0 0 1 0 0 0 2
1 0 0 0 0 -1 0 0 4 | 0 -1 0 0 3 0 0 0 12
3 0 0 0 0 -1 0 0 6 | 0 0 0 0 0 0 0 0 1
1 0 0 0 0 0 0 0 2 | 0 1 0 0 0 0 0 0 6
-1 0 0 0 0 -1 0 0 6 | 0 3 0 0 1 0 0 0 6
-7 0 0 0 0 -1 0 0 12 | 0 1 0 0 1 0 0 0 12
-1 0 0 0 0 0 0 0 6 | 0 -2 0 0 1 0 0 0 6
2 0 0 0 0 0 0 0 3 | 0 -1 0 0 1 0 0 0 3
0 0 0 0 0 -1 0 0 3 | 0 1 0 0 0 0 0 0 3
-1 0 0 0 0 -1 0 0 4 | 0 1 0 0 -1 0 0 0 4
6 0 0 0 0 -1 0 0 6 | 0 1 0 0 0 0 0 0 6
3 0 0 0 0 -1 0 0 6 | 0 2 0 0 0 0 0 0 3
-3 0 0 0 0 -1 0 0 6 | 0 2 0 0 0 0 0 0 3
-6 0 0 0 0 -1 0 0 6 | 0 1 0 0 0 0 0 0 6
-3 0 0 0 0 -1 0 0 6 | 0 -1 0 0 0 0 0 0 3
3 0 0 0 0 -1 0 0 6 | 0 -1 0 0 0 0 0 0 3
0 0 0 0 0 0 0 0 1 | 0 1 0 0 0 0 0 0 3
-3 0 0 0 0 -1 0 0 12 | 0 1 0 0 1 0 0 0 4
-1 0 0 0 0 -1 0 0 4 | 0 1 0 0 3 0 0 0 12
0 0 0 0 0 -1 0 0 3 | 0 0 0 0 0 0 0 0 1
1 0 0 0 0 -1 0 0 4 | 0 1 0 0 -3 0 0 0 12
3 0 0 0 0 -1 0 0 12 | 0 1 0 0 -1 0 0 0 4
5 0 0 0 0 -1 0 0 6 | 0 1 0 0 1 0 0 0 6
-5 0 0 0 0 -1 0 0 6 | 0 1 0 0 -1 0 0 0 6
-5 0 0 0 0 -1 0 0 12 | 0 -3 0 0 -1 0 0 0 12
5 0 0 0 0 -1 0 0 12 | 0 -3 0 0 1 0 0 0 12
-3 0 0 0 0 -1 0 0 6 | 0 1 0 0 -3 0 0 0 6
-1 0 0 0 0 0 0 0 2 | 0 0 0 0 -1 0 0 0 2
9 0 0 0 0 -1 0 0 12 | 0 1 0 0 -3 0 0 0 12
3 0 0 0 0 -1 0 0 12 | 0 7 0 0 -3 0 0 0 12
-9 0 0 0 0 -1 0 0 12 | 0 7 0 0 -3 0 0 0 12
-15 0 0 0 0 -1 0 0 12 | 0 1 0 0 -3 0 0 0 12
-9 0 0 0 0 -1 0 0 12 | 0 -5 0 0 -3 0 0 0 12
3 0 0 0 0 -1 0 0 12 | 0 -5 0 0 -3 0 0 0 12
-3 0 0 0 0 1 0 0 12 | 0 1 0 0 -1 0 0 0 4
-1 0 0 0 0 0 0 0 2 | 0 1 0 0 0 0 0 0 6
-3 0 0 0 0 -1 0 0 6 | 0 0 0 0 0 0 0 0 1
-1 0 0 0 0 -1 0 0 4 | 0 -1 0 0 -3 0 0 0 12
0 0 0 0 0 -1 0 0 6 | 0 0 0 0 -1 0 0 0 2
0 0 0 0 0 0 0 0 1 | 0 1 0 0 -3 0 0 0 6
7 0 0 0 0 -1 0 0 12 | 0 1 0 0 -1 0 0 0 12
1 0 0 0 0 -1 0 0 6 | 0 3 0 0 -1 0 0 0 6
-2 0 0 0 0 0 0 0 3 | 0 -1 0 0 -1 0 0 0 3
1 0 0 0 0 0 0 0 6 | 0 -2 0 0 -1 0 0 0 6
-3 0 0 0 0 1 0 0 6 | 0 -1 0 0 -3 0 0 0 6
9 0 0 0 0 1 0 0 12 | 0 -1 0 0 -3 0 0 0 12
3 0 0 0 0 1 0 0 12 | 0 5 0 0 -3 0 0 0 12
-9 0 0 0 0 1 0 0 12 | 0 5 0 0 -3 0 0 0 12
-15 0 0 0 0 1 0 0 12 | 0 -1 0 0 -3 0 0 0 12
-9 0 0 0 0 1 0 0 12 | 0 -7 0 0 -3 0 0 0 12
3 0 0 0 0 1 0 0 12 | 0 -7 0 0 -3 0 0 0 12
-1 0 0 0 0 1 0 0 4 | 0 1 0 0 -3 0 0 0 12
-3 0 0 0 0 1 0 0 6 | 0 0 0 0 0 0 0 0 1
-1 0 0 0 0 0 0 0 2 | 0 -1 0 0 0 0 0 0 6
-3 0 0 0 0 -1 0 0 12 | 0 -1 0 0 -1 0 0 0 4
0 0 0 0 0 0 0 0 1 | 0 -1 0 0 -3 0 0 0 6
0 0 0 0 0 1 0 0 6 | 0 0 0 0 -1 0 0 0 2
7 0 0 0 0 1 0 0 12 | 0 -1 0 0 -1 0 0 0 12
1 0 0 0 0 0 0 0 6 | 0 2 0 0 -1 0 0 0 6
-2 0 0 0 0 0 0 0 3 | 0 1 0 0 -1 0 0 0 3
1 0 0 0 0 1 0 0 6 | 0 -3 0 0 -1 0 0 0 6
2 0 0 0 0 0 0 0 1 | 0 0 0 0 0 0 0 0 1
3 0 0 0 0 0 0 0 2 | 0 1 0 0 0 0 0 0 2
3 0 0 0 0 0 0 0 2 | 0 -1 0 0 0 0 0 0 2
6 0 0 0 0 1 0 0 6 | 0 1 0 0 0 0 0 0 6
9 0 0 0 0 1 0 0 12 | 0 1 0 0 3 0 0 0 12
9 0 0 0 0 -1 0 0 12 | 0 -1 0 0 3 0 0 0 12
6 0 0 0 0 -1 0 0 6 | 0 -1 0 0 0 0 0 0 6
15 0 0 0 0 -1 0 0 12 | 0 -1 0 0 -3 0 0 0 12
15 0 0 0 0 1 0 0 12 | 0 1 0 0 -3 0 0 0 12
7 0 0 0 0 -1 0 0 12 | 0 5 0 0 -1 0 0 0 12
1 0 0 0 0 0 0 0 6 | 0 0 0 0 -1 0 0 0 6
7 0 0 0 0 1 0 0 12 | 0 -5 0 0 -1 0 0 0 12
1 0 0 0 0 0 0 0 1 | 0 1 0 0 0 0 0 0 1
0 0 0 0 0 0 0 0 1 | 0 1 0 0 0 0 0 0 1
3 0 0 0 0 1 0 0 6 | 0 2 0 0 0 0 0 0 3
3 0 0 0 0 1 0 0 12 | 0 7 0 0 3 0 0 0 12
3 0 0 0 0 -1 0 0 12 | 0 5 0 0 3 0 0 0 12
3 0 0 0 0 -1 0 0 6 | 0 1 0 0 0 0 0 0 3
9 0 0 0 0 -1 0 0 12 | 0 5 0 0 -3 0 0 0 12
9 0 0 0 0 1 0 0 12 | 0 7 0 0 -3 0 0 0 12
1 0 0 0 0 -1 0 0 12 | 0 11 0 0 -1 0 0 0 12
-1 0 0 0 0 0 0 0 3 | 0 3 0 0 -1 0 0 0 6
1 0 0 0 0 1 0 0 12 | 0 1 0 0 -1 0 0 0 12
11 0 0 0 0 1 0 0 12 | 0 1 0 0 1 0 0 0 12
-1 0 0 0 0 0 0 0 1 | 0 1 0 0 0 0 0 0 1
-3 0 0 0 0 0 0 0 2 | 0 1 0 0 0 0 0 0 2
-3 0 0 0 0 1 0 0 6 | 0 2 0 0 0 0 0 0 3
-9 0 0 0 0 1 0 0 12 | 0 7 0 0 3 0 0 0 12
-9 0 0 0 0 -1 0 0 12 | 0 5 0 0 3 0 0 0 12
-3 0 0 0 0 -1 0 0 6 | 0 1 0 0 0 0 0 0 3
-3 0 0 0 0 -1 0 0 12 | 0 5 0 0 -3 0 0 0 12
-3 0 0 0 0 1 0 0 12 | 0 7 0 0 -3 0 0 0 12
1 0 0 0 0 0 0 0 3 | 0 3 0 0 1 0 0 0 6
-11 0 0 0 0 1 0 0 12 | 0 1 0 0 -1 0 0 0 12
-1 0 0 0 0 1 0 0 12 | 0 1 0 0 1 0 0 0 12
-2 0 0 0 0 0 0 0 1 | 0 0 0 0 0 0 0 0 1
-3 0 0 0 0 0 0 0 2 | 0 -1 0 0 0 0 0 0 2
-6 0 0 0 0 1 0 0 6 | 0 1 0 0 0 0 0 0 6
-15 0 0 0 0 1 0 0 12 | 0 1 0 0 3 0 0 0 12
-15 0 0 0 0 -1 0 0 12 | 0 -1 0 0 3 0 0 0 12
-6 0 0 0 0 -1 0 0 6 | 0 -1 0 0 0 0 0 0 6
-9 0 0 0 0 -1 0 0 12 | 0 -1 0 0 -3 0 0 0 12
-9 0 0 0 0 1 0 0 12 | 0 1 0 0 -3 0 0 0 12
-1 0 0 0 0 0 0 0 6 | 0 0 0 0 1 0 0 0 6
-7 0 0 0 0 -1 0 0 12 | 0 5 0 0 1 0 0 0 12
-7 0 0 0 0 1 0 0 12 | 0 -5 0 0 1 0 0 0 12
-1 0 0 0 0 0 0 0 1 | 0 -1 0 0 0 0 0 0 1
0 0 0 0 0 0 0 0 1 | 0 -1 0 0 0 0 0 0 1
-3 0 0 0 0 1 0 0 6 | 0 -1 0 0 0 0 0 0 3
-9 0 0 0 0 1 0 0 12 | 0 -5 0 0 3 0 0 0 12
-9 0 0 0 0 -1 0 0 12 | 0 -7 0 0 3 0 0 0 12
-3 0 0 0 0 -1 0 0 6 | 0 -2 0 0 0 0 0 0 3
-3 0 0 0 0 -1 0 0 12 | 0 -7 0 0 -3 0 0 0 12
-3 0 0 0 0 1 0 0 12 | 0 -5 0 0 -3 0 0 0 12
1 0 0 0 0 0 0 0 3 | 0 -3 0 0 1 0 0 0 6
-1 0 0 0 0 -1 0 0 12 | 0 -1 0 0 1 0 0 0 12
-11 0 0 0 0 -1 0 0 12 | 0 -1 0 0 -1 0 0 0 12
1 0 0 0 0 0 0 0 1 | 0 -1 0 0 0 0 0 0 1
3 0 0 0 0 1 0 0 6 | 0 -1 0 0 0 0 0 0 3
3 0 0 0 0 1 0 0 12 | 0 -5 0 0 3 0 0 0 12
3 0 0 0 0 -1 0 0 12 | 0 -7 0 0 3 0 0 0 12
3 0 0 0 0 -1 0 0 6 | 0 -2 0 0 0 0 0 0 3
9 0 0 0 0 -1 0 0 12 | 0 -7 0 0 -3 0 0 0 12
9 0 0 0 0 1 0 0 12 | 0 -5 0 0 -3 0 0 0 12
4 0 0 0 0 0 0 0 3 | 0 -3 0 0 1 0 0 0 6
11 0 0 0 0 -1 0 0 12 | 0 -1 0 0 1 0 0 0 12
1 0 0 0 0 -1 0 0 12 | 0 -1 0 0 -1 0 0 0 12
-1 0 0 0 0 0 0 0 3 | 0 -3 0 0 -1 0 0 0 6
0 0 0 0 0 1 0 0 3 | 0 1 0 0 0 0 0 0 3
-1 0 0 0 0 1 0 0 4 | 0 1 0 0 1 0 0 0 4
1 0 0 0 0 1 0 0 4 | 0 1 0 0 -1 0 0 0 4
5 0 0 0 0 1 0 0 6 | 0 1 0 0 1 0 0 0 6
5 0 0 0 0 1 0 0 12 | 0 7 0 0 1 0 0 0 12
-5 0 0 0 0 1 0 0 12 | 0 7 0 0 -1 0 0 0 12
-5 0 0 0 0 1 0 0 6 | 0 1 0 0 -1 0 0 0 6
-5 0 0 0 0 3 0 0 12 | 0 -3 0 0 -1 0 0 0 12
5 0 0 0 0 3 0 0 12 | 0 -3 0 0 1 0 0 0 12
-3 0 0 0 0 1 0 0 6 | 0 1 0 0 3 0 0 0 6
-1 0 0 0 0 0 0 0 2 | 0 0 0 0 1 0 0 0 2
7 0 0 0 0 1 0 0 12 | 0 1 0 0 5 0 0 0 12
1 0 0 0 0 0 0 0 6 | 0 3 0 0 2 0 0 0 6
-2 0 0 0 0 0 0 0 3 | 0 3 0 0 1 0 0 0 6
-13 0 0 0 0 1 0 0 12 | 0 1 0 0 1 0 0 0 12
-4 0 0 0 0 1 0 0 6 | 0 -2 0 0 1 0 0 0 6
1 0 0 0 0 1 0 0 6 | 0 -1 0 0 1 0 0 0 3
-3 0 0 0 0 -1 0 0 6 | 0 -1 0 0 3 0 0 0 6
-1 0 0 0 0 -1 0 0 4 | 0 -1 0 0 1 0 0 0 4
7 0 0 0 0 -1 0 0 12 | 0 -1 0 0 5 0 0 0 12
1 0 0 0 0 -1 0 0 6 | 0 1 0 0 1 0 0 0 3
-4 0 0 0 0 -1 0 0 6 | 0 2 0 0 1 0 0 0 6
-13 0 0 0 0 -1 0 0 12 | 0 -1 0 0 1 0 0 0 12
-2 0 0 0 0 0 0 0 3 | 0 -3 0 0 1 0 0 0 6
1 0 0 0 0 0 0 0 6 | 0 -3 0 0 2 0 0 0 6
0 0 0 0 0 -1 0 0 3 | 0 -1 0 0 0 0 0 0 3
1 0 0 0 0 -1 0 0 4 | 0 -1 0 0 -1 0 0 0 4
5 0 0 0 0 -1 0 0 6 | 0 -1 0 0 1 0 0 0 6
5 0 0 0 0 -3 0 0 12 | 0 3 0 0 1 0 0 0 12
-5 0 0 0 0 -3 0 0 12 | 0 3 0 0 -1 0 0 0 12
-5 0 0 0 0 -1 0 0 6 | 0 -1 0 0 -1 0 0 0 6
-5 0 0 0 0 -1 0 0 12 | 0 -7 0 0 -1 0 0 0 12
5 0 0 0 0 -1 0 0 12 | 0 -7 0 0 1 0 0 0 12
3 0 0 0 0 -1 0 0 6 | 0 -1 0 0 -3 0 0 0 6
1 0 0 0 0 0 0 0 2 | 0 0 0 0 -1 0 0 0 2
13 0 0 0 0 -1 0 0 12 | 0 -1 0 0 -1 0 0 0 12
4 0 0 0 0 -1 0 0 6 | 0 2 0 0 -1 0 0 0 6
-1 0 0 0 0 -1 0 0 6 | 0 1 0 0 -1 0 0 0 3
-7 0 0 0 0 -1 0 0 12 | 0 -1 0 0 -5 0 0 0 12
-1 0 0 0 0 0 0 0 6 | 0 -3 0 0 -2 0 0 0 6
2 0 0 0 0 0 0 0 3 | 0 -3 0 0 -1 0 0 0 6
3 0 0 0 0 1 0 0 6 | 0 1 0 0 -3 0 0 0 6
13 0 0 0 0 1 0 0 12 | 0 1 0 0 -1 0 0 0 12
2 0 0 0 0 0 0 0 3 | 0 3 0 0 -1 0 0 0 6
-1 0 0 0 0 0 0 0 6 | 0 3 0 0 -2 0 0 0 6
-7 0 0 0 0 1 0 0 12 | 0 1 0 0 -5 0 0 0 12
-1 0 0 0 0 1 0 0 6 | 0 -1 0 0 -1 0 0 0 3
4 0 0 0 0 1 0 0 6 | 0 -2 0 0 -1 0 0 0 6
15 0 0 0 0 -1 0 0 12 | 0 5 0 0 3 0 0 0 12
15 0 0 0 0 1 0 0 12 | 0 -5 0 0 3 0 0 0 12
0 0 0 0 0 -1 0 0 6 | 0 5 0 0 0 0 0 0 6
-15 0 0 0 0 -1 0 0 12 | 0 5 0 0 -3 0 0 0 12
-15 0 0 0 0 1 0 0 12 | 0 -5 0 0 -3 0 0 0 12
0 0 0 0 0 1 0 0 6 | 0 -5 0 0 0 0 0 0 6
2 0 0 0 0 0 0 0 3 | 0 0 0 0 -1 0 0 0 3
17 0 0 0 0 -1 0 0 12 | 0 -1 0 0 -1 0 0 0 12
15 0 0 0 0 -1 0 0 12 | 0 7 0 0 -3 0 0 0 12
1 0 0 0 0 0 0 0 1 | 0 1 0 0 -1 0 0 0 2
9 0 0 0 0 1 0 0 12 | 0 11 0 0 -3 0 0 0 12
1 0 0 0 0 0 0 0 1 | 0 1 0 0 0 0 0 0 3
15 0 0 0 0 -1 0 0 12 | 0 1 0 0 -1 0 0 0 4
9 0 0 0 0 -1 0 0 6 | 0 -1 0 0 0 0 0 0 3
5 0 0 0 0 -1 0 0 4 | 0 -1 0 0 -1 0 0 0 4
21 0 0 0 0 -1 0 0 12 | 0 1 0 0 -3 0 0 0 12
1 0 0 0 0 0 0 0 1 | 0 -1 0 0 0 0 0 0 3
6 0 0 0 0 -1 0 0 6 | 0 -1 0 0 0 0 0 0 2
2 0 0 0 0 1 0 0 6 | 0 2 0 0 -1 0 0 0 6
-1 0 0 0 0 1 0 0 6 | 0 -1 0 0 -1 0 0 0 6
7 0 0 0 0 1 0 0 12 | 0 -3 0 0 1 0 0 0 12
5 0 0 0 0 0 0 0 6 | 0 -2 0 0 -1 0 0 0 6
7 0 0 0 0 1 0 0 12 | 0 -7 0 0 1 0 0 0 12
5 0 0 0 0 0 0 0 6 | 0 -1 0 0 2 0 0 0 6
13 0 0 0 0 -1 0 0 12 | 0 -3 0 0 1 0 0 0 12
4 0 0 0 0 0 0 0 3 | 0 -1 0 0 -1 0 0 0 6
3 0 0 0 0 1 0 0 12 | 0 -1 0 0 -1 0 0 0 12
7 0 0 0 0 -1 0 0 12 | 0 7 0 0 1 0 0 0 12
13 0 0 0 0 1 0 0 12 | 0 3 0 0 1 0 0 0 12
5 0 0 0 0 0 0 0 6 | 0 1 0 0 2 0 0 0 6
5 0 0 0 0 -1 0 0 6 | 0 0 0 0 1 0 0 0 3
4 0 0 0 0 0 0 0 3 | 0 1 0 0 -1 0 0 0 6
3 0 0 0 0 -1 0 0 12 | 0 1 0 0 -1 0 0 0 12
-1 0 0 0 0 -1 0 0 6 | 0 1 0 0 -1 0 0 0 6
2 0 0 0 0 -1 0 0 6 | 0 -2 0 0 -1 0 0 0 6
5 0 0 0 0 0 0 0 6 | 0 2 0 0 -1 0 0 0 6
7 0 0 0 0 -1 0 0 12 | 0 3 0 0 1 0 0 0 12
7 0 0 0 0 -3 0 0 12 | 0 1 0 0 1 0 0 0 12
-5 0 0 0 0 -1 0 0 12 | 0 1 0 0 -5 0 0 0 12
1 0 0 0 0 0 0 0 3 | 0 1 0 0 -1 0 0 0 6
2 0 0 0 0 -1 0 0 6 | 0 0 0 0 -1 0 0 0 6
1 0 0 0 0 1 0 0 12 | 0 5 0 0 -5 0 0 0 12
-5 0 0 0 0 1 0 0 12 | 0 -1 0 0 -5 0 0 0 12
2 0 0 0 0 1 0 0 6 | 0 0 0 0 -1 0 0 0 6
1 0 0 0 0 0 0 0 3 | 0 -1 0 0 -1 0 0 0 6
7 0 0 0 0 -1 0 0 12 | 0 -3 0 0 -5 0 0 0 12
13 0 0 0 0 -1 0 0 12 | 0 5 0 0 1 0 0 0 12
2 0 0 0 0 1 0 0 6 | 0 4 0 0 -1 0 0 0 6
1 0 0 0 0 1 0 0 12 | 0 7 0 0 1 0 0 0 12
1 0 0 0 0 -1 0 0 12 | 0 5 0 0 1 0 0 0 12
2 0 0 0 0 -1 0 0 6 | 0 2 0 0 -1 0 0 0 6
7 0 0 0 0 1 0 0 12 | 0 7 0 0 -5 0 0 0 12
9 0 0 0 0 1 0 0 12 | 0 1 0 0 -1 0 0 0 12
-7 0 0 0 0 0 0 0 6 | 0 0 0 0 -1 0 0 0 6
-1 0 0 0 0 1 0 0 6 | 0 1 0 0 -1 0 0 0 6
-5 0 0 0 0 1 0 0 12 | 0 1 0 0 1 0 0 0 12
-5 0 0 0 0 -1 0 0 12 | 0 -1 0 0 1 0 0 0 12
-1 0 0 0 0 -1 0 0 6 | 0 -1 0 0 -1 0 0 0 6
1 0 0 0 0 -1 0 0 12 | 0 -1 0 0 -5 0 0 0 12
1 0 0 0 0 1 0 0 12 | 0 1 0 0 -5 0 0 0 12
2 0 0 0 0 0 0 0 3 | 0 0 0 0 0 0 0 0 1
3 0 0 0 0 -1 0 0 12 | 0 5 0 0 -1 0 0 0 12
3 0 0 0 0 1 0 0 12 | 0 -5 0 0 -1 0 0 0 12
2 0 0 0 0 1 0 0 6 | 0 -2 0 0 -1 0 0 0 6
1 0 0 0 0 1 0 0 12 | 0 -5 0 0 1 0 0 0 12
1 0 0 0 0 -1 0 0 12 | 0 -7 0 0 1 0 0 0 12
2 0 0 0 0 -1 0 0 6 | 0 -4 0 0 -1 0 0 0 6
9 0 0 0 0 -1 0 0 12 | 0 -1 0 0 -1 0 0 0 12
13 0 0 0 0 1 0 0 12 | 0 -5 0 0 1 0 0 0 12
2 0 0 0 0 1 0 0 6 | 0 1 0 0 2 0 0 0 6
1 0 0 0 0 0 0 0 3 | 0 0 0 0 1 0 0 0 3
-3 0 0 0 0 1 0 0 12 | 0 1 0 0 -1 0 0 0 12
2 0 0 0 0 -1 0 0 6 | 0 -1 0 0 2 0 0 0 6
7 0 0 0 0 -3 0 0 12 | 0 -3 0 0 1 0 0 0 12
-3 0 0 0 0 -1 0 0 12 | 0 -1 0 0 -1 0 0 0 12
7 0 0 0 0 1 0 0 12 | 0 9 0 0 1 0 0 0 12
5 0 0 0 0 0 0 0 6 | 0 4 0 0 -1 0 0 0 6
-3 0 0 0 0 1 0 0 12 | 0 11 0 0 -3 0 0 0 12
-1 0 0 0 0 1 0 0 4 | 0 3 0 0 -1 0 0 0 4
-6 0 0 0 0 1 0 0 6 | 0 5 0 0 0 0 0 0 6
0 0 0 0 0 0 0 0 1 | 0 2 0 0 0 0 0 0 3
3 0 0 0 0 1 0 0 12 | 0 3 0 0 -1 0 0 0 4
-5 0 0 0 0 3 0 0 12 | 0 5 0 0 -1 0 0 0 12
-7 0 0 0 0 3 0 0 12 | 0 3 0 0 -1 0 0 0 12
-1 0 0 0 0 3 0 0 12 | 0 -3 0 0 -1 0 0 0 12
1 0 0 0 0 1 0 0 6 | 0 1 0 0 1 0 0 0 6
5 0 0 0 0 1 0 0 12 | 0 1 0 0 -1 0 0 0 12
4 0 0 0 0 1 0 0 6 | 0 1 0 0 -2 0 0 0 6
-2 0 0 0 0 1 0 0 6 | 0 2 0 0 1 0 0 0 6
1 0 0 0 0 1 0 0 6 | 0 -1 0 0 1 0 0 0 6
2 0 0 0 0 0 0 0 3 | 0 1 0 0 1 0 0 0 6
11 0 0 0 0 1 0 0 12 | 0 3 0 0 -1 0 0 0 12
7 0 0 0 0 0 0 0 6 | 0 0 0 0 1 0 0 0 6
4 0 0 0 0 -1 0 0 6 | 0 2 0 0 1 0 0 0 6
11 0 0 0 0 -1 0 0 12 | 0 5 0 0 -1 0 0 0 12
3 0 0 0 0 1 0 0 12 | 0 1 0 0 1 0 0 0 12
17 0 0 0 0 -1 0 0 12 | 0 7 0 0 -1 0 0 0 12
-7 0 0 0 0 -1 0 0 12 | 0 7 0 0 -1 0 0 0 12
5 0 0 0 0 1 0 0 12 | 0 9 0 0 -1 0 0 0 12
1 0 0 0 0 0 0 0 6 | 0 4 0 0 1 0 0 0 6
1 0 0 0 0 -1 0 0 6 | 0 3 0 0 1 0 0 0 6
0 0 0 0 0 0 0 0 1 | 0 1 0 0 -1 0 0 0 6
5 0 0 0 0 0 0 0 6 | 0 1 0 0 0 0 0 0 6
-5 0 0 0 0 0 0 0 6 | 0 3 0 0 -2 0 0 0 6
-1 0 0 0 0 0 0 0 3 | 0 0 0 0 -1 0 0 0 3
-1 0 0 0 0 1 0 0 12 | 0 7 0 0 -1 0 0 0 12
-1 0 0 0 0 -1 0 0 12 | 0 5 0 0 -1 0 0 0 12
1 0 0 0 0 -1 0 0 6 | 0 1 0 0 -1 0 0 0 3
-1 0 0 0 0 1 0 0 12 | 0 3 0 0 -1 0 0 0 12
1 0 0 0 0 0 0 0 6 | 0 1 0 0 -2 0 0 0 6
7 0 0 0 0 0 0 0 6 | 0 2 0 0 1 0 0 0 6
-1 0 0 0 0 -1 0 0 12 | 0 9 0 0 -1 0 0 0 12
-5 0 0 0 0 1 0 0 6 | 0 3 0 0 1 0 0 0 6
-5 0 0 0 0 0 0 0 6 | 0 2 0 0 1 0 0 0 6
-7 0 0 0 0 -1 0 0 12 | 0 3 0 0 -1 0 0 0 12
-1 0 0 0 0 0 0 0 3 | 0 1 0 0 -1 0 0 0 3
3 0 0 0 0 1 0 0 12 | 0 5 0 0 1 0 0 0 12
-7 0 0 0 0 1 0 0 12 | 0 -7 0 0 -1 0 0 0 12
-1 0 0 0 0 3 0 0 12 | 0 1 0 0 -1 0 0 0 12
-2 0 0 0 0 1 0 0 6 | 0 0 0 0 1 0 0 0 6
-1 0 0 0 0 0 0 0 3 | 0 -1 0 0 1 0 0 0 6
-1 0 0 0 0 -1 0 0 12 | 0 -3 0 0 -1 0 0 0 12
1 0 0 0 0 0 0 0 6 | 0 -1 0 0 -2 0 0 0 6
1 0 0 0 0 1 0 0 6 | 0 0 0 0 -1 0 0 0 3
9 0 0 0 0 1 0 0 12 | 0 -1 0 0 1 0 0 0 12
1 0 0 0 0 0 0 0 3 | 0 1 0 0 0 0 0 0 3
4 0 0 0 0 1 0 0 6 | 0 0 0 0 1 0 0 0 6
2 0 0 0 0 0 0 0 3 | 0 -1 0 0 1 0 0 0 6
11 0 0 0 0 -1 0 0 12 | 0 -3 0 0 -1 0 0 0 12
7 0 0 0 0 0 0 0 6 | 0 -1 0 0 -2 0 0 0 6
-1 0 0 0 0 -1 0 0 12 | 0 3 0 0 5 0 0 0 12
1 0 0 0 0 -1 0 0 6 | 0 1 0 0 1 0 0 0 6
-3 0 0 0 0 1 0 0 12 | 0 -1 0 0 1 0 0 0 12
5 0 0 0 0 -3 0 0 12 | 0 1 0 0 -1 0 0 0 12
4 0 0 0 0 -1 0 0 6 | 0 1 0 0 -2 0 0 0 6
0 0 0 0 0 0 0 0 1 | 0 -1 0 0 -1 0 0 0 6
-8 0 0 0 0 1 0 0 6 | 0 2 0 0 1 0 0 0 6
-5 0 0 0 0 0 0 0 6 | 0 4 0 0 1 0 0 0 6
-7 0 0 0 0 1 0 0 12 | 0 9 0 0 -1 0 0 0 12
-5 0 0 0 0 1 0 0 4 | 0 1 0 0 1 0 0 0 4
-9 0 0 0 0 1 0 0 6 | 0 1 0 0 0 0 0 0 3
-21 0 0 0 0 1 0 0 12 | 0 -1 0 0 3 0 0 0 12
-1 0 0 0 0 0 0 0 1 | 0 1 0 0 0 0 0 0 3
-6 0 0 0 0 1 0 0 6 | 0 1 0 0 0 0 0 0 2
-5 0 0 0 0 1 0 0 6 | 0 0 0 0 1 0 0 0 3
1 0 0 0 0 3 0 0 12 | 0 -3 0 0 1 0 0 0 12
-4 0 0 0 0 1 0 0 6 | 0 1 0 0 2 0 0 0 6
-4 0 0 0 0 1 0 0 6 | 0 -1 0 0 2 0 0 0 6
2 0 0 0 0 1 0 0 6 | 0 -1 0 0 2 0 0 0 6
-1 0 0 0 0 0 0 0 6 | 0 1 0 0 2 0 0 0 6
1 0 0 0 0 1 0 0 12 | 0 3 0 0 1 0 0 0 12
1 0 0 0 0 3 0 0 12 | 0 5 0 0 1 0 0 0 12
-2 0 0 0 0 0 0 0 3 | 0 0 0 0 1 0 0 0 3
-5 0 0 0 0 1 0 0 12 | 0 9 0 0 1 0 0 0 12
-1 0 0 0 0 -1 0 0 6 | 0 3 0 0 -1 0 0 0 6
-1 0 0 0 0 0 0 0 6 | 0 4 0 0 -1 0 0 0 6
0 0 0 0 0 0 0 0 1 | 0 1 0 0 1 0 0 0 6
-11 0 0 0 0 1 0 0 12 | 0 7 0 0 1 0 0 0 12
-11 0 0 0 0 -1 0 0 12 | 0 5 0 0 1 0 0 0 12
-4 0 0 0 0 -1 0 0 6 | 0 2 0 0 -1 0 0 0 6
-11 0 0 0 0 1 0 0 12 | 0 3 0 0 1 0 0 0 12
-2 0 0 0 0 0 0 0 3 | 0 1 0 0 -1 0 0 0 6
-5 0 0 0 0 1 0 0 12 | 0 3 0 0 -5 0 0 0 12
1 0 0 0 0 0 0 0 3 | 0 1 0 0 1 0 0 0 3
5 0 0 0 0 1 0 0 6 | 0 3 0 0 -1 0 0 0 6
1 0 0 0 0 -1 0 0 12 | 0 9 0 0 1 0 0 0 12
-7 0 0 0 0 0 0 0 6 | 0 2 0 0 -1 0 0 0 6
-17 0 0 0 0 1 0 0 12 | 0 -7 0 0 1 0 0 0 12
-7 0 0 0 0 0 0 0 6 | 0 -1 0 0 2 0 0 0 6
-11 0 0 0 0 -1 0 0 12 | 0 -3 0 0 1 0 0 0 12
-2 0 0 0 0 0 0 0 3 | 0 -1 0 0 -1 0 0 0 6
-4 0 0 0 0 1 0 0 6 | 0 0 0 0 -1 0 0 0 6
-1 0 0 0 0 0 0 0 2 | 0 2 0 0 1 0 0 0 6
1 0 0 0 0 3 0 0 12 | 0 1 0 0 1 0 0 0 12
-1 0 0 0 0 1 0 0 6 | 0 0 0 0 1 0 0 0 3
-1 0 0 0 0 0 0 0 6 | 0 -1 0 0 2 0 0 0 6
1 0 0 0 0 -1 0 0 12 | 0 -3 0 0 1 0 0 0 12
-5 0 0 0 0 -3 0 0 12 | 0 1 0 0 1 0 0 0 12
0 0 0 0 0 0 0 0 1 | 0 -1 0 0 1 0 0 0 6
1 0 0 0 0 -1 0 0 12 | 0 3 0 0 -5 0 0 0 12
-7 0 0 0 0 0 0 0 6 | 0 -3 0 0 2 0 0 0 6
-17 0 0 0 0 -1 0 0 12 | 0 -1 0 0 1 0 0 0 12
-17 0 0 0 0 1 0 0 12 | 0 1 0 0 1 0 0 0 12
-15 0 0 0 0 1 0 0 12 | 0 -7 0 0 3 0 0 0 12
-1 0 0 0 0 0 0 0 1 | 0 -1 0 0 1 0 0 0 2
-9 0 0 0 0 -1 0 0 12 | 0 -11 0 0 3 0 0 0 12
-15 0 0 0 0 1 0 0 12 | 0 -1 0 0 1 0 0 0 4
-1 0 0 0 0 0 0 0 1 | 0 -1 0 0 0 0 0 0 3
-5 0 0 0 0 -1 0 0 12 | 0 -5 0 0 5 0 0 0 12
-2 0 0 0 0 1 0 0 6 | 0 -4 0 0 1 0 0 0 6
-5 0 0 0 0 0 0 0 6 | 0 -2 0 0 1 0 0 0 6
-7 0 0 0 0 1 0 0 12 | 0 -3 0 0 -1 0 0 0 12
-7 0 0 0 0 3 0 0 12 | 0 -1 0 0 -1 0 0 0 12
5 0 0 0 0 1 0 0 12 | 0 -1 0 0 5 0 0 0 12
-7 0 0 0 0 -1 0 0 12 | 0 -3 0 0 5 0 0 0 12
-7 0 0 0 0 1 0 0 12 | 0 3 0 0 5 0 0 0 12
-2 0 0 0 0 -1 0 0 6 | 0 0 0 0 1 0 0 0 6
-1 0 0 0 0 0 0 0 3 | 0 1 0 0 1 0 0 0 6
-2 0 0 0 0 -1 0 0 6 | 0 -2 0 0 1 0 0 0 6
-13 0 0 0 0 1 0 0 12 | 0 3 0 0 -1 0 0 0 12
-4 0 0 0 0 0 0 0 3 | 0 1 0 0 1 0 0 0 6
-5 0 0 0 0 0 0 0 6 | 0 1 0 0 -2 0 0 0 6
-3 0 0 0 0 -1 0 0 12 | 0 1 0 0 1 0 0 0 12
-8 0 0 0 0 1 0 0 6 | 0 0 0 0 1 0 0 0 6
-4 0 0 0 0 0 0 0 3 | 0 -1 0 0 1 0 0 0 6
-13 0 0 0 0 -1 0 0 12 | 0 -3 0 0 -1 0 0 0 12
-5 0 0 0 0 0 0 0 6 | 0 -1 0 0 -2 0 0 0 6
-1 0 0 0 0 1 0 0 12 | 0 1 0 0 5 0 0 0 12
-1 0 0 0 0 -1 0 0 12 | 0 -1 0 0 5 0 0 0 12
1 0 0 0 0 -1 0 0 6 | 0 -1 0 0 1 0 0 0 6
5 0 0 0 0 -1 0 0 12 | 0 -1 0 0 -1 0 0 0 12
-2 0 0 0 0 0 0 0 3 | 0 0 0 0 0 0 0 0 1
-3 0 0 0 0 1 0 0 12 | 0 -5 0 0 1 0 0 0 12
-2 0 0 0 0 1 0 0 6 | 0 4 0 0 1 0 0 0 6
-2 0 0 0 0 -1 0 0 6 | 0 2 0 0 1 0 0 0 6
-9 0 0 0 0 1 0 0 12 | 0 1 0 0 1 0 0 0 12
-13 0 0 0 0 -1 0 0 12 | 0 5 0 0 -1 0 0 0 12
-13 0 0 0 0 1 0 0 12 | 0 7 0 0 -1 0 0 0 12
-19 0 0 0 0 1 0 0 12 | 0 1 0 0 -1 0 0 0 12
-13 0 0 0 0 1 0 0 12 | 0 -5 0 0 -1 0 0 0 12
-2 0 0 0 0 1 0 0 6 | 0 -2 0 0 1 0 0 0 6
-7 0 0 0 0 -1 0 0 12 | 0 -7 0 0 5 0 0 0 12
-2 0 0 0 0 -1 0 0 6 | 0 -4 0 0 1 0 0 0 6
-1 0 0 0 0 -1 0 0 12 | 0 -7 0 0 -1 0 0 0 12
-1 0 0 0 0 1 0 0 12 | 0 -5 0 0 -1 0 0 0 12
-9 0 0 0 0 -1 0 0 12 | 0 -1 0 0 1 0 0 0 12
3 0 0 0 0 -1 0 0 12 | 0 -1 0 0 1 0 0 0 12
-2 0 0 0 0 1 0 0 6 | 0 1 0 0 -2 0 0 0 6
5 0 0 0 0 1 0 0 12 | 0 -5 0 0 5 0 0 0 12
-5 0 0 0 0 0 0 0 6 | 0 -4 0 0 1 0 0 0 6
-7 0 0 0 0 -1 0 0 12 | 0 -9 0 0 -1 0 0 0 12
3 0 0 0 0 -1 0 0 12 | 0 -11 0 0 3 0 0 0 12
1 0 0 0 0 -1 0 0 4 | 0 -3 0 0 1 0 0 0 4
6 0 0 0 0 -1 0 0 6 | 0 -5 0 0 0 0 0 0 6
0 0 0 0 0 0 0 0 1 | 0 -2 0 0 0 0 0 0 3
-3 0 0 0 0 -1 0 0 12 | 0 -3 0 0 1 0 0 0 4
-2 0 0 0 0 0 0 0 3 | 0 -2 0 0 1 0 0 0 3
-5 0 0 0 0 -1 0 0 12 | 0 -9 0 0 1 0 0 0 12
-1 0 0 0 0 0 0 0 6 | 0 -4 0 0 -1 0 0 0 6
-1 0 0 0 0 1 0 0 6 | 0 -3 0 0 -1 0 0 0 6
-1 0 0 0 0 1 0 0 6 | 0 -1 0 0 1 0 0 0 3
2 0 0 0 0 -1 0 0 6 | 0 1 0 0 2 0 0 0 6
1 0 0 0 0 -3 0 0 12 | 0 -5 0 0 1 0 0 0 12
1 0 0 0 0 -3 0 0 12 | 0 3 0 0 1 0 0 0 12
-4 0 0 0 0 -1 0 0 6 | 0 -1 0 0 2 0 0 0 6
-4 0 0 0 0 1 0 0 6 | 0 -2 0 0 -1 0 0 0 6
-11 0 0 0 0 1 0 0 12 | 0 -5 0 0 1 0 0 0 12
-11 0 0 0 0 -1 0 0 12 | 0 -7 0 0 1 0 0 0 12
1 0 0 0 0 0 0 0 3 | 0 -1 0 0 1 0 0 0 3
2 0 0 0 0 -1 0 0 6 | 0 -3 0 0 2 0 0 0 6
-3 0 0 0 0 -1 0 0 12 | 0 -5 0 0 -1 0 0 0 12
-1 0 0 0 0 -1 0 0 6 | 0 0 0 0 1 0 0 0 3
1 0 0 0 0 -3 0 0 12 | 0 -1 0 0 1 0 0 0 12
-1 0 0 0 0 0 0 0 3 | 0 -1 0 0 0 0 0 0 3
1 0 0 0 0 0 0 0 2 | 0 -2 0 0 1 0 0 0 6
-7 0 0 0 0 0 0 0 6 | 0 1 0 0 2 0 0 0 6
-4 0 0 0 0 -1 0 0 6 | 0 0 0 0 -1 0 0 0 6
-1 0 0 0 0 0 0 0 2 | 0 -2 0 0 1 0 0 0 6
-17 0 0 0 0 1 0 0 12 | 0 -3 0 0 1 0 0 0 12
-7 0 0 0 0 0 0 0 6 | 0 -2 0 0 -1 0 0 0 6
-11 0 0 0 0 1 0 0 12 | 0 -9 0 0 1 0 0 0 12
1 0 0 0 0 1 0 0 12 | 0 -9 0 0 1 0 0 0 12
1 0 0 0 0 1 0 0 12 | 0 -3 0 0 -5 0 0 0 12
5 0 0 0 0 0 0 0 6 | 0 -4 0 0 -1 0 0 0 6
7 0 0 0 0 -1 0 0 12 | 0 -9 0 0 1 0 0 0 12
1 0 0 0 0 1 0 0 6 | 0 -3 0 0 1 0 0 0 6
1 0 0 0 0 0 0 0 6 | 0 -4 0 0 1 0 0 0 6
5 0 0 0 0 -1 0 0 12 | 0 -9 0 0 -1 0 0 0 12
4 0 0 0 0 1 0 0 6 | 0 -2 0 0 1 0 0 0 6
4 0 0 0 0 -1 0 0 6 | 0 -4 0 0 1 0 0 0 6
11 0 0 0 0 -1 0 0 12 | 0 -7 0 0 -1 0 0 0 12
11 0 0 0 0 1 0 0 12 | 0 -5 0 0 -1 0 0 0 12
5 0 0 0 0 -1 0 0 12 | 0 -3 0 0 5 0 0 0 12
-1 0 0 0 0 -3 0 0 12 | 0 3 0 0 -1 0 0 0 12
4 0 0 0 0 -1 0 0 6 | 0 -1 0 0 -2 0 0 0 6
-2 0 0 0 0 -1 0 0 6 | 0 1 0 0 -2 0 0 0 6
-1 0 0 0 0 -3 0 0 12 | 0 -5 0 0 -1 0 0 0 12
7 0 0 0 0 0 0 0 6 | 0 -2 0 0 1 0 0 0 6
4 0 0 0 0 -1 0 0 6 | 0 0 0 0 1 0 0 0 6
7 0 0 0 0 0 0 0 6 | 0 1 0 0 -2 0 0 0 6
1 0 0 0 0 0 0 0 2 | 0 -2 0 0 -1 0 0 0 6
9 0 0 0 0 -1 0 0 12 | 0 1 0 0 1 0 0 0 12
-1 0 0 0 0 0 0 0 2 | 0 -2 0 0 -1 0 0 0 6
1 0 0 0 0 0 0 0 3 | 0 -1 0 0 0 0 0 0 3
-5 0 0 0 0 -1 0 0 6 | 0 -3 0 0 1 0 0 0 6
-1 0 0 0 0 0 0 0 3 | 0 -1 0 0 -1 0 0 0 3
3 0 0 0 0 -1 0 0 12 | 0 -5 0 0 1 0 0 0 12
-1 0 0 0 0 1 0 0 12 | 0 -9 0 0 -1 0 0 0 12
-1 0 0 0 0 0 0 0 3 | 0 -5 0 0 1 0 0 0 6
2 0 0 0 0 0 0 0 3 | 0 -5 0 0 1 0 0 0 6
5 0 0 0 0 3 0 0 12 | 0 -1 0 0 -1 0 0 0 12
-1 0 0 0 0 1 0 0 12 | 0 -3 0 0 5 0 0 0 12
-3 0 0 0 0 2 0 0 6 | 0 1 0 0 0 0 0 0 6
-3 0 0 0 0 1 0 0 3 | 0 -1 0 0 0 0 0 0 3
-1 0 0 0 0 1 0 0 4 | 0 -5 0 0 3 0 0 0 12
0 0 0 0 0 1 0 0 6 | 0 -1 0 0 0 0 0 0 2
5 0 0 0 0 3 0 0 12 | 0 1 0 0 1 0 0 0 12
-5 0 0 0 0 3 0 0 12 | 0 1 0 0 -1 0 0 0 12
-3 0 0 0 0 1 0 0 4 | 0 -1 0 0 1 0 0 0 4
-1 0 0 0 0 1 0 0 4 | 0 -3 0 0 1 0 0 0 4
0 0 0 0 0 1 0 0 6 | 0 -2 0 0 3 0 0 0 6
-1 0 0 0 0 1 0 0 6 | 0 1 0 0 1 0 0 0 6
-7 0 0 0 0 3 0 0 12 | 0 -3 0 0 1 0 0 0 12
-3 0 0 0 0 1 0 0 4 | 0 1 0 0 -1 0 0 0 4
-5 0 0 0 0 1 0 0 4 | 0 -1 0 0 -1 0 0 0 4
-3 0 0 0 0 2 0 0 6 | 0 -1 0 0 0 0 0 0 6
1 0 0 0 0 1 0 0 6 | 0 1 0 0 -1 0 0 0 6
-4 0 0 0 0 1 0 0 6 | 0 1 0 0 -2 0 0 0 6
9 0 0 0 0 1 0 0 12 | 0 -1 0 0 1 0 0 0 4
7 0 0 0 0 1 0 0 12 | 0 3 0 0 -1 0 0 0 12
1 0 0 0 0 1 0 0 6 | 0 -1 0 0 -1 0 0 0 6
9 0 0 0 0 1 0 0 12 | 0 1 0 0 -1 0 0 0 4
-2 0 0 0 0 1 0 0 6 | 0 2 0 0 -1 0 0 0 6
1 0 0 0 0 3 0 0 12 | 0 -1 0 0 -1 0 0 0 12
-3 0 0 0 0 2 0 0 6 | 0 1 0 0 0 0 0 0 2
-3 0 0 0 0 1 0 0 4 | 0 5 0 0 3 0 0 0 12
-9 0 0 0 0 1 0 0 12 | 0 1 0 0 1 0 0 0 4
-1 0 0 0 0 1 0 0 4 | 0 5 0 0 -3 0 0 0 12
2 0 0 0 0 1 0 0 6 | 0 2 0 0 1 0 0 0 6
-1 0 0 0 0 1 0 0 12 | 0 9 0 0 1 0 0 0 12
-11 0 0 0 0 3 0 0 12 | 0 -1 0 0 -1 0 0 0 12
-1 0 0 0 0 3 0 0 12 | 0 -1 0 0 1 0 0 0 12
-3 0 0 0 0 1 0 0 3 | 0 0 0 0 0 0 0 0 1
-5 0 0 0 0 1 0 0 4 | 0 -1 0 0 3 0 0 0 12
-9 0 0 0 0 1 0 0 12 | 0 -1 0 0 -1 0 0 0 4
-3 0 0 0 0 1 0 0 4 | 0 -1 0 0 -3 0 0 0 12
-1 0 0 0 0 1 0 0 6 | 0 -1 0 0 1 0 0 0 6
-7 0 0 0 0 1 0 0 12 | 0 3 0 0 1 0 0 0 12
-3 0 0 0 0 2 0 0 6 | 0 -1 0 0 0 0 0 0 2
-3 0 0 0 0 1 0 0 4 | 0 -7 0 0 3 0 0 0 12
-9 0 0 0 0 1 0 0 12 | 0 -3 0 0 1 0 0 0 4
-1 0 0 0 0 0 0 0 2 | 0 -5 0 0 0 0 0 0 6
2 0 0 0 0 1 0 0 6 | 0 -4 0 0 1 0 0 0 6
-1 0 0 0 0 1 0 0 12 | 0 -3 0 0 1 0 0 0 12
-11 0 0 0 0 1 0 0 12 | 0 -3 0 0 -1 0 0 0 12
1 0 0 0 0 1 0 0 4 | 0 -7 0 0 3 0 0 0 12
3 0 0 0 0 1 0 0 12 | 0 -3 0 0 1 0 0 0 4
1 0 0 0 0 0 0 0 2 | 0 -5 0 0 0 0 0 0 6
11 0 0 0 0 1 0 0 12 | 0 -3 0 0 1 0 0 0 12
1 0 0 0 0 1 0 0 12 | 0 -3 0 0 -1 0 0 0 12
-2 0 0 0 0 1 0 0 6 | 0 -4 0 0 -1 0 0 0 6
-3 0 0 0 0 1 0 0 6 | 0 -1 0 0 3 0 0 0 6
-4 0 0 0 0 1 0 0 6 | 0 2 0 0 1 0 0 0 6
-1 0 0 0 0 0 0 0 2 | 0 -2 0 0 3 0 0 0 6
1 0 0 0 0 0 0 0 6 | 0 1 0 0 2 0 0 0 6
-2 0 0 0 0 0 0 0 3 | 0 1 0 0 1 0 0 0 6
-13 0 0 0 0 1 0 0 12 | 0 -3 0 0 1 0 0 0 12
0 0 0 0 0 -1 0 0 6 | 0 -1 0 0 0 0 0 0 2
5 0 0 0 0 0 0 0 6 | 0 -2 0 0 1 0 0 0 6
5 0 0 0 0 -1 0 0 12 | 0 1 0 0 1 0 0 0 12
-5 0 0 0 0 -1 0 0 12 | 0 1 0 0 -1 0 0 0 12
-5 0 0 0 0 0 0 0 6 | 0 -2 0 0 -1 0 0 0 6
-5 0 0 0 0 1 0 0 12 | 0 -9 0 0 -1 0 0 0 12
5 0 0 0 0 1 0 0 12 | 0 -9 0 0 1 0 0 0 12
13 0 0 0 0 1 0 0 12 | 0 -3 0 0 -1 0 0 0 12
2 0 0 0 0 0 0 0 3 | 0 1 0 0 -1 0 0 0 6
-1 0 0 0 0 0 0 0 6 | 0 1 0 0 -2 0 0 0 6
4 0 0 0 0 1 0 0 6 | 0 2 0 0 -1 0 0 0 6
-1 0 0 0 0 1 0 0 6 | 0 1 0 0 -1 0 0 0 3
-5 0 0 0 0 0 0 0 6 | 0 4 0 0 -1 0 0 0 6
-15 0 0 0 0 1 0 0 12 | 0 1 0 0 -1 0 0 0 4
1 0 0 0 0 0 0 0 2 | 0 -2 0 0 3 0 0 0 6
1 0 0 0 0 1 0 0 12 | 0 3 0 0 5 0 0 0 12
-2 0 0 0 0 1 0 0 6 | 0 -1 0 0 2 0 0 0 6
0 0 0 0 0 0 0 0 1 | 0 -1 0 0 1 0 0 0 2
1 0 0 0 0 0 0 0 1 | 0 -1 0 0 1 0 0 0 2
3 0 0 0 0 -1 0 0 6 | 0 -1 0 0 3 0 0 0 6
-1 0 0 0 0 0 0 0 3 | 0 0 0 0 1 0 0 0 3
1 0 0 0 0 1 0 0 12 | 0 -5 0 0 5 0 0 0 12
1 0 0 0 0 0 0 0 1 | 0 -1 0 0 3 0 0 0 6
15 0 0 0 0 -1 0 0 12 | 0 -1 0 0 1 0 0 0 4
3 0 0 0 0 0 0 0 2 | 0 -1 0 0 0 0 0 0 6
5 0 0 0 0 0 0 0 6 | 0 2 0 0 1 0 0 0 6
5 0 0 0 0 1 0 0 12 | 0 -1 0 0 1 0 0 0 12
5 0 0 0 0 1 0 0 6 | 0 -3 0 0 1 0 0 0 6
9 0 0 0 0 -1 0 0 12 | 0 1 0 0 1 0 0 0 4
-1 0 0 0 0 1 0 0 12 | 0 5 0 0 1 0 0 0 12
2 0 0 0 0 1 0 0 6 | 0 0 0 0 1 0 0 0 6
0 0 0 0 0 1 0 0 6 | 0 1 0 0 0 0 0 0 2
-13 0 0 0 0 1 0 0 12 | 0 5 0 0 1 0 0 0 12
-4 0 0 0 0 1 0 0 6 | 0 0 0 0 1 0 0 0 6
1 0 0 0 0 1 0 0 6 | 0 0 0 0 1 0 0 0 3
-3 0 0 0 0 1 0 0 4 | 0 1 0 0 3 0 0 0 12
-6 0 0 0 0 1 0 0 6 | 0 0 0 0 1 0 0 0 2
-1 0 0 0 0 0 0 0 1 | 0 -1 0 0 3 0 0 0 6
-9 0 0 0 0 -1 0 0 12 | 0 -1 0 0 1 0 0 0 4
1 0 0 0 0 1 0 0 12 | 0 -1 0 0 5 0 0 0 12
-1 0 0 0 0 0 0 0 3 | 0 1 0 0 1 0 0 0 3
-3 0 0 0 0 1 0 0 6 | 0 -1 0 0 1 0 0 0 2
-1 0 0 0 0 0 0 0 2 | 0 -4 0 0 3 0 0 0 6
7 0 0 0 0 1 0 0 12 | 0 -7 0 0 5 0 0 0 12
1 0 0 0 0 0 0 0 6 | 0 -1 0 0 2 0 0 0 6
-2 0 0 0 0 0 0 0 3 | 0 -1 0 0 1 0 0 0 6
-13 0 0 0 0 1 0 0 12 | 0 -7 0 0 1 0 0 0 12
3 0 0 0 0 1 0 0 6 | 0 -1 0 0 1 0 0 0 2
1 0 0 0 0 0 0 0 2 | 0 -4 0 0 3 0 0 0 6
9 0 0 0 0 -1 0 0 12 | 0 -3 0 0 1 0 0 0 4
1 0 0 0 0 0 0 0 1 | 0 -2 0 0 0 0 0 0 3
7 0 0 0 0 0 0 0 6 | 0 -1 0 0 2 0 0 0 6
1 0 0 0 0 0 0 0 3 | 0 -1 0 0 1 0 0 0 6
-1 0 0 0 0 1 0 0 12 | 0 -7 0 0 1 0 0 0 12
-1 0 0 0 0 1 0 0 6 | 0 3 0 0 1 0 0 0 6
-7 0 0 0 0 3 0 0 12 | 0 1 0 0 1 0 0 0 12
0 0 0 0 0 -1 0 0 6 | 0 -2 0 0 3 0 0 0 6
-5 0 0 0 0 0 0 0 6 | 0 -1 0 0 2 0 0 0 6
1 0 0 0 0 -1 0 0 4 | 0 -5 0 0 3 0 0 0 12
-1 0 0 0 0 -1 0 0 6 | 0 1 0 0 1 0 0 0 6
-7 0 0 0 0 -1 0 0 12 | 0 -3 0 0 1 0 0 0 12
-1 0 0 0 0 0 0 0 6 | 0 -4 0 0 1 0 0 0 6
9 0 0 0 0 -1 0 0 12 | 0 -1 0 0 -1 0 0 0 4
4 0 0 0 0 0 0 0 3 | 0 -1 0 0 1 0 0 0 6
11 0 0 0 0 -1 0 0 12 | 0 3 0 0 1 0 0 0 12
1 0 0 0 0 -1 0 0 12 | 0 3 0 0 -1 0 0 0 12
-1 0 0 0 0 0 0 0 3 | 0 -1 0 0 -1 0 0 0 6
1 0 0 0 0 1 0 0 12 | 0 -7 0 0 -1 0 0 0 12
11 0 0 0 0 1 0 0 12 | 0 5 0 0 1 0 0 0 12
1 0 0 0 0 1 0 0 12 | 0 5 0 0 -1 0 0 0 12
-2 0 0 0 0 1 0 0 6 | 0 0 0 0 -1 0 0 0 6
-7 0 0 0 0 -1 0 0 12 | 0 9 0 0 1 0 0 0 12
-17 0 0 0 0 1 0 0 12 | 0 -1 0 0 -1 0 0 0 12
-6 0 0 0 0 1 0 0 6 | 0 -1 0 0 0 0 0 0 2
6 0 0 0 0 -1 0 0 6 | 0 -2 0 0 3 0 0 0 6
3 0 0 0 0 -1 0 0 4 | 0 1 0 0 3 0 0 0 12
-2 0 0 0 0 -1 0 0 6 | 0 1 0 0 2 0 0 0 6
1 0 0 0 0 -1 0 0 12 | 0 -3 0 0 5 0 0 0 12
5 0 0 0 0 -1 0 0 4 | 0 1 0 0 1 0 0 0 4
3 0 0 0 0 -1 0 0 4 | 0 -1 0 0 1 0 0 0 4
3 0 0 0 0 -2 0 0 6 | 0 1 0 0 0 0 0 0 6
-1 0 0 0 0 -1 0 0 6 | 0 -1 0 0 1 0 0 0 6
4 0 0 0 0 -1 0 0 6 | 0 -1 0 0 2 0 0 0 6
6 0 0 0 0 -1 0 0 6 | 0 0 0 0 1 0 0 0 2
5 0 0 0 0 -1 0 0 4 | 0 -1 0 0 3 0 0 0 12
9 0 0 0 0 -1 0 0 6 | 0 0 0 0 0 0 0 0 1
3 0 0 0 0 0 0 0 2 | 0 1 0 0 0 0 0 0 6
5 0 0 0 0 -1 0 0 6 | 0 3 0 0 1 0 0 0 6
3 0 0 0 0 -1 0 0 4 | 0 5 0 0 3 0 0 0 12
6 0 0 0 0 -1 0 0 6 | 0 1 0 0 0 0 0 0 2
1 0 0 0 0 0 0 0 1 | 0 2 0 0 0 0 0 0 3
-1 0 0 0 0 -1 0 0 12 | 0 7 0 0 1 0 0 0 12
1 0 0 0 0 0 0 0 3 | 0 1 0 0 1 0 0 0 6
7 0 0 0 0 0 0 0 6 | 0 1 0 0 2 0 0 0 6
0 0 0 0 0 -1 0 0 6 | 0 1 0 0 0 0 0 0 2
1 0 0 0 0 -1 0 0 12 | 0 1 0 0 5 0 0 0 12
-7 0 0 0 0 0 0 0 6 | 0 -2 0 0 1 0 0 0 6
-1 0 0 0 0 0 0 0 3 | 0 -1 0 0 1 0 0 0 3
-3 0 0 0 0 -1 0 0 6 | 0 -1 0 0 1 0 0 0 2
-1 0 0 0 0 -1 0 0 4 | 0 -7 0 0 3 0 0 0 12
1 0 0 0 0 -1 0 0 6 | 0 0 0 0 1 0 0 0 3
-4 0 0 0 0 -1 0 0 6 | 0 0 0 0 1 0 0 0 6
-13 0 0 0 0 -1 0 0 12 | 0 -5 0 0 1 0 0 0 12
3 0 0 0 0 -1 0 0 6 | 0 -1 0 0 1 0 0 0 2
3 0 0 0 0 -1 0 0 4 | 0 -7 0 0 3 0 0 0 12
7 0 0 0 0 -1 0 0 6 | 0 0 0 0 1 0 0 0 3
2 0 0 0 0 -1 0 0 6 | 0 0 0 0 1 0 0 0 6
-1 0 0 0 0 -1 0 0 12 | 0 -5 0 0 1 0 0 0 12
1 0 0 0 0 0 0 0 3 | 0 -5 0 0 1 0 0 0 6
-1 0 0 0 0 0 0 0 6 | 0 4 0 0 1 0 0 0 6
4 0 0 0 0 1 0 0 6 | 0 -1 0 0 2 0 0 0 6
-5 0 0 0 0 0 0 0 6 | 0 1 0 0 2 0 0 0 6
-5 0 0 0 0 1 0 0 12 | 0 -3 0 0 5 0 0 0 12
3 0 0 0 0 -2 0 0 6 | 0 -1 0 0 0 0 0 0 6
-1 0 0 0 0 -1 0 0 6 | 0 -3 0 0 1 0 0 0 6
3 0 0 0 0 -1 0 0 4 | 0 -1 0 0 -3 0 0 0 12
1 0 0 0 0 -3 0 0 12 | 0 5 0 0 -1 0 0 0 12
-2 0 0 0 0 -1 0 0 6 | 0 0 0 0 -1 0 0 0 6
1 0 0 0 0 -1 0 0 12 | 0 -5 0 0 -1 0 0 0 12
11 0 0 0 0 -1 0 0 12 | 0 -5 0 0 1 0 0 0 12
4 0 0 0 0 0 0 0 3 | 0 1 0 0 1 0 0 0 6
11 0 0 0 0 -1 0 0 12 | 0 7 0 0 1 0 0 0 12
1 0 0 0 0 -1 0 0 12 | 0 7 0 0 -1 0 0 0 12
-1 0 0 0 0 0 0 0 3 | 0 1 0 0 -1 0 0 0 6
-17 0 0 0 0 -1 0 0 12 | 0 1 0 0 -1 0 0 0 12
-7 0 0 0 0 1 0 0 12 | 0 -9 0 0 1 0 0 0 12
3 0 0 0 0 -1 0 0 3 | 0 1 0 0 0 0 0 0 3
1 0 0 0 0 -1 0 0 4 | 0 5 0 0 -3 0 0 0 12
-5 0 0 0 0 -3 0 0 12 | 0 -1 0 0 -1 0 0 0 12
5 0 0 0 0 -3 0 0 12 | 0 -1 0 0 1 0 0 0 12
3 0 0 0 0 -1 0 0 4 | 0 1 0 0 -1 0 0 0 4
1 0 0 0 0 -1 0 0 4 | 0 3 0 0 -1 0 0 0 4
0 0 0 0 0 -1 0 0 6 | 0 2 0 0 -3 0 0 0 6
7 0 0 0 0 -3 0 0 12 | 0 3 0 0 -1 0 0 0 12
1 0 0 0 0 -1 0 0 6 | 0 -1 0 0 -1 0 0 0 6
9 0 0 0 0 -1 0 0 6 | 0 2 0 0 0 0 0 0 3
3 0 0 0 0 -1 0 0 3 | 0 0 0 0 0 0 0 0 1
5 0 0 0 0 -1 0 0 4 | 0 1 0 0 -3 0 0 0 12
1 0 0 0 0 -1 0 0 6 | 0 1 0 0 -1 0 0 0 6
7 0 0 0 0 -1 0 0 12 | 0 -3 0 0 -1 0 0 0 12
17 0 0 0 0 -1 0 0 12 | 0 -3 0 0 1 0 0 0 12
1 0 0 0 0 0 0 0 2 | 0 5 0 0 0 0 0 0 6
3 0 0 0 0 -2 0 0 6 | 0 1 0 0 0 0 0 0 2
3 0 0 0 0 -1 0 0 4 | 0 7 0 0 -3 0 0 0 12
9 0 0 0 0 -1 0 0 12 | 0 3 0 0 -1 0 0 0 4
-2 0 0 0 0 -1 0 0 6 | 0 4 0 0 -1 0 0 0 6
-1 0 0 0 0 0 0 0 2 | 0 5 0 0 0 0 0 0 6
-1 0 0 0 0 -1 0 0 4 | 0 7 0 0 -3 0 0 0 12
-3 0 0 0 0 -1 0 0 12 | 0 3 0 0 -1 0 0 0 4
2 0 0 0 0 -1 0 0 6 | 0 4 0 0 1 0 0 0 6
-11 0 0 0 0 -1 0 0 12 | 0 3 0 0 -1 0 0 0 12
-1 0 0 0 0 -1 0 0 12 | 0 3 0 0 1 0 0 0 12
-9 0 0 0 0 -1 0 0 12 | 0 1 0 0 -1 0 0 0 4
2 0 0 0 0 -1 0 0 6 | 0 -2 0 0 1 0 0 0 6
-1 0 0 0 0 -3 0 0 12 | 0 1 0 0 1 0 0 0 12
-1 0 0 0 0 -1 0 0 12 | 0 -9 0 0 1 0 0 0 12
3 0 0 0 0 -2 0 0 6 | 0 -1 0 0 0 0 0 0 2
3 0 0 0 0 -1 0 0 4 | 0 -5 0 0 -3 0 0 0 12
1 0 0 0 0 -3 0 0 12 | 0 1 0 0 -1 0 0 0 12
-2 0 0 0 0 -1 0 0 6 | 0 -2 0 0 -1 0 0 0 6
1 0 0 0 0 -1 0 0 12 | 0 -9 0 0 -1 0 0 0 12
5 0 0 0 0 -1 0 0 12 | 0 9 0 0 1 0 0 0 12
-5 0 0 0 0 -1 0 0 12 | 0 9 0 0 -1 0 0 0 12
-5 0 0 0 0 0 0 0 6 | 0 2 0 0 -1 0 0 0 6
-5 0 0 0 0 1 0 0 12 | 0 -1 0 0 -1 0 0 0 12
7 0 0 0 0 -1 0 0 12 | 0 3 0 0 5 0 0 0 12
-13 0 0 0 0 -1 0 0 12 | 0 3 0 0 1 0 0 0 12
-4 0 0 0 0 -1 0 0 6 | 0 -2 0 0 1 0 0 0 6
1 0 0 0 0 -1 0 0 6 | 0 -1 0 0 1 0 0 0 3
3 0 0 0 0 -1 0 0 6 | 0 1 0 0 -3 0 0 0 6
4 0 0 0 0 -1 0 0 6 | 0 -2 0 0 -1 0 0 0 6
1 0 0 0 0 0 0 0 2 | 0 2 0 0 -3 0 0 0 6
13 0 0 0 0 -1 0 0 12 | 0 3 0 0 -1 0 0 0 12
-7 0 0 0 0 -1 0 0 12 | 0 3 0 0 -5 0 0 0 12
-1 0 0 0 0 0 0 0 6 | 0 -1 0 0 -2 0 0 0 6
2 0 0 0 0 0 0 0 3 | 0 -1 0 0 -1 0 0 0 6
5 0 0 0 0 0 0 0 6 | 0 -4 0 0 1 0 0 0 6
0 0 0 0 0 -1 0 0 6 | 0 4 0 0 -3 0 0 0 6
-1 0 0 0 0 0 0 0 2 | 0 2 0 0 -3 0 0 0 6
2 0 0 0 0 -1 0 0 6 | 0 1 0 0 -2 0 0 0 6
-1 0 0 0 0 -1 0 0 12 | 0 -3 0 0 -5 0 0 0 12
0 0 0 0 0 0 0 0 1 | 0 1 0 0 -1 0 0 0 2
-1 0 0 0 0 0 0 0 1 | 0 1 0 0 -1 0 0 0 2
-3 0 0 0 0 1 0 0 6 | 0 1 0 0 -3 0 0 0 6
1 0 0 0 0 0 0 0 3 | 0 0 0 0 -1 0 0 0 3
6 0 0 0 0 -1 0 0 6 | 0 0 0 0 -1 0 0 0 2
1 0 0 0 0 0 0 0 1 | 0 1 0 0 -3 0 0 0 6
-1 0 0 0 0 -1 0 0 12 | 0 1 0 0 -5 0 0 0 12
1 0 0 0 0 0 0 0 3 | 0 -1 0 0 -1 0 0 0 3
7 0 0 0 0 0 0 0 6 | 0 -2 0 0 -1 0 0 0 6
3 0 0 0 0 -1 0 0 6 | 0 1 0 0 -1 0 0 0 2
1 0 0 0 0 0 0 0 2 | 0 4 0 0 -3 0 0 0 6
13 0 0 0 0 -1 0 0 12 | 0 7 0 0 -1 0 0 0 12
-9 0 0 0 0 1 0 0 12 | 0 3 0 0 -1 0 0 0 4
-1 0 0 0 0 0 0 0 1 | 0 2 0 0 0 0 0 0 3
-3 0 0 0 0 -1 0 0 6 | 0 1 0 0 -1 0 0 0 2
-1 0 0 0 0 0 0 0 2 | 0 4 0 0 -3 0 0 0 6
-7 0 0 0 0 0 0 0 6 | 0 1 0 0 -2 0 0 0 6
-3 0 0 0 0 0 0 0 2 | 0 1 0 0 0 0 0 0 6
-1 0 0 0 0 0 0 0 1 | 0 1 0 0 -3 0 0 0 6
-5 0 0 0 0 -1 0 0 6 | 0 3 0 0 -1 0 0 0 6
13 0 0 0 0 -1 0 0 12 | 0 -5 0 0 -1 0 0 0 12
4 0 0 0 0 -1 0 0 6 | 0 0 0 0 -1 0 0 0 6
-1 0 0 0 0 -1 0 0 6 | 0 0 0 0 -1 0 0 0 3
0 0 0 0 0 1 0 0 6 | 0 2 0 0 -3 0 0 0 6
1 0 0 0 0 0 0 0 6 | 0 4 0 0 -1 0 0 0 6
-4 0 0 0 0 1 0 0 6 | 0 -1 0 0 -2 0 0 0 6
-11 0 0 0 0 -1 0 0 12 | 0 7 0 0 -1 0 0 0 12
-4 0 0 0 0 0 0 0 3 | 0 1 0 0 -1 0 0 0 6
-11 0 0 0 0 -1 0 0 12 | 0 -5 0 0 -1 0 0 0 12
7 0 0 0 0 -3 0 0 12 | 0 -1 0 0 -1 0 0 0 12
1 0 0 0 0 -1 0 0 6 | 0 -3 0 0 -1 0 0 0 6
5 0 0 0 0 0 0 0 6 | 0 1 0 0 -2 0 0 0 6
17 0 0 0 0 -1 0 0 12 | 0 1 0 0 1 0 0 0 12
7 0 0 0 0 1 0 0 12 | 0 -9 0 0 -1 0 0 0 12
-1 0 0 0 0 1 0 0 12 | 0 3 0 0 -5 0 0 0 12
7 0 0 0 0 0 0 0 6 | 0 2 0 0 -1 0 0 0 6
1 0 0 0 0 0 0 0 3 | 0 1 0 0 -1 0 0 0 3
-1 0 0 0 0 1 0 0 12 | 0 -1 0 0 -5 0 0 0 12
1 0 0 0 0 1 0 0 4 | 0 7 0 0 -3 0 0 0 12
3 0 0 0 0 1 0 0 6 | 0 1 0 0 -1 0 0 0 2
13 0 0 0 0 1 0 0 12 | 0 5 0 0 -1 0 0 0 12
-1 0 0 0 0 1 0 0 6 | 0 0 0 0 -1 0 0 0 3
4 0 0 0 0 1 0 0 6 | 0 0 0 0 -1 0 0 0 6
-3 0 0 0 0 1 0 0 4 | 0 7 0 0 -3 0 0 0 12
-3 0 0 0 0 1 0 0 6 | 0 1 0 0 -1 0 0 0 2
-1 0 0 0 0 0 0 0 3 | 0 5 0 0 -1 0 0 0 6
-7 0 0 0 0 1 0 0 6 | 0 0 0 0 -1 0 0 0 3
-5 0 0 0 0 1 0 0 4 | 0 1 0 0 -3 0 0 0 12
-9 0 0 0 0 1 0 0 6 | 0 0 0 0 0 0 0 0 1
-3 0 0 0 0 0 0 0 2 | 0 -1 0 0 0 0 0 0 6
-6 0 0 0 0 1 0 0 6 | 0 0 0 0 -1 0 0 0 2
-3 0 0 0 0 1 0 0 4 | 0 -5 0 0 -3 0 0 0 12
-1 0 0 0 0 0 0 0 1 | 0 -2 0 0 0 0 0 0 3
-7 0 0 0 0 0 0 0 6 | 0 -1 0 0 -2 0 0 0 6
1 0 0 0 0 1 0 0 6 | 0 3 0 0 -1 0 0 0 6
-4 0 0 0 0 1 0 0 6 | 0 3 0 0 -2 0 0 0 6
-11 0 0 0 0 1 0 0 12 | 0 5 0 0 -1 0 0 0 12
-1 0 0 0 0 3 0 0 12 | 0 -5 0 0 1 0 0 0 12
-4 0 0 0 0 0 0 0 3 | 0 -1 0 0 -1 0 0 0 6
-11 0 0 0 0 1 0 0 12 | 0 -7 0 0 -1 0 0 0 12
-4 0 0 0 0 -1 0 0 6 | 0 1 0 0 -2 0 0 0 6
1 0 0 0 0 0 0 0 6 | 0 -4 0 0 -1 0 0 0 6
5 0 0 0 0 0 0 0 6 | 0 -1 0 0 -2 0 0 0 6
5 0 0 0 0 -1 0 0 12 | 0 3 0 0 -5 0 0 0 12
17 0 0 0 0 1 0 0 12 | 0 -1 0 0 1 0 0 0 12
21 0 0 0 0 -1 0 0 12 | 0 -1 0 0 3 0 0 0 12
7 0 0 0 0 0 0 0 6 | 0 0 0 0 -1 0 0 0 6
9 0 0 0 0 -1 0 0 6 | 0 1 0 0 0 0 0 0 3
15 0 0 0 0 -1 0 0 12 | 0 -7 0 0 3 0 0 0 12
7 0 0 0 0 1 0 0 12 | 0 7 0 0 -1 0 0 0 12
2 0 0 0 0 1 0 0 6 | 0 -2 0 0 1 0 0 0 6
2 0 0 0 0 -1 0 0 6 | 0 2 0 0 1 0 0 0 6
3 0 0 0 0 -1 0 0 3 | 0 -1 0 0 0 0 0 0 3
7 0 0 0 0 -1 0 0 12 | 0 -7 0 0 -1 0 0 0 12
5 0 0 0 0 -1 0 0 12 | 0 -1 0 0 -5 0 0 0 12
6 0 0 0 0 -1 0 0 6 | 0 5 0 0 0 0 0 0 6
-2 0 0 0 0 0 0 0 3 | 0 0 0 0 -1 0 0 0 3
3 0 0 0 0 -1 0 0 12 | 0 11 0 0 -3 0 0 0 12
1 0 0 0 0 3 0 0 12 | 0 3 0 0 -1 0 0 0 12
-7 0 0 0 0 1 0 0 12 | 0 7 0 0 1 0 0 0 12
2 0 0 0 0 0 0 0 3 | 0 0 0 0 1 0 0 0 3
-2 0 0 0 0 -1 0 0 6 | 0 2 0 0 -1 0 0 0 6
6 0 0 0 0 -1 0 0 6 | 0 2 0 0 -3 0 0 0 6
2 0 0 0 0 1 0 0 6 | 0 1 0 0 -2 0 0 0 6
-9 0 0 0 0 -1 0 0 12 | 0 11 0 0 -3 0 0 0 12
-2 0 0 0 0 1 0 0 6 | 0 -2 0 0 -1 0 0 0 6
-15 0 0 0 0 1 0 0 12 | 0 7 0 0 -3 0 0 0 12
-1 0 0 0 0 3 0 0 12 | 0 3 0 0 1 0 0 0 12
-2 0 0 0 0 1 0 0 6 | 0 1 0 0 2 0 0 0 6
-7 0 0 0 0 0 0 0 6 | 0 0 0 0 1 0 0 0 6
0 0 0 0 0 1 0 0 6 | 0 4 0 0 -3 0 0 0 6
-21 0 0 0 0 1 0 0 12 | 0 1 0 0 -3 0 0 0 12
-9 0 0 0 0 1 0 0 6 | 0 -1 0 0 0 0 0 0 3
-3 0 0 0 0 1 0 0 3 | 0 1 0 0 0 0 0 0 3
-5 0 0 0 0 1 0 0 12 | 0 1 0 0 5 0 0 0 12
-5 0 0 0 0 1 0 0 6 | 0 -1 0 0 1 0 0 0 3
-5 0 0 0 0 -1 0 0 12 | 0 -1 0 0 5 0 0 0 12
-7 0 0 0 0 -1 0 0 12 | 0 -7 0 0 1 0 0 0 12
-6 0 0 0 0 1 0 0 6 | 0 -5 0 0 0 0 0 0 6
-3 0 0 0 0 1 0 0 12 | 0 -11 0 0 3 0 0 0 12
-6 0 0 0 0 1 0 0 6 | 0 -2 0 0 3 0 0 0 6
1 0 0 0 0 -1 0 0 12 | 0 -7 0 0 5 0 0 0 12
-2 0 0 0 0 -1 0 0 6 | 0 -1 0 0 2 0 0 0 6
-1 0 0 0 0 -3 0 0 12 | 0 -3 0 0 1 0 0 0 12
9 0 0 0 0 1 0 0 12 | 0 -11 0 0 3 0 0 0 12
0 0 0 0 0 -1 0 0 6 | 0 -4 0 0 3 0 0 0 6
11 0 0 0 0 -3 0 0 12 | 0 -3 0 0 1 0 0 0 12
1 0 0 0 0 -3 0 0 12 | 0 -3 0 0 -1 0 0 0 12
2 0 0 0 0 -1 0 0 6 | 0 -1 0 0 -2 0 0 0 6
0 0 3 0 0 7 0 0 48 | 0 -7 0 0 0 0 3 0 48
21 0 3 0 0 7 0 -3 96 | 0 -7 0 3 21 0 3 0 96
21 0 -3 0 0 -7 0 -3 96 | 0 7 0 3 21 0 -3 0 96
0 0 -3 0 0 -7 0 0 48 | 0 7 0 0 0 0 -3 0 48
-21 0 -3 0 0 -7 0 3 96 | 0 7 0 -3 -21 0 -3 0 96
-21 0 3 0 0 7 0 3 96 | 0 -7 0 -3 -21 0 3 0 96
7 0 0 0 0 0 0 0 8 | 0 0 0 1 0 0 0 0 8
7 0 -3 0 0 0 0 0 16 | 0 7 0 1 0 0 0 0 16
-7 0 -3 0 0 0 0 0 16 | 0 7 0 -1 0 0 0 0 16
-7 0 0 0 0 0 0 0 8 | 0 0 0 -1 0 0 0 0 8
-7 0 3 0 0 0 0 0 16 | 0 -7 0 -1 0 0 0 0 16
7 0 3 0 0 0 0 0 16 | 0 -7 0 1 0 0 0 0 16
0 0 -3 0 0 7 0 0 48 | 0 7 0 0 0 0 3 0 48
-21 0 -3 0 0 7 0 -3 96 | 0 7 0 -3 21 0 3 0 96
-21 0 3 0 0 -7 0 -3 96 | 0 -7 0 -3 21 0 -3 0 96
0 0 3 0 0 -7 0 0 48 | 0 -7 0 0 0 0 -3 0 48
21 0 3 0 0 -7 0 3 96 | 0 -7 0 3 -21 0 -3 0 96
21 0 -3 0 0 7 0 3 96 | 0 7 0 3 -21 0 3 0 96
0 0 3 0 0 7 0 0 24 | 0 -7 0 0 0 0 3 0 24
7 0 3 0 0 7 0 -1 32 | 0 -7 0 1 7 0 3 0 32
-7 0 3 0 0 7 0 1 32 | 0 -7 0 -1 -7 0 3 0 32
42 0 3 0 0 7 0 0 48 | 0 -7 0 6 0 0 3 0 48
21 0 -6 0 0 7 0 0 48 | 0 14 0 3 0 0 3 0 48
-21 0 -6 0 0 7 0 0 48 | 0 14 0 -3 0 0 3 0 48
-42 0 3 0 0 7 0 0 48 | 0 -7 0 -6 0 0 3 0 48
-21 0 12 0 0 7 0 0 48 | 0 -28 0 -3 0 0 3 0 48
21 0 12 0 0 7 0 0 48 | 0 -28 0 3 0 0 3 0 48
0 0 0 0 0 7 0 0 24 | 0 0 0 0 0 0 1 0 8
-7 0 1 0 0 7 0 -1 32 | 0 -7 0 -3 21 0 9 0 96
-21 0 9 0 0 7 0 -3 96 | 0 -7 0 -1 7 0 1 0 32
0 0 1 0 0 0 0 0 8 | 0 -7 0 0 0 0 0 0 24
21 0 9 0 0 7 0 3 96 | 0 -7 0 1 -7 0 1 0 32
7 0 1 0 0 7 0 1 32 | 0 -7 0 3 -21 0 9 0 96
21 0 3 0 0 7 0 -3 48 | 0 -7 0 3 21 0 3 0 48
7 0 0 0 0 0 0 -1 16 | 0 0 0 1 7 0 0 0 16
105 0 3 0 0 7 0 -3 96 | 0 -7 0 15 21 0 3 0 96
63 0 -15 0 0 7 0 -3 96 | 0 35 0 9 21 0 3 0 96
-21 0 -15 0 0 7 0 -3 96 | 0 35 0 -3 21 0 3 0 96
-63 0 3 0 0 7 0 -3 96 | 0 -7 0 -9 21 0 3 0 96
-21 0 21 0 0 7 0 -3 96 | 0 -49 0 -3 21 0 3 0 96
63 0 21 0 0 7 0 -3 96 | 0 -49 0 9 21 0 3 0 96
7 0 -1 0 0 7 0 -1 32 | 0 7 0 3 21 0 9 0 96
0 0 0 0 0 7 0 -3 48 | 0 0 0 0 7 0 1 0 16
0 0 1 0 0 0 0 -1 16 | 0 -7 0 0 21 0 0 0 48
21 0 9 0 0 -7 0 -3 96 | 0 -7 0 1 7 0 -1 0 32
7 0 1 0 0 0 0 0 16 | 0 -7 0 3 0 0 0 0 48
21 0 0 0 0 7 0 0 48 | 0 0 0 1 0 0 1 0 16
21 0 -3 0 0 -7 0 -3 48 | 0 7 0 3 21 0 -3 0 48
7 0 -3 0 0 -7 0 -1 32 | 0 7 0 1 7 0 -3 0 32
105 0 -3 0 0 -7 0 -3 96 | 0 7 0 15 21 0 -3 0 96
63 0 -21 0 0 -7 0 -3 96 | 0 49 0 9 21 0 -3 0 96
-21 0 -21 0 0 -7 0 -3 96 | 0 49 0 -3 21 0 -3 0 96
-63 0 -3 0 0 -7 0 -3 96 | 0 7 0 -9 21 0 -3 0 96
-21 0 15 0 0 -7 0 -3 96 | 0 -35 0 -3 21 0 -3 0 96
63 0 15 0 0 -7 0 -3 96 | 0 -35 0 9 21 0 -3 0 96
21 0 -9 0 0 7 0 -3 96 | 0 7 0 1 7 0 1 0 32
0 0 -1 0 0 0 0 -1 16 | 0 7 0 0 21 0 0 0 48
0 0 0 0 0 -7 0 -3 48 | 0 0 0 0 7 0 -1 0 16
7 0 1 0 0 -7 0 -1 32 | 0 -7 0 3 21 0 -9 0 96
21 0 0 0 0 -7 0 0 48 | 0 0 0 1 0 0 -1 0 16
7 0 -1 0 0 0 0 0 16 | 0 7 0 3 0 0 0 0 48
0 0 -3 0 0 -7 0 0 24 | 0 7 0 0 0 0 -3 0 24
-7 0 -3 0 0 -7 0 1 32 | 0 7 0 -1 -7 0 -3 0 32
42 0 -3 0 0 -7 0 0 48 | 0 7 0 6 0 0 -3 0 48
21 0 -12 0 0 -7 0 0 48 | 0 28 0 3 0 0 -3 0 48
-21 0 -12 0 0 -7 0 0 48 | 0 28 0 -3 0 0 -3 0 48
-42 0 -3 0 0 -7 0 0 48 | 0 7 0 -6 0 0 -3 0 48
-21 0 6 0 0 -7 0 0 48 | 0 -14 0 -3 0 0 -3 0 48
21 0 6 0 0 -7 0 0 48 | 0 -14 0 3 0 0 -3 0 48
0 0 -1 0 0 0 0 0 8 | 0 7 0 0 0 0 0 0 24
-21 0 -9 0 0 -7 0 -3 96 | 0 7 0 -1 7 0 -1 0 32
-7 0 -1 0 0 -7 0 -1 32 | 0 7 0 -3 21 0 -9 0 96
0 0 0 0 0 -7 0 0 24 | 0 0 0 0 0 0 -1 0 8
7 0 -1 0 0 -7 0 1 32 | 0 7 0 3 -21 0 -9 0 96
21 0 -9 0 0 -7 0 3 96 | 0 7 0 1 -7 0 -1 0 32
-21 0 -3 0 0 -7 0 3 48 | 0 7 0 -3 -21 0 -3 0 48
-7 0 0 0 0 0 0 1 16 | 0 0 0 -1 -7 0 0 0 16
63 0 -3 0 0 -7 0 3 96 | 0 7 0 9 -21 0 -3 0 96
21 0 -21 0 0 -7 0 3 96 | 0 49 0 3 -21 0 -3 0 96
-63 0 -21 0 0 -7 0 3 96 | 0 49 0 -9 -21 0 -3 0 96
-105 0 -3 0 0 -7 0 3 96 | 0 7 0 -15 -21 0 -3 0 96
-63 0 15 0 0 -7 0 3 96 | 0 -35 0 -9 -21 0 -3 0 96
21 0 15 0 0 -7 0 3 96 | 0 -35 0 3 -21 0 -3 0 96
-21 0 -9 0 0 7 0 3 96 | 0 7 0 -1 -7 0 1 0 32
-7 0 -1 0 0 0 0 0 16 | 0 7 0 -3 0 0 0 0 48
-21 0 0 0 0 -7 0 0 48 | 0 0 0 -1 0 0 -1 0 16
-7 0 1 0 0 -7 0 1 32 | 0 -7 0 -3 -21 0 -9 0 96
0 0 0 0 0 -7 0 3 48 | 0 0 0 0 -7 0 -1 0 16
0 0 -1 0 0 0 0 1 16 | 0 7 0 0 -21 0 0 0 48
-21 0 3 0 0 7 0 3 48 | 0 -7 0 -3 -21 0 3 0 48
63 0 3 0 0 7 0 3 96 | 0 -7 0 9 -21 0 3 0 96
21 0 -15 0 0 7 0 3 96 | 0 35 0 3 -21 0 3 0 96
-63 0 -15 0 0 7 0 3 96 | 0 35 0 -9 -21 0 3 0 96
-105 0 3 0 0 7 0 3 96 | 0 -7 0 -15 -21 0 3 0 96
-63 0 21 0 0 7 0 3 96 | 0 -49 0 -9 -21 0 3 0 96
21 0 21 0 0 7 0 3 96 | 0 -49 0 3 -21 0 3 0 96
-7 0 -1 0 0 7 0 1 32 | 0 7 0 -3 -21 0 9 0 96
-21 0 0 0 0 7 0 0 48 | 0 0 0 -1 0 0 1 0 16
-7 0 1 0 0 0 0 0 16 | 0 -7 0 -3 0 0 0 0 48
-21 0 9 0 0 -7 0 3 96 | 0 -7 0 -1 -7 0 -1 0 32
0 0 1 0 0 0 0 1 16 | 0 -7 0 0 -21 0 0 0 48
0 0 0 0 0 7 0 3 48 | 0 0 0 0 -7 0 1 0 16
7 0 0 0 0 0 0 0 4 | 0 0 0 1 0 0 0 0 4
21 0 -3 0 0 0 0 0 16 | 0 7 0 3 0 0 0 0 16
21 0 3 0 0 0 0 0 16 | 0 -7 0 3 0 0 0 0 16
42 0 -3 0 0 7 0 0 48 | 0 7 0 6 0 0 3 0 48
63 0 -3 0 0 7 0 -3 96 | 0 7 0 9 21 0 3 0 96
63 0 3 0 0 -7 0 -3 96 | 0 -7 0 9 21 0 -3 0 96
42 0 3 0 0 -7 0 0 48 | 0 -7 0 6 0 0 -3 0 48
105 0 3 0 0 -7 0 3 96 | 0 -7 0 15 -21 0 -3 0 96
105 0 -3 0 0 7 0 3 96 | 0 7 0 15 -21 0 3 0 96
7 0 -3 0 0 0 0 0 8 | 0 7 0 1 0 0 0 0 8
0 0 -3 0 0 0 0 0 8 | 0 7 0 0 0 0 0 0 8
21 0 -12 0 0 7 0 0 48 | 0 28 0 3 0 0 3 0 48
21 0 -21 0 0 7 0 -3 96 | 0 49 0 3 21 0 3 0 96
21 0 -15 0 0 -7 0 -3 96 | 0 35 0 3 21 0 -3 0 96
21 0 -6 0 0 -7 0 0 48 | 0 14 0 3 0 0 -3 0 48
63 0 -15 0 0 -7 0 3 96 | 0 35 0 9 -21 0 -3 0 96
63 0 -21 0 0 7 0 3 96 | 0 49 0 9 -21 0 3 0 96
-7 0 -3 0 0 0 0 0 8 | 0 7 0 -1 0 0 0 0 8
-21 0 -3 0 0 0 0 0 16 | 0 7 0 -3 0 0 0 0 16
-21 0 -12 0 0 7 0 0 48 | 0 28 0 -3 0 0 3 0 48
-63 0 -21 0 0 7 0 -3 96 | 0 49 0 -9 21 0 3 0 96
-63 0 -15 0 0 -7 0 -3 96 | 0 35 0 -9 21 0 -3 0 96
-21 0 -6 0 0 -7 0 0 48 | 0 14 0 -3 0 0 -3 0 48
-21 0 -15 0 0 -7 0 3 96 | 0 35 0 -3 -21 0 -3 0 96
-21 0 -21 0 0 7 0 3 96 | 0 49 0 -3 -21 0 3 0 96
-7 0 0 0 0 0 0 0 4 | 0 0 0 -1 0 0 0 0 4
-21 0 3 0 0 0 0 0 16 | 0 -7 0 -3 0 0 0 0 16
-42 0 -3 0 0 7 0 0 48 | 0 7 0 -6 0 0 3 0 48
-105 0 -3 0 0 7 0 -3 96 | 0 7 0 -15 21 0 3 0 96
-105 0 3 0 0 -7 0 -3 96 | 0 -7 0 -15 21 0 -3 0 96
-42 0 3 0 0 -7 0 0 48 | 0 -7 0 -6 0 0 -3 0 48
-63 0 3 0 0 -7 0 3 96 | 0 -7 0 -9 -21 0 -3 0 96
-63 0 -3 0 0 7 0 3 96 | 0 7 0 -9 -21 0 3 0 96
-7 0 3 0 0 0 0 0 8 | 0 -7 0 -1 0 0 0 0 8
0 0 3 0 0 0 0 0 8 | 0 -7 0 0 0 0 0 0 8
-21 0 6 0 0 7 0 0 48 | 0 -14 0 -3 0 0 3 0 48
-63 0 15 0 0 7 0 -3 96 | 0 -35 0 -9 21 0 3 0 96
-63 0 21 0 0 -7 0 -3 96 | 0 -49 0 -9 21 0 -3 0 96
-21 0 12 0 0 -7 0 0 48 | 0 -28 0 -3 0 0 -3 0 48
-21 0 21 0 0 -7 0 3 96 | 0 -49 0 -3 -21 0 -3 0 96
-21 0 15 0 0 7 0 3 96 | 0 -35 0 -3 -21 0 3 0 96
7 0 3 0 0 0 0 0 8 | 0 -7 0 1 0 0 0 0 8
21 0 6 0 0 7 0 0 48 | 0 -14 0 3 0 0 3 0 48
21 0 15 0 0 7 0 -3 96 | 0 -35 0 3 21 0 3 0 96
21 0 21 0 0 -7 0 -3 96 | 0 -49 0 3 21 0 -3 0 96
21 0 12 0 0 -7 0 0 48 | 0 -28 0 3 0 0 -3 0 48
63 0 21 0 0 -7 0 3 96 | 0 -49 0 9 -21 0 -3 0 96
63 0 15 0 0 7 0 3 96 | 0 -35 0 9 -21 0 3 0 96
0 0 -3 0 0 7 0 0 24 | 0 7 0 0 0 0 3 0 24
-7 0 -3 0 0 7 0 -1 32 | 0 7 0 -1 7 0 3 0 32
7 0 -3 0 0 7 0 1 32 | 0 7 0 1 -7 0 3 0 32
-21 0 -3 0 0 7 0 -3 48 | 0 7 0 -3 21 0 3 0 48
-7 0 0 0 0 0 0 -1 16 | 0 0 0 -1 7 0 0 0 16
-21 0 3 0 0 -7 0 -3 48 | 0 -7 0 -3 21 0 -3 0 48
-7 0 3 0 0 -7 0 -1 32 | 0 -7 0 -1 7 0 -3 0 32
0 0 3 0 0 -7 0 0 24 | 0 -7 0 0 0 0 -3 0 24
7 0 3 0 0 -7 0 1 32 | 0 -7 0 1 -7 0 -3 0 32
21 0 3 0 0 -7 0 3 48 | 0 -7 0 3 -21 0 -3 0 48
7 0 0 0 0 0 0 1 16 | 0 0 0 1 -7 0 0 0 16
21 0 -3 0 0 7 0 3 48 | 0 7 0 3 -21 0 3 0 48
-21 0 -3 0 0 14 0 0 48 | 0 7 0 -3 0 0 6 0 48
-21 0 3 0 0 7 0 0 24 | 0 -7 0 -3 0 0 3 0 24
-7 0 5 0 0 7 0 -1 32 | 0 -35 0 -3 21 0 9 0 96
0 0 9 0 0 7 0 0 48 | 0 -7 0 0 0 0 1 0 16
-21 0 3 0 0 7 0 -1 32 | 0 -7 0 -3 7 0 3 0 32
0 0 6 0 0 7 0 -3 48 | 0 -14 0 0 21 0 3 0 48
-21 0 -3 0 0 7 0 1 32 | 0 7 0 -3 -7 0 3 0 32
-21 0 3 0 0 14 0 0 48 | 0 -7 0 -3 0 0 6 0 48
63 0 9 0 0 7 0 -3 96 | 0 -7 0 3 7 0 1 0 32
7 0 1 0 0 0 0 0 8 | 0 -7 0 3 0 0 0 0 24
0 0 -15 0 0 7 0 0 48 | 0 35 0 0 0 0 3 0 48
63 0 -9 0 0 7 0 3 96 | 0 7 0 3 -7 0 1 0 32
-42 0 -15 0 0 7 0 0 48 | 0 35 0 -6 0 0 3 0 48
-63 0 -6 0 0 7 0 0 48 | 0 14 0 -9 0 0 3 0 48
-21 0 -9 0 0 14 0 0 48 | 0 7 0 -1 0 0 2 0 16
-21 0 -5 0 0 7 0 -1 32 | 0 35 0 -9 21 0 9 0 96
-63 0 -9 0 0 7 0 -3 96 | 0 7 0 -3 7 0 1 0 32
-7 0 -5 0 0 7 0 1 32 | 0 35 0 -3 -21 0 9 0 96
-21 0 0 0 0 7 0 0 24 | 0 0 0 -1 0 0 1 0 8
-35 0 1 0 0 7 0 -1 32 | 0 -7 0 -15 21 0 9 0 96
-105 0 9 0 0 7 0 -3 96 | 0 -7 0 -5 7 0 1 0 32
-7 0 1 0 0 0 0 0 8 | 0 -7 0 -3 0 0 0 0 24
-63 0 9 0 0 7 0 3 96 | 0 -7 0 -3 -7 0 1 0 32
-21 0 1 0 0 7 0 1 32 | 0 -7 0 -9 -21 0 9 0 96
-21 0 9 0 0 14 0 0 48 | 0 -7 0 -1 0 0 2 0 16
-21 0 7 0 0 7 0 -1 32 | 0 -49 0 -9 21 0 9 0 96
-63 0 27 0 0 7 0 -3 96 | 0 -21 0 -3 7 0 1 0 32
-7 0 5 0 0 0 0 0 16 | 0 -35 0 -3 0 0 0 0 48
7 0 7 0 0 7 0 -1 32 | 0 -49 0 3 21 0 9 0 96
21 0 27 0 0 7 0 -3 96 | 0 -21 0 1 7 0 1 0 32
7 0 5 0 0 0 0 0 16 | 0 -35 0 3 0 0 0 0 48
-21 0 3 0 0 7 0 -3 48 | 0 -7 0 -3 21 0 3 0 48
-7 0 2 0 0 0 0 -1 16 | 0 -14 0 -3 21 0 0 0 48
0 0 9 0 0 -7 0 0 48 | 0 -7 0 0 0 0 -1 0 16
0 0 12 0 0 7 0 -3 48 | 0 -28 0 0 21 0 3 0 48
7 0 2 0 0 0 0 -1 16 | 0 -14 0 3 21 0 0 0 48
0 0 3 0 0 0 0 -1 16 | 0 -7 0 0 7 0 0 0 16
14 0 3 0 0 0 0 -1 16 | 0 -7 0 2 7 0 0 0 16
21 0 3 0 0 -7 0 -3 48 | 0 -7 0 3 21 0 -3 0 48
14 0 1 0 0 0 0 -1 16 | 0 -7 0 6 21 0 0 0 48
105 0 9 0 0 -7 0 -3 96 | 0 -7 0 5 7 0 -1 0 32
63 0 -9 0 0 -7 0 -3 96 | 0 7 0 3 7 0 -1 0 32
7 0 -1 0 0 0 0 0 8 | 0 7 0 3 0 0 0 0 24
-105 0 -15 0 0 7 0 -3 96 | 0 35 0 -15 21 0 3 0 96
0 0 -9 0 0 7 0 0 48 | 0 7 0 0 0 0 1 0 16
-105 0 21 0 0 7 0 -3 96 | 0 -49 0 -15 21 0 3 0 96
-21 0 -1 0 0 7 0 -1 32 | 0 7 0 -9 21 0 9 0 96
-42 0 0 0 0 7 0 -3 48 | 0 0 0 -2 7 0 1 0 16
-14 0 1 0 0 0 0 -1 16 | 0 -7 0 -6 21 0 0 0 48
-63 0 9 0 0 -7 0 -3 96 | 0 -7 0 -3 7 0 -1 0 32
-21 0 9 0 0 7 0 -3 48 | 0 -7 0 -1 7 0 1 0 16
-7 0 4 0 0 0 0 -1 16 | 0 -28 0 -3 21 0 0 0 48
-21 0 27 0 0 -7 0 -3 96 | 0 -21 0 -1 7 0 -1 0 32
0 0 1 0 0 0 0 0 4 | 0 -7 0 0 0 0 0 0 12
63 0 27 0 0 -7 0 -3 96 | 0 -21 0 3 7 0 -1 0 32
0 0 6 0 0 -7 0 -3 48 | 0 -14 0 0 21 0 -3 0 48
7 0 5 0 0 -7 0 -1 32 | 0 -35 0 3 21 0 -9 0 96
63 0 9 0 0 -7 0 3 96 | 0 -7 0 3 -7 0 -1 0 32
21 0 -1 0 0 -7 0 -1 32 | 0 7 0 9 21 0 -9 0 96
21 0 3 0 0 -7 0 -1 32 | 0 -7 0 3 7 0 -3 0 32
21 0 -3 0 0 -14 0 0 48 | 0 7 0 3 0 0 -6 0 48
63 0 0 0 0 -7 0 0 48 | 0 0 0 3 0 0 -1 0 16
21 0 -1 0 0 0 0 0 16 | 0 7 0 9 0 0 0 0 48
21 0 -5 0 0 -7 0 -1 32 | 0 35 0 9 21 0 -9 0 96
42 0 -9 0 0 -7 0 0 48 | 0 7 0 2 0 0 -1 0 16
0 0 -9 0 0 -7 0 0 48 | 0 7 0 0 0 0 -1 0 16
0 0 -1 0 0 0 0 0 4 | 0 7 0 0 0 0 0 0 12
-105 0 15 0 0 -7 0 -3 96 | 0 -35 0 -15 21 0 -3 0 96
-63 0 33 0 0 -7 0 -3 96 | 0 -77 0 -9 21 0 -3 0 96
21 0 33 0 0 -7 0 -3 96 | 0 -77 0 3 21 0 -3 0 96
-21 0 9 0 0 -7 0 -3 48 | 0 -7 0 -1 7 0 -1 0 16
42 0 9 0 0 -7 0 0 48 | 0 -7 0 2 0 0 -1 0 16
21 0 3 0 0 -14 0 0 48 | 0 -7 0 3 0 0 -6 0 48
21 0 1 0 0 -7 0 1 32 | 0 -7 0 9 -21 0 -9 0 96
7 0 -5 0 0 -7 0 1 32 | 0 35 0 3 -21 0 -9 0 96
21 0 -3 0 0 -7 0 1 32 | 0 7 0 3 -7 0 -3 0 32
7 0 -9 0 0 -7 0 1 32 | 0 21 0 1 -7 0 -3 0 32
0 0 -6 0 0 -7 0 3 48 | 0 14 0 0 -21 0 -3 0 48
105 0 -9 0 0 -7 0 3 96 | 0 7 0 5 -7 0 -1 0 32
7 0 -5 0 0 0 0 0 16 | 0 35 0 3 0 0 0 0 48
-7 0 -5 0 0 0 0 0 16 | 0 35 0 -3 0 0 0 0 48
-7 0 -7 0 0 -7 0 1 32 | 0 49 0 -3 -21 0 -9 0 96
-21 0 -27 0 0 -7 0 3 96 | 0 21 0 -1 -7 0 -1 0 32
-7 0 -1 0 0 0 0 0 8 | 0 7 0 -3 0 0 0 0 24
-63 0 -9 0 0 -7 0 3 96 | 0 7 0 -3 -7 0 -1 0 32
0 0 15 0 0 -7 0 0 48 | 0 -35 0 0 0 0 -3 0 48
21 0 5 0 0 -7 0 1 32 | 0 -35 0 9 -21 0 -9 0 96
21 0 -3 0 0 -7 0 3 48 | 0 7 0 3 -21 0 -3 0 48
7 0 -2 0 0 0 0 1 16 | 0 14 0 3 -21 0 0 0 48
0 0 -12 0 0 -7 0 3 48 | 0 28 0 0 -21 0 -3 0 48
-7 0 -2 0 0 0 0 1 16 | 0 14 0 -3 -21 0 0 0 48
0 0 -3 0 0 0 0 1 16 | 0 7 0 0 -7 0 0 0 16
-14 0 -3 0 0 0 0 1 16 | 0 7 0 -2 -7 0 0 0 16
-21 0 -3 0 0 7 0 3 48 | 0 7 0 -3 -21 0 3 0 48
147 0 -3 0 0 -7 0 3 96 | 0 7 0 21 -21 0 -3 0 96
105 0 -21 0 0 -7 0 3 96 | 0 49 0 15 -21 0 -3 0 96
105 0 15 0 0 -7 0 3 96 | 0 -35 0 15 -21 0 -3 0 96
42 0 0 0 0 -7 0 3 48 | 0 0 0 2 -7 0 -1 0 16
14 0 -1 0 0 0 0 1 16 | 0 7 0 6 -21 0 0 0 48
21 0 -27 0 0 7 0 3 96 | 0 21 0 1 -7 0 1 0 32
21 0 -9 0 0 -7 0 3 48 | 0 7 0 1 -7 0 -1 0 16
-63 0 -27 0 0 7 0 3 96 | 0 21 0 -3 -7 0 1 0 32
-7 0 -2 0 0 0 0 0 8 | 0 14 0 -3 0 0 0 0 24
-105 0 -9 0 0 7 0 3 96 | 0 7 0 -5 -7 0 1 0 32
-21 0 -1 0 0 0 0 0 16 | 0 7 0 -9 0 0 0 0 48
-14 0 -1 0 0 0 0 1 16 | 0 7 0 -6 -21 0 0 0 48
0 0 -6 0 0 7 0 3 48 | 0 14 0 0 -21 0 3 0 48
-42 0 -6 0 0 7 0 3 48 | 0 14 0 -6 -21 0 3 0 48
105 0 -15 0 0 7 0 3 96 | 0 35 0 15 -21 0 3 0 96
63 0 -33 0 0 7 0 3 96 | 0 77 0 9 -21 0 3 0 96
-21 0 -33 0 0 7 0 3 96 | 0 77 0 -3 -21 0 3 0 96
7 0 -7 0 0 7 0 1 32 | 0 49 0 3 -21 0 9 0 96
-21 0 -7 0 0 7 0 1 32 | 0 49 0 -9 -21 0 9 0 96
-42 0 -9 0 0 7 0 0 48 | 0 7 0 -2 0 0 1 0 16
-21 0 -9 0 0 7 0 3 48 | 0 7 0 -1 -7 0 1 0 16
-21 0 1 0 0 0 0 0 16 | 0 -7 0 -9 0 0 0 0 48
-42 0 0 0 0 7 0 3 48 | 0 0 0 -2 -7 0 1 0 16
-42 0 9 0 0 7 0 0 48 | 0 -7 0 -2 0 0 1 0 16
-7 0 2 0 0 0 0 0 8 | 0 -14 0 -3 0 0 0 0 24
105 0 -15 0 0 -7 0 -3 96 | 0 35 0 15 21 0 -3 0 96
105 0 15 0 0 7 0 -3 96 | 0 -35 0 15 21 0 3 0 96
105 0 21 0 0 -7 0 -3 96 | 0 -49 0 15 21 0 -3 0 96
0 0 -15 0 0 -7 0 0 48 | 0 35 0 0 0 0 -3 0 48
21 0 -33 0 0 -7 0 3 96 | 0 77 0 3 -21 0 -3 0 96
42 0 -6 0 0 -7 0 3 48 | 0 14 0 6 -21 0 -3 0 48
-105 0 -15 0 0 -7 0 3 96 | 0 35 0 -15 -21 0 -3 0 96
-105 0 -21 0 0 7 0 3 96 | 0 49 0 -15 -21 0 3 0 96
-63 0 6 0 0 7 0 0 48 | 0 -14 0 -9 0 0 3 0 48
-105 0 15 0 0 7 0 3 96 | 0 -35 0 -15 -21 0 3 0 96
-21 0 -3 0 0 7 0 0 24 | 0 7 0 -3 0 0 3 0 24
-35 0 -3 0 0 7 0 -1 32 | 0 7 0 -5 7 0 3 0 32
-42 0 15 0 0 7 0 0 48 | 0 -35 0 -6 0 0 3 0 48
0 0 15 0 0 7 0 0 48 | 0 -35 0 0 0 0 3 0 48
-21 0 33 0 0 7 0 -3 96 | 0 -77 0 -3 21 0 3 0 96
-42 0 6 0 0 7 0 -3 48 | 0 -14 0 -6 21 0 3 0 48
-14 0 3 0 0 0 0 -1 16 | 0 -7 0 -2 7 0 0 0 16
63 0 33 0 0 7 0 -3 96 | 0 -77 0 9 21 0 3 0 96
7 0 9 0 0 -7 0 -1 32 | 0 -21 0 1 7 0 -3 0 32
