# primes 3 11 247
0 0 0 0 0 0 0 0 1 | 0 0 0 0 0 0 0 0 1
5 0 0 0 0 0 0 0 6 | 0 0 -1 0 0 0 0 0 6
5 0 0 1 0 0 0 0 12 | 0 5 -1 0 0 0 0 0 12
-5 0 0 1 0 0 0 0 12 | 0 5 1 0 0 0 0 0 12
5 0 0 -1 0 0 0 0 12 | 0 -5 -1 0 0 0 0 0 12
0 0 0 1 0 0 0 0 6 | 0 -1 0 0 0 0 0 0 6
3 0 0 1 0 0 0 0 12 | 0 -1 3 0 0 0 0 0 12
0 0 0 -1 0 0 0 0 6 | 0 1 0 0 0 0 0 0 6
-3 0 0 1 0 0 0 0 12 | 0 -1 -3 0 0 0 0 0 12
1 0 0 0 0 0 0 0 1 | 0 0 0 0 0 0 0 0 1
1 0 0 0 0 0 0 0 2 | 0 1 0 0 0 0 0 0 2
-1 0 0 0 0 0 0 0 2 | 0 1 0 0 0 0 0 0 2
-1 0 0 0 0 0 0 0 1 | 0 0 0 0 0 0 0 0 1
-1 0 0 0 0 0 0 0 2 | 0 -1 0 0 0 0 0 0 2
1 0 0 0 0 0 0 0 2 | 0 -1 0 0 0 0 0 0 2
-3 0 0 1 0 0 0 0 12 | 0 1 3 0 0 0 0 0 12
-3 0 0 -1 0 0 0 0 12 | 0 -1 3 0 0 0 0 0 12
0 0 0 -1 0 0 0 0 6 | 0 -1 0 0 0 0 0 0 6
3 0 0 -1 0 0 0 0 12 | 0 -1 -3 0 0 0 0 0 12
5 0 0 0 0 0 0 0 6 | 0 0 1 0 0 0 0 0 6
5 0 0 -1 0 0 0 0 12 | 0 5 1 0 0 0 0 0 12
5 0 0 1 0 0 0 0 12 | 0 -5 1 0 0 0 0 0 12
15 0 0 1 0 0 0 0 12 | 0 5 -3 0 0 0 0 0 12
15 0 0 -1 0 0 0 0 12 | 0 -5 -3 0 0 0 0 0 12
5 0 0 1 0 0 0 0 6 | 0 -1 -1 0 0 0 0 0 6
13 0 0 -1 0 0 0 0 12 | 0 1 1 0 0 0 0 0 12
7 0 0 -1 0 0 0 0 12 | 0 1 -5 0 0 0 0 0 12
4 0 0 0 0 0 0 0 3 | 0 3 -1 0 0 0 0 0 6
1 0 0 0 0 0 0 0 3 | 0 3 -1 0 0 0 0 0 6
-1 0 0 0 0 0 0 0 6 | 0 0 -1 0 0 0 0 0 6
1 0 0 0 0 0 0 0 3 | 0 -3 -1 0 0 0 0 0 6
4 0 0 0 0 0 0 0 3 | 0 -3 -1 0 0 0 0 0 6
5 0 0 1 0 0 0 0 6 | 0 1 -1 0 0 0 0 0 6
7 0 0 1 0 0 0 0 12 | 0 1 1 0 0 0 0 0 12
7 0 0 -1 0 0 0 0 12 | 0 -1 1 0 0 0 0 0 12
5 0 0 -1 0 0 0 0 6 | 0 -1 -1 0 0 0 0 0 6
5 0 0 0 0 0 0 0 3 | 0 0 0 0 0 0 0 0 1
15 0 0 -1 0 0 0 0 12 | 0 5 -1 0 0 0 0 0 12
0 0 0 1 0 0 0 0 6 | 0 5 0 0 0 0 0 0 6
5 0 0 3 0 0 0 0 12 | 0 3 -1 0 0 0 0 0 12
4 0 0 1 0 0 0 0 6 | 0 2 1 0 0 0 0 0 6
5 0 0 -1 0 0 0 0 12 | 0 7 -1 0 0 0 0 0 12
1 0 0 0 0 0 0 0 6 | 0 3 -2 0 0 0 0 0 6
-7 0 0 1 0 0 0 0 12 | 0 5 -1 0 0 0 0 0 12
-1 0 0 1 0 0 0 0 12 | 0 -1 -1 0 0 0 0 0 12
11 0 0 1 0 0 0 0 12 | 0 -1 -1 0 0 0 0 0 12
1 0 0 0 0 0 0 0 6 | 0 2 1 0 0 0 0 0 6
2 0 0 0 0 0 0 0 3 | 0 1 -1 0 0 0 0 0 3
15 0 0 1 0 0 0 0 12 | 0 5 1 0 0 0 0 0 12
0 0 0 1 0 0 0 0 6 | 0 0 -1 0 0 0 0 0 6
5 0 0 1 0 0 0 0 6 | 0 0 0 0 0 0 0 0 1
-15 0 0 1 0 0 0 0 12 | 0 5 3 0 0 0 0 0 12
-5 0 0 3 0 0 0 0 12 | 0 3 1 0 0 0 0 0 12
-1 0 0 1 0 0 0 0 6 | 0 1 1 0 0 0 0 0 3
-1 0 0 0 0 0 0 0 6 | 0 3 2 0 0 0 0 0 6
-5 0 0 -1 0 0 0 0 12 | 0 7 1 0 0 0 0 0 12
-2 0 0 0 0 0 0 0 3 | 0 3 -1 0 0 0 0 0 6
-4 0 0 1 0 0 0 0 6 | 0 2 -1 0 0 0 0 0 6
-11 0 0 1 0 0 0 0 12 | 0 -1 1 0 0 0 0 0 12
1 0 0 1 0 0 0 0 12 | 0 -1 1 0 0 0 0 0 12
-2 0 0 0 0 0 0 0 3 | 0 1 1 0 0 0 0 0 3
-5 0 0 -1 0 0 0 0 12 | 0 3 1 0 0 0 0 0 12
-1 0 0 0 0 0 0 0 6 | 0 2 -1 0 0 0 0 0 6
5 0 0 1 0 0 0 0 12 | 0 5 3 0 0 0 0 0 12
-5 0 0 1 0 0 0 0 6 | 0 0 0 0 0 0 0 0 1
0 0 0 1 0 0 0 0 6 | 0 0 1 0 0 0 0 0 6
-5 0 0 -1 0 0 0 0 6 | 0 1 1 0 0 0 0 0 6
-13 0 0 -1 0 0 0 0 12 | 0 1 -1 0 0 0 0 0 12
-13 0 0 1 0 0 0 0 12 | 0 -1 -1 0 0 0 0 0 12
1 0 0 0 0 0 0 0 6 | 0 0 1 0 0 0 0 0 6
-1 0 0 0 0 0 0 0 3 | 0 3 1 0 0 0 0 0 6
-1 0 0 0 0 0 0 0 3 | 0 -3 1 0 0 0 0 0 6
-5 0 0 1 0 0 0 0 6 | 0 1 1 0 0 0 0 0 6
-13 0 0 1 0 0 0 0 12 | 0 1 5 0 0 0 0 0 12
-7 0 0 -1 0 0 0 0 12 | 0 -1 -1 0 0 0 0 0 12
-7 0 0 1 0 0 0 0 12 | 0 1 -1 0 0 0 0 0 12
0 0 0 0 0 0 0 0 1 | 0 0 1 0 0 0 0 0 3
0 0 0 -1 0 0 0 0 6 | 0 -5 0 0 0 0 0 0 6
-5 0 0 -3 0 0 0 0 12 | 0 -3 1 0 0 0 0 0 12
-4 0 0 -1 0 0 0 0 6 | 0 -2 -1 0 0 0 0 0 6
-2 0 0 0 0 0 0 0 3 | 0 -3 -1 0 0 0 0 0 6
7 0 0 -1 0 0 0 0 12 | 0 -5 1 0 0 0 0 0 12
1 0 0 -1 0 0 0 0 12 | 0 1 1 0 0 0 0 0 12
-11 0 0 -1 0 0 0 0 12 | 0 1 1 0 0 0 0 0 12
-17 0 0 -1 0 0 0 0 12 | 0 -5 1 0 0 0 0 0 12
1 0 0 -1 0 0 0 0 12 | 0 -11 1 0 0 0 0 0 12
-2 0 0 0 0 0 0 0 3 | 0 -1 1 0 0 0 0 0 3
-1 0 0 -1 0 0 0 0 6 | 0 -3 -1 0 0 0 0 0 6
-1 0 0 0 0 0 0 0 6 | 0 -2 -1 0 0 0 0 0 6
5 0 0 -1 0 0 0 0 12 | 0 -5 3 0 0 0 0 0 12
5 0 0 1 0 0 0 0 12 | 0 -7 -1 0 0 0 0 0 12
2 0 0 0 0 0 0 0 3 | 0 -3 1 0 0 0 0 0 6
4 0 0 -1 0 0 0 0 6 | 0 -2 1 0 0 0 0 0 6
1 0 0 -1 0 0 0 0 6 | 0 -1 -1 0 0 0 0 0 3
1 0 0 0 0 0 0 0 6 | 0 -3 -2 0 0 0 0 0 6
11 0 0 -1 0 0 0 0 12 | 0 1 -1 0 0 0 0 0 12
-1 0 0 -1 0 0 0 0 12 | 0 1 -1 0 0 0 0 0 12
-7 0 0 -1 0 0 0 0 12 | 0 -5 -1 0 0 0 0 0 12
-1 0 0 -1 0 0 0 0 12 | 0 -11 -1 0 0 0 0 0 12
11 0 0 -1 0 0 0 0 12 | 0 -11 -1 0 0 0 0 0 12
5 0 0 1 0 0 0 0 12 | 0 -3 -1 0 0 0 0 0 12
1 0 0 0 0 0 0 0 6 | 0 -2 1 0 0 0 0 0 6
1 0 0 -1 0 0 0 0 6 | 0 -3 1 0 0 0 0 0 6
2 0 0 0 0 0 0 0 3 | 0 -1 -1 0 0 0 0 0 3
15 0 0 -1 0 0 0 0 12 | 0 -5 1 0 0 0 0 0 12
5 0 0 -1 0 0 0 0 6 | 0 0 0 0 0 0 0 0 1
0 0 0 -1 0 0 0 0 6 | 0 0 -1 0 0 0 0 0 6
5 0 0 0 0 0 0 0 6 | 0 -5 0 0 0 0 0 0 6
1 0 0 1 0 0 0 0 4 | 0 -1 1 0 0 0 0 0 4
-1 0 0 1 0 0 0 0 4 | 0 -1 -1 0 0 0 0 0 4
6 0 0 1 0 0 0 0 6 | 0 -1 0 0 0 0 0 0 6
3 0 0 1 0 0 0 0 6 | 0 1 0 0 0 0 0 0 3
-3 0 0 1 0 0 0 0 6 | 0 1 0 0 0 0 0 0 3
-6 0 0 1 0 0 0 0 6 | 0 -1 0 0 0 0 0 0 6
-3 0 0 1 0 0 0 0 6 | 0 -2 0 0 0 0 0 0 3
-3 0 0 1 0 0 0 0 12 | 0 -1 1 0 0 0 0 0 4
0 0 0 0 0 0 0 0 1 | 0 -1 0 0 0 0 0 0 3
3 0 0 1 0 0 0 0 12 | 0 -1 -1 0 0 0 0 0 4
1 0 0 1 0 0 0 0 4 | 0 -1 -3 0 0 0 0 0 12
5 0 0 1 0 0 0 0 6 | 0 -1 1 0 0 0 0 0 6
-5 0 0 1 0 0 0 0 12 | 0 3 -1 0 0 0 0 0 12
-5 0 0 1 0 0 0 0 6 | 0 -1 -1 0 0 0 0 0 6
15 0 0 1 0 0 0 0 12 | 0 -1 3 0 0 0 0 0 12
9 0 0 1 0 0 0 0 12 | 0 -7 3 0 0 0 0 0 12
0 0 0 0 0 0 0 0 1 | 0 -1 3 0 0 0 0 0 6
1 0 0 0 0 0 0 0 2 | 0 -1 0 0 0 0 0 0 6
3 0 0 1 0 0 0 0 6 | 0 0 0 0 0 0 0 0 1
2 0 0 0 0 0 0 0 3 | 0 1 1 0 0 0 0 0 3
-7 0 0 1 0 0 0 0 12 | 0 -1 1 0 0 0 0 0 12
-1 0 0 1 0 0 0 0 6 | 0 -3 1 0 0 0 0 0 6
4 0 0 1 0 0 0 0 6 | 0 -3 2 0 0 0 0 0 6
3 0 0 -1 0 0 0 0 6 | 0 1 3 0 0 0 0 0 6
1 0 0 -1 0 0 0 0 4 | 0 1 1 0 0 0 0 0 4
15 0 0 -1 0 0 0 0 12 | 0 1 3 0 0 0 0 0 12
9 0 0 -1 0 0 0 0 12 | 0 7 3 0 0 0 0 0 12
-3 0 0 -1 0 0 0 0 12 | 0 7 3 0 0 0 0 0 12
-3 0 0 -1 0 0 0 0 12 | 0 -5 3 0 0 0 0 0 12
9 0 0 -1 0 0 0 0 12 | 0 -5 3 0 0 0 0 0 12
3 0 0 1 0 0 0 0 12 | 0 1 1 0 0 0 0 0 4
0 0 0 0 0 0 0 0 1 | 0 1 3 0 0 0 0 0 6
1 0 0 -1 0 0 0 0 4 | 0 -1 3 0 0 0 0 0 12
3 0 0 -1 0 0 0 0 6 | 0 0 0 0 0 0 0 0 1
1 0 0 0 0 0 0 0 2 | 0 1 0 0 0 0 0 0 6
-1 0 0 -1 0 0 0 0 6 | 0 3 1 0 0 0 0 0 6
-1 0 0 0 0 0 0 0 6 | 0 -2 1 0 0 0 0 0 6
-1 0 0 -1 0 0 0 0 4 | 0 1 -1 0 0 0 0 0 4
6 0 0 -1 0 0 0 0 6 | 0 1 0 0 0 0 0 0 6
-3 0 0 -1 0 0 0 0 6 | 0 2 0 0 0 0 0 0 3
-3 0 0 -1 0 0 0 0 6 | 0 -1 0 0 0 0 0 0 3
3 0 0 -1 0 0 0 0 6 | 0 -1 0 0 0 0 0 0 3
0 0 0 0 0 0 0 0 1 | 0 1 0 0 0 0 0 0 3
-3 0 0 -1 0 0 0 0 12 | 0 1 1 0 0 0 0 0 4
0 0 0 -1 0 0 0 0 3 | 0 0 0 0 0 0 0 0 1
1 0 0 -1 0 0 0 0 4 | 0 1 -3 0 0 0 0 0 12
3 0 0 -1 0 0 0 0 12 | 0 1 -1 0 0 0 0 0 4
-5 0 0 -1 0 0 0 0 12 | 0 -3 -1 0 0 0 0 0 12
5 0 0 -1 0 0 0 0 12 | 0 -3 1 0 0 0 0 0 12
-3 0 0 -1 0 0 0 0 6 | 0 1 -3 0 0 0 0 0 6
-1 0 0 0 0 0 0 0 2 | 0 0 -1 0 0 0 0 0 2
9 0 0 -1 0 0 0 0 12 | 0 1 -3 0 0 0 0 0 12
3 0 0 -1 0 0 0 0 12 | 0 7 -3 0 0 0 0 0 12
-15 0 0 -1 0 0 0 0 12 | 0 1 -3 0 0 0 0 0 12
-9 0 0 -1 0 0 0 0 12 | 0 -5 -3 0 0 0 0 0 12
3 0 0 -1 0 0 0 0 12 | 0 -5 -3 0 0 0 0 0 12
-3 0 0 1 0 0 0 0 12 | 0 1 -1 0 0 0 0 0 4
-1 0 0 0 0 0 0 0 2 | 0 1 0 0 0 0 0 0 6
-3 0 0 -1 0 0 0 0 6 | 0 0 0 0 0 0 0 0 1
-1 0 0 -1 0 0 0 0 4 | 0 -1 -3 0 0 0 0 0 12
7 0 0 -1 0 0 0 0 12 | 0 1 -1 0 0 0 0 0 12
1 0 0 0 0 0 0 0 6 | 0 -2 -1 0 0 0 0 0 6
9 0 0 1 0 0 0 0 12 | 0 -1 -3 0 0 0 0 0 12
-9 0 0 1 0 0 0 0 12 | 0 5 -3 0 0 0 0 0 12
-9 0 0 1 0 0 0 0 12 | 0 -7 -3 0 0 0 0 0 12
3 0 0 1 0 0 0 0 12 | 0 -7 -3 0 0 0 0 0 12
-3 0 0 1 0 0 0 0 6 | 0 0 0 0 0 0 0 0 1
-3 0 0 -1 0 0 0 0 12 | 0 -1 -1 0 0 0 0 0 4
0 0 0 1 0 0 0 0 6 | 0 0 -1 0 0 0 0 0 2
-2 0 0 0 0 0 0 0 3 | 0 1 -1 0 0 0 0 0 3
1 0 0 1 0 0 0 0 6 | 0 -3 -1 0 0 0 0 0 6
3 0 0 0 0 0 0 0 2 | 0 1 0 0 0 0 0 0 2
3 0 0 0 0 0 0 0 2 | 0 -1 0 0 0 0 0 0 2
6 0 0 1 0 0 0 0 6 | 0 1 0 0 0 0 0 0 6
6 0 0 -1 0 0 0 0 6 | 0 -1 0 0 0 0 0 0 6
11 0 0 0 0 0 0 0 6 | 0 0 1 0 0 0 0 0 6
17 0 0 -1 0 0 0 0 12 | 0 5 1 0 0 0 0 0 12
7 0 0 -1 0 0 0 0 12 | 0 5 -1 0 0 0 0 0 12
1 0 0 0 0 0 0 0 6 | 0 0 -1 0 0 0 0 0 6
17 0 0 1 0 0 0 0 12 | 0 -5 1 0 0 0 0 0 12
1 0 0 0 0 0 0 0 1 | 0 1 0 0 0 0 0 0 1
0 0 0 0 0 0 0 0 1 | 0 1 0 0 0 0 0 0 1
3 0 0 1 0 0 0 0 12 | 0 7 3 0 0 0 0 0 12
3 0 0 -1 0 0 0 0 12 | 0 5 3 0 0 0 0 0 12
3 0 0 -1 0 0 0 0 6 | 0 1 0 0 0 0 0 0 3
9 0 0 1 0 0 0 0 12 | 0 7 -3 0 0 0 0 0 12
4 0 0 0 0 0 0 0 3 | 0 3 1 0 0 0 0 0 6
-1 0 0 0 0 0 0 0 3 | 0 3 -1 0 0 0 0 0 6
1 0 0 1 0 0 0 0 12 | 0 1 -1 0 0 0 0 0 12
11 0 0 1 0 0 0 0 12 | 0 1 1 0 0 0 0 0 12
-3 0 0 0 0 0 0 0 2 | 0 1 0 0 0 0 0 0 2
-3 0 0 1 0 0 0 0 6 | 0 2 0 0 0 0 0 0 3
-9 0 0 1 0 0 0 0 12 | 0 7 3 0 0 0 0 0 12
-3 0 0 -1 0 0 0 0 6 | 0 1 0 0 0 0 0 0 3
-3 0 0 -1 0 0 0 0 12 | 0 5 -3 0 0 0 0 0 12
-11 0 0 1 0 0 0 0 12 | 0 1 -1 0 0 0 0 0 12
-1 0 0 1 0 0 0 0 12 | 0 1 1 0 0 0 0 0 12
-2 0 0 0 0 0 0 0 1 | 0 0 0 0 0 0 0 0 1
-3 0 0 0 0 0 0 0 2 | 0 -1 0 0 0 0 0 0 2
-6 0 0 1 0 0 0 0 6 | 0 1 0 0 0 0 0 0 6
-15 0 0 -1 0 0 0 0 12 | 0 -1 3 0 0 0 0 0 12
-6 0 0 -1 0 0 0 0 6 | 0 -1 0 0 0 0 0 0 6
-9 0 0 -1 0 0 0 0 12 | 0 -1 -3 0 0 0 0 0 12
-9 0 0 1 0 0 0 0 12 | 0 1 -3 0 0 0 0 0 12
-1 0 0 0 0 0 0 0 6 | 0 0 1 0 0 0 0 0 6
-7 0 0 -1 0 0 0 0 12 | 0 5 1 0 0 0 0 0 12
-7 0 0 1 0 0 0 0 12 | 0 -5 1 0 0 0 0 0 12
-1 0 0 0 0 0 0 0 1 | 0 -1 0 0 0 0 0 0 1
0 0 0 0 0 0 0 0 1 | 0 -1 0 0 0 0 0 0 1
-3 0 0 1 0 0 0 0 6 | 0 -1 0 0 0 0 0 0 3
-9 0 0 1 0 0 0 0 12 | 0 -5 3 0 0 0 0 0 12
-9 0 0 -1 0 0 0 0 12 | 0 -7 3 0 0 0 0 0 12
-3 0 0 -1 0 0 0 0 12 | 0 -7 -3 0 0 0 0 0 12
-3 0 0 1 0 0 0 0 12 | 0 -5 -3 0 0 0 0 0 12
1 0 0 0 0 0 0 0 3 | 0 -3 1 0 0 0 0 0 6
-1 0 0 -1 0 0 0 0 12 | 0 -1 1 0 0 0 0 0 12
1 0 0 0 0 0 0 0 1 | 0 -1 0 0 0 0 0 0 1
3 0 0 1 0 0 0 0 6 | 0 -1 0 0 0 0 0 0 3
3 0 0 1 0 0 0 0 12 | 0 -5 3 0 0 0 0 0 12
9 0 0 -1 0 0 0 0 12 | 0 -7 -3 0 0 0 0 0 12
4 0 0 0 0 0 0 0 3 | 0 -3 1 0 0 0 0 0 6
11 0 0 -1 0 0 0 0 12 | 0 -1 1 0 0 0 0 0 12
1 0 0 -1 0 0 0 0 12 | 0 -1 -1 0 0 0 0 0 12
-1 0 0 0 0 0 0 0 3 | 0 -3 -1 0 0 0 0 0 6
1 0 0 1 0 0 0 0 12 | 0 -11 -1 0 0 0 0 0 12
5 0 0 1 0 0 0 0 6 | 0 1 1 0 0 0 0 0 6
-5 0 0 1 0 0 0 0 6 | 0 1 -1 0 0 0 0 0 6
-5 0 0 3 0 0 0 0 12 | 0 -3 -1 0 0 0 0 0 12
5 0 0 3 0 0 0 0 12 | 0 -3 1 0 0 0 0 0 12
1 0 0 0 0 0 0 0 6 | 0 3 2 0 0 0 0 0 6
-2 0 0 0 0 0 0 0 3 | 0 3 1 0 0 0 0 0 6
-13 0 0 1 0 0 0 0 12 | 0 1 1 0 0 0 0 0 12
-4 0 0 -1 0 0 0 0 6 | 0 2 1 0 0 0 0 0 6
-13 0 0 -1 0 0 0 0 12 | 0 -1 1 0 0 0 0 0 12
-2 0 0 0 0 0 0 0 3 | 0 -3 1 0 0 0 0 0 6
1 0 0 0 0 0 0 0 6 | 0 -3 2 0 0 0 0 0 6
1 0 0 -1 0 0 0 0 4 | 0 -1 -1 0 0 0 0 0 4
-5 0 0 -1 0 0 0 0 12 | 0 -7 -1 0 0 0 0 0 12
5 0 0 -1 0 0 0 0 12 | 0 -7 1 0 0 0 0 0 12
13 0 0 -1 0 0 0 0 12 | 0 -1 -1 0 0 0 0 0 12
4 0 0 -1 0 0 0 0 6 | 0 2 -1 0 0 0 0 0 6
-7 0 0 -1 0 0 0 0 12 | 0 -1 -5 0 0 0 0 0 12
-1 0 0 0 0 0 0 0 6 | 0 -3 -2 0 0 0 0 0 6
2 0 0 0 0 0 0 0 3 | 0 -3 -1 0 0 0 0 0 6
13 0 0 1 0 0 0 0 12 | 0 1 -1 0 0 0 0 0 12
2 0 0 0 0 0 0 0 3 | 0 3 -1 0 0 0 0 0 6
-1 0 0 0 0 0 0 0 6 | 0 3 -2 0 0 0 0 0 6
-7 0 0 1 0 0 0 0 12 | 0 1 -5 0 0 0 0 0 12
4 0 0 1 0 0 0 0 6 | 0 -2 -1 0 0 0 0 0 6
5 0 0 0 0 0 0 0 3 | 0 0 1 0 0 0 0 0 3
15 0 0 -1 0 0 0 0 12 | 0 5 3 0 0 0 0 0 12
15 0 0 1 0 0 0 0 12 | 0 -5 3 0 0 0 0 0 12
0 0 0 -1 0 0 0 0 6 | 0 5 0 0 0 0 0 0 6
0 0 0 1 0 0 0 0 6 | 0 -5 0 0 0 0 0 0 6
2 0 0 0 0 0 0 0 3 | 0 0 -1 0 0 0 0 0 3
21 0 0 1 0 0 0 0 12 | 0 -1 -3 0 0 0 0 0 12
1 0 0 0 0 0 0 0 1 | 0 1 0 0 0 0 0 0 3
15 0 0 -1 0 0 0 0 12 | 0 1 -1 0 0 0 0 0 4
15 0 0 1 0 0 0 0 12 | 0 -7 -3 0 0 0 0 0 12
9 0 0 -1 0 0 0 0 12 | 0 -11 -3 0 0 0 0 0 12
15 0 0 1 0 0 0 0 12 | 0 -1 -1 0 0 0 0 0 4
1 0 0 0 0 0 0 0 1 | 0 -1 0 0 0 0 0 0 3
2 0 0 1 0 0 0 0 6 | 0 2 -1 0 0 0 0 0 6
-1 0 0 1 0 0 0 0 6 | 0 -1 -1 0 0 0 0 0 6
5 0 0 0 0 0 0 0 6 | 0 -2 -1 0 0 0 0 0 6
13 0 0 3 0 0 0 0 12 | 0 1 1 0 0 0 0 0 12
5 0 0 1 0 0 0 0 6 | 0 0 1 0 0 0 0 0 3
5 0 0 0 0 0 0 0 6 | 0 -1 2 0 0 0 0 0 6
13 0 0 -1 0 0 0 0 12 | 0 -3 1 0 0 0 0 0 12
3 0 0 1 0 0 0 0 12 | 0 -1 -1 0 0 0 0 0 12
13 0 0 1 0 0 0 0 12 | 0 3 1 0 0 0 0 0 12
5 0 0 -1 0 0 0 0 6 | 0 0 1 0 0 0 0 0 3
3 0 0 -1 0 0 0 0 12 | 0 1 -1 0 0 0 0 0 12
2 0 0 0 0 0 0 0 3 | 0 -1 0 0 0 0 0 0 3
-1 0 0 -1 0 0 0 0 6 | 0 1 -1 0 0 0 0 0 6
2 0 0 -1 0 0 0 0 6 | 0 -2 -1 0 0 0 0 0 6
5 0 0 0 0 0 0 0 6 | 0 2 -1 0 0 0 0 0 6
7 0 0 -1 0 0 0 0 12 | 0 3 1 0 0 0 0 0 12
1 0 0 -1 0 0 0 0 12 | 0 -5 -5 0 0 0 0 0 12
7 0 0 1 0 0 0 0 12 | 0 3 -5 0 0 0 0 0 12
1 0 0 0 0 0 0 0 3 | 0 1 -1 0 0 0 0 0 6
2 0 0 -1 0 0 0 0 6 | 0 0 -1 0 0 0 0 0 6
1 0 0 0 0 0 0 0 3 | 0 -1 -1 0 0 0 0 0 6
7 0 0 -1 0 0 0 0 12 | 0 -3 -5 0 0 0 0 0 12
8 0 0 0 0 0 0 0 3 | 0 0 0 0 0 0 0 0 1
13 0 0 -1 0 0 0 0 12 | 0 5 1 0 0 0 0 0 12
13 0 0 0 0 0 0 0 6 | 0 1 0 0 0 0 0 0 2
1 0 0 1 0 0 0 0 12 | 0 7 1 0 0 0 0 0 12
1 0 0 -1 0 0 0 0 12 | 0 5 1 0 0 0 0 0 12
2 0 0 -1 0 0 0 0 6 | 0 2 -1 0 0 0 0 0 6
7 0 0 0 0 0 0 0 6 | 0 1 0 0 0 0 0 0 2
9 0 0 1 0 0 0 0 12 | 0 1 -1 0 0 0 0 0 12
-7 0 0 0 0 0 0 0 6 | 0 0 -1 0 0 0 0 0 6
-1 0 0 1 0 0 0 0 6 | 0 1 -1 0 0 0 0 0 6
-5 0 0 1 0 0 0 0 12 | 0 1 1 0 0 0 0 0 12
-5 0 0 -1 0 0 0 0 12 | 0 -1 1 0 0 0 0 0 12
-1 0 0 -1 0 0 0 0 6 | 0 -1 -1 0 0 0 0 0 6
2 0 0 0 0 0 0 0 3 | 0 0 0 0 0 0 0 0 1
2 0 0 1 0 0 0 0 6 | 0 -2 -1 0 0 0 0 0 6
1 0 0 1 0 0 0 0 12 | 0 -5 1 0 0 0 0 0 12
1 0 0 -1 0 0 0 0 12 | 0 -7 1 0 0 0 0 0 12
7 0 0 0 0 0 0 0 6 | 0 -1 0 0 0 0 0 0 2
9 0 0 -1 0 0 0 0 12 | 0 -1 -1 0 0 0 0 0 12
13 0 0 0 0 0 0 0 6 | 0 -1 0 0 0 0 0 0 2
21 0 0 -1 0 0 0 0 12 | 0 -1 -1 0 0 0 0 0 12
1 0 0 0 0 0 0 0 3 | 0 0 1 0 0 0 0 0 3
-3 0 0 1 0 0 0 0 12 | 0 1 -1 0 0 0 0 0 12
0 0 0 1 0 0 0 0 3 | 0 2 0 0 0 0 0 0 3
3 0 0 1 0 0 0 0 12 | 0 11 3 0 0 0 0 0 12
-3 0 0 1 0 0 0 0 12 | 0 3 1 0 0 0 0 0 4
3 0 0 1 0 0 0 0 12 | 0 3 -1 0 0 0 0 0 4
5 0 0 3 0 0 0 0 12 | 0 5 1 0 0 0 0 0 12
-1 0 0 3 0 0 0 0 12 | 0 -3 -1 0 0 0 0 0 12
11 0 0 3 0 0 0 0 12 | 0 -3 -1 0 0 0 0 0 12
1 0 0 1 0 0 0 0 6 | 0 1 1 0 0 0 0 0 6
5 0 0 1 0 0 0 0 12 | 0 1 -1 0 0 0 0 0 12
-2 0 0 1 0 0 0 0 6 | 0 2 1 0 0 0 0 0 6
1 0 0 1 0 0 0 0 6 | 0 -1 1 0 0 0 0 0 6
5 0 0 1 0 0 0 0 12 | 0 3 5 0 0 0 0 0 12
2 0 0 0 0 0 0 0 3 | 0 1 1 0 0 0 0 0 6
11 0 0 1 0 0 0 0 12 | 0 3 -1 0 0 0 0 0 12
7 0 0 0 0 0 0 0 6 | 0 0 1 0 0 0 0 0 6
5 0 0 1 0 0 0 0 12 | 0 7 5 0 0 0 0 0 12
4 0 0 -1 0 0 0 0 6 | 0 2 1 0 0 0 0 0 6
11 0 0 -1 0 0 0 0 12 | 0 5 -1 0 0 0 0 0 12
3 0 0 1 0 0 0 0 12 | 0 1 1 0 0 0 0 0 12
13 0 0 1 0 0 0 0 12 | 0 1 3 0 0 0 0 0 12
5 0 0 1 0 0 0 0 12 | 0 9 -1 0 0 0 0 0 12
1 0 0 0 0 0 0 0 6 | 0 4 1 0 0 0 0 0 6
5 0 0 -3 0 0 0 0 12 | 0 5 -1 0 0 0 0 0 12
0 0 0 0 0 0 0 0 1 | 0 1 -1 0 0 0 0 0 6
5 0 0 0 0 0 0 0 6 | 0 1 0 0 0 0 0 0 6
-1 0 0 0 0 0 0 0 3 | 0 0 -1 0 0 0 0 0 3
4 0 0 1 0 0 0 0 6 | 0 -1 -2 0 0 0 0 0 6
-1 0 0 1 0 0 0 0 12 | 0 3 -1 0 0 0 0 0 12
1 0 0 0 0 0 0 0 6 | 0 1 -2 0 0 0 0 0 6
17 0 0 -1 0 0 0 0 12 | 0 3 -1 0 0 0 0 0 12
-5 0 0 1 0 0 0 0 6 | 0 3 1 0 0 0 0 0 6
-5 0 0 0 0 0 0 0 6 | 0 2 1 0 0 0 0 0 6
-7 0 0 -1 0 0 0 0 12 | 0 3 -1 0 0 0 0 0 12
-1 0 0 0 0 0 0 0 3 | 0 1 -1 0 0 0 0 0 3
3 0 0 1 0 0 0 0 12 | 0 5 1 0 0 0 0 0 12
-1 0 0 1 0 0 0 0 6 | 0 0 0 0 0 0 0 0 1
-7 0 0 1 0 0 0 0 12 | 0 -7 -1 0 0 0 0 0 12
-1 0 0 3 0 0 0 0 12 | 0 1 -1 0 0 0 0 0 12
-2 0 0 1 0 0 0 0 6 | 0 0 1 0 0 0 0 0 6
-1 0 0 0 0 0 0 0 3 | 0 -1 1 0 0 0 0 0 6
1 0 0 0 0 0 0 0 6 | 0 -1 -2 0 0 0 0 0 6
9 0 0 1 0 0 0 0 12 | 0 -1 1 0 0 0 0 0 12
4 0 0 1 0 0 0 0 6 | 0 0 1 0 0 0 0 0 6
11 0 0 -1 0 0 0 0 12 | 0 -3 -1 0 0 0 0 0 12
7 0 0 0 0 0 0 0 6 | 0 -1 -2 0 0 0 0 0 6
4 0 0 0 0 0 0 0 3 | 0 1 0 0 0 0 0 0 3
1 0 0 0 0 0 0 0 2 | 0 2 -1 0 0 0 0 0 6
1 0 0 -1 0 0 0 0 6 | 0 1 1 0 0 0 0 0 6
-3 0 0 1 0 0 0 0 12 | 0 -1 1 0 0 0 0 0 12
4 0 0 -1 0 0 0 0 6 | 0 1 -2 0 0 0 0 0 6
0 0 0 0 0 0 0 0 1 | 0 -1 -1 0 0 0 0 0 6
-5 0 0 1 0 0 0 0 6 | 0 0 -1 0 0 0 0 0 3
-5 0 0 0 0 0 0 0 6 | 0 4 1 0 0 0 0 0 6
-15 0 0 -1 0 0 0 0 12 | 0 7 3 0 0 0 0 0 12
-9 0 0 1 0 0 0 0 6 | 0 1 0 0 0 0 0 0 3
-15 0 0 -1 0 0 0 0 12 | 0 1 1 0 0 0 0 0 4
-4 0 0 1 0 0 0 0 6 | 0 -1 2 0 0 0 0 0 6
1 0 0 1 0 0 0 0 12 | 0 3 1 0 0 0 0 0 12
-2 0 0 0 0 0 0 0 3 | 0 0 1 0 0 0 0 0 3
-1 0 0 -1 0 0 0 0 6 | 0 1 1 0 0 0 0 0 3
-7 0 0 1 0 0 0 0 12 | 0 1 3 0 0 0 0 0 12
3 0 0 1 0 0 0 0 12 | 0 1 5 0 0 0 0 0 12
-5 0 0 1 0 0 0 0 12 | 0 9 1 0 0 0 0 0 12
-1 0 0 0 0 0 0 0 6 | 0 4 -1 0 0 0 0 0 6
0 0 0 0 0 0 0 0 1 | 0 1 1 0 0 0 0 0 6
-4 0 0 1 0 0 0 0 6 | 0 4 -1 0 0 0 0 0 6
-4 0 0 -1 0 0 0 0 6 | 0 2 -1 0 0 0 0 0 6
-2 0 0 0 0 0 0 0 3 | 0 1 -1 0 0 0 0 0 6
-1 0 0 1 0 0 0 0 4 | 0 -1 -1 0 0 0 0 0 12
2 0 0 1 0 0 0 0 6 | 0 3 2 0 0 0 0 0 6
1 0 0 0 0 0 0 0 3 | 0 1 1 0 0 0 0 0 3
6 0 0 1 0 0 0 0 6 | 0 0 1 0 0 0 0 0 6
-7 0 0 0 0 0 0 0 6 | 0 -1 2 0 0 0 0 0 6
-11 0 0 -1 0 0 0 0 12 | 0 -3 1 0 0 0 0 0 12
-2 0 0 0 0 0 0 0 3 | 0 -1 -1 0 0 0 0 0 6
-1 0 0 0 0 0 0 0 2 | 0 2 1 0 0 0 0 0 6
-1 0 0 0 0 0 0 0 6 | 0 -1 2 0 0 0 0 0 6
1 0 0 -1 0 0 0 0 12 | 0 -3 1 0 0 0 0 0 12
1 0 0 0 0 0 0 0 2 | 0 2 1 0 0 0 0 0 6
-1 0 0 0 0 0 0 0 3 | 0 1 0 0 0 0 0 0 3
-9 0 0 1 0 0 0 0 12 | 0 -1 -1 0 0 0 0 0 12
-2 0 0 1 0 0 0 0 6 | 0 -1 0 0 0 0 0 0 2
3 0 0 1 0 0 0 0 6 | 0 -3 1 0 0 0 0 0 6
-5 0 0 0 0 0 0 0 6 | 0 -1 0 0 0 0 0 0 6
1 0 0 1 0 0 0 0 4 | 0 1 -1 0 0 0 0 0 12
-5 0 0 3 0 0 0 0 12 | 0 -5 1 0 0 0 0 0 12
-17 0 0 1 0 0 0 0 12 | 0 1 1 0 0 0 0 0 12
-9 0 0 -1 0 0 0 0 6 | 0 -1 0 0 0 0 0 0 3
-15 0 0 1 0 0 0 0 12 | 0 -1 1 0 0 0 0 0 4
-3 0 0 0 0 0 0 0 2 | 0 -2 3 0 0 0 0 0 6
-6 0 0 -1 0 0 0 0 6 | 0 -1 0 0 0 0 0 0 2
-1 0 0 0 0 0 0 0 1 | 0 -1 0 0 0 0 0 0 3
-5 0 0 -1 0 0 0 0 12 | 0 -5 5 0 0 0 0 0 12
-5 0 0 0 0 0 0 0 6 | 0 -2 1 0 0 0 0 0 6
-7 0 0 1 0 0 0 0 12 | 0 -3 -1 0 0 0 0 0 12
5 0 0 1 0 0 0 0 12 | 0 -1 5 0 0 0 0 0 12
-2 0 0 -1 0 0 0 0 6 | 0 0 1 0 0 0 0 0 6
-1 0 0 0 0 0 0 0 3 | 0 1 1 0 0 0 0 0 6
-13 0 0 1 0 0 0 0 12 | 0 3 -1 0 0 0 0 0 12
-4 0 0 0 0 0 0 0 3 | 0 1 1 0 0 0 0 0 6
-5 0 0 0 0 0 0 0 6 | 0 1 -2 0 0 0 0 0 6
-3 0 0 -1 0 0 0 0 12 | 0 1 1 0 0 0 0 0 12
-2 0 0 0 0 0 0 0 3 | 0 -1 0 0 0 0 0 0 3
-8 0 0 1 0 0 0 0 6 | 0 0 1 0 0 0 0 0 6
-4 0 0 1 0 0 0 0 6 | 0 -1 0 0 0 0 0 0 2
-1 0 0 1 0 0 0 0 12 | 0 1 5 0 0 0 0 0 12
5 0 0 -1 0 0 0 0 12 | 0 -1 -1 0 0 0 0 0 12
7 0 0 1 0 0 0 0 12 | 0 -5 3 0 0 0 0 0 12
-2 0 0 -1 0 0 0 0 6 | 0 2 1 0 0 0 0 0 6
-9 0 0 1 0 0 0 0 12 | 0 1 1 0 0 0 0 0 12
-13 0 0 1 0 0 0 0 12 | 0 7 -1 0 0 0 0 0 12
-2 0 0 1 0 0 0 0 6 | 0 -2 1 0 0 0 0 0 6
-1 0 0 -1 0 0 0 0 12 | 0 -7 -1 0 0 0 0 0 12
-1 0 0 1 0 0 0 0 12 | 0 -5 -1 0 0 0 0 0 12
5 0 0 1 0 0 0 0 12 | 0 -5 5 0 0 0 0 0 12
6 0 0 -1 0 0 0 0 6 | 0 -5 0 0 0 0 0 0 6
-6 0 0 -1 0 0 0 0 6 | 0 -5 0 0 0 0 0 0 6
0 0 0 0 0 0 0 0 1 | 0 -2 0 0 0 0 0 0 3
-3 0 0 -1 0 0 0 0 12 | 0 -3 1 0 0 0 0 0 4
3 0 0 -1 0 0 0 0 12 | 0 -3 -1 0 0 0 0 0 4
-5 0 0 -3 0 0 0 0 12 | 0 -5 -1 0 0 0 0 0 12
-5 0 0 -1 0 0 0 0 12 | 0 -9 1 0 0 0 0 0 12
-1 0 0 0 0 0 0 0 6 | 0 -4 -1 0 0 0 0 0 6
-1 0 0 1 0 0 0 0 6 | 0 -3 -1 0 0 0 0 0 6
-1 0 0 1 0 0 0 0 6 | 0 -1 1 0 0 0 0 0 3
2 0 0 -1 0 0 0 0 6 | 0 1 2 0 0 0 0 0 6
1 0 0 -3 0 0 0 0 12 | 0 3 1 0 0 0 0 0 12
-4 0 0 1 0 0 0 0 6 | 0 -2 -1 0 0 0 0 0 6
-11 0 0 1 0 0 0 0 12 | 0 -5 1 0 0 0 0 0 12
1 0 0 0 0 0 0 0 3 | 0 -1 1 0 0 0 0 0 3
5 0 0 -1 0 0 0 0 6 | 0 -3 -1 0 0 0 0 0 6
1 0 0 -1 0 0 0 0 6 | 0 0 0 0 0 0 0 0 1
1 0 0 0 0 0 0 0 1 | 0 -5 1 0 0 0 0 0 6
11 0 0 -1 0 0 0 0 12 | 0 1 3 0 0 0 0 0 12
-1 0 0 0 0 0 0 0 3 | 0 -1 0 0 0 0 0 0 3
1 0 0 0 0 0 0 0 2 | 0 -2 1 0 0 0 0 0 6
-4 0 0 -1 0 0 0 0 6 | 0 0 -1 0 0 0 0 0 6
-1 0 0 -1 0 0 0 0 12 | 0 1 3 0 0 0 0 0 12
-1 0 0 0 0 0 0 0 2 | 0 -2 1 0 0 0 0 0 6
-7 0 0 0 0 0 0 0 6 | 0 -2 -1 0 0 0 0 0 6
-2 0 0 0 0 0 0 0 3 | 0 -5 -1 0 0 0 0 0 6
1 0 0 1 0 0 0 0 12 | 0 -9 1 0 0 0 0 0 12
7 0 0 -1 0 0 0 0 12 | 0 -9 1 0 0 0 0 0 12
1 0 0 1 0 0 0 0 6 | 0 -3 1 0 0 0 0 0 6
5 0 0 -1 0 0 0 0 12 | 0 -9 -1 0 0 0 0 0 12
4 0 0 1 0 0 0 0 6 | 0 -3 -2 0 0 0 0 0 6
4 0 0 1 0 0 0 0 6 | 0 -2 1 0 0 0 0 0 6
11 0 0 1 0 0 0 0 12 | 0 -5 -1 0 0 0 0 0 12
7 0 0 -1 0 0 0 0 6 | 0 1 1 0 0 0 0 0 6
4 0 0 -1 0 0 0 0 6 | 0 -1 -2 0 0 0 0 0 6
11 0 0 0 0 0 0 0 6 | 0 -5 0 0 0 0 0 0 6
21 0 0 -1 0 0 0 0 12 | 0 1 1 0 0 0 0 0 12
1 0 0 0 0 0 0 0 2 | 0 -2 -1 0 0 0 0 0 6
4 0 0 0 0 0 0 0 3 | 0 -1 0 0 0 0 0 0 3
9 0 0 -1 0 0 0 0 12 | 0 1 1 0 0 0 0 0 12
-1 0 0 0 0 0 0 0 2 | 0 -2 -1 0 0 0 0 0 6
1 0 0 0 0 0 0 0 3 | 0 -1 0 0 0 0 0 0 3
-1 0 0 0 0 0 0 0 3 | 0 -1 -1 0 0 0 0 0 3
3 0 0 -1 0 0 0 0 12 | 0 -5 1 0 0 0 0 0 12
-1 0 0 0 0 0 0 0 6 | 0 -5 0 0 0 0 0 0 6
-1 0 0 1 0 0 0 0 12 | 0 -9 -1 0 0 0 0 0 12
-1 0 0 0 0 0 0 0 3 | 0 -5 1 0 0 0 0 0 6
9 0 0 -1 0 0 0 0 12 | 0 -11 1 0 0 0 0 0 12
1 0 0 0 0 0 0 0 3 | 0 -4 0 0 0 0 0 0 3
11 0 0 1 0 0 0 0 12 | 0 -9 -1 0 0 0 0 0 12
4 0 0 0 0 0 0 0 3 | 0 -4 0 0 0 0 0 0 3
-3 0 0 2 0 0 0 0 6 | 0 1 0 0 0 0 0 0 6
-1 0 0 1 0 0 0 0 4 | 0 -5 3 0 0 0 0 0 12
0 0 0 1 0 0 0 0 6 | 0 -1 0 0 0 0 0 0 2
-1 0 0 1 0 0 0 0 6 | 0 1 1 0 0 0 0 0 6
-7 0 0 3 0 0 0 0 12 | 0 -3 1 0 0 0 0 0 12
-3 0 0 1 0 0 0 0 4 | 0 1 -1 0 0 0 0 0 4
-5 0 0 1 0 0 0 0 4 | 0 -1 -1 0 0 0 0 0 4
1 0 0 1 0 0 0 0 6 | 0 1 -1 0 0 0 0 0 6
-4 0 0 1 0 0 0 0 6 | 0 1 -2 0 0 0 0 0 6
9 0 0 1 0 0 0 0 12 | 0 -1 1 0 0 0 0 0 4
17 0 0 1 0 0 0 0 12 | 0 3 1 0 0 0 0 0 12
7 0 0 3 0 0 0 0 12 | 0 -7 -1 0 0 0 0 0 12
9 0 0 1 0 0 0 0 12 | 0 1 -1 0 0 0 0 0 4
11 0 0 1 0 0 0 0 12 | 0 9 1 0 0 0 0 0 12
1 0 0 1 0 0 0 0 12 | 0 9 -1 0 0 0 0 0 12
-2 0 0 1 0 0 0 0 6 | 0 2 -1 0 0 0 0 0 6
1 0 0 3 0 0 0 0 12 | 0 -1 -1 0 0 0 0 0 12
-9 0 0 1 0 0 0 0 12 | 0 1 1 0 0 0 0 0 4
-1 0 0 1 0 0 0 0 4 | 0 5 -3 0 0 0 0 0 12
2 0 0 1 0 0 0 0 6 | 0 2 1 0 0 0 0 0 6
-9 0 0 1 0 0 0 0 12 | 0 -1 -1 0 0 0 0 0 4
-3 0 0 1 0 0 0 0 4 | 0 -1 -3 0 0 0 0 0 12
-1 0 0 1 0 0 0 0 6 | 0 -1 1 0 0 0 0 0 6
-7 0 0 1 0 0 0 0 12 | 0 3 1 0 0 0 0 0 12
-17 0 0 1 0 0 0 0 12 | 0 3 -1 0 0 0 0 0 12
-9 0 0 1 0 0 0 0 12 | 0 -3 1 0 0 0 0 0 4
-1 0 0 0 0 0 0 0 2 | 0 -5 0 0 0 0 0 0 6
2 0 0 1 0 0 0 0 6 | 0 -4 1 0 0 0 0 0 6
-1 0 0 1 0 0 0 0 12 | 0 -3 1 0 0 0 0 0 12
-11 0 0 1 0 0 0 0 12 | 0 -3 -1 0 0 0 0 0 12
1 0 0 0 0 0 0 0 2 | 0 -5 0 0 0 0 0 0 6
9 0 0 1 0 0 0 0 12 | 0 -3 -1 0 0 0 0 0 4
11 0 0 1 0 0 0 0 12 | 0 -3 1 0 0 0 0 0 12
1 0 0 1 0 0 0 0 12 | 0 -3 -1 0 0 0 0 0 12
-2 0 0 1 0 0 0 0 6 | 0 -4 -1 0 0 0 0 0 6
-4 0 0 1 0 0 0 0 6 | 0 2 1 0 0 0 0 0 6
-1 0 0 0 0 0 0 0 2 | 0 -2 3 0 0 0 0 0 6
1 0 0 0 0 0 0 0 6 | 0 1 2 0 0 0 0 0 6
-13 0 0 1 0 0 0 0 12 | 0 -3 1 0 0 0 0 0 12
-4 0 0 1 0 0 0 0 6 | 0 -4 1 0 0 0 0 0 6
0 0 0 -1 0 0 0 0 6 | 0 -1 0 0 0 0 0 0 2
5 0 0 0 0 0 0 0 6 | 0 -2 1 0 0 0 0 0 6
5 0 0 -1 0 0 0 0 12 | 0 1 1 0 0 0 0 0 12
-5 0 0 -1 0 0 0 0 12 | 0 1 -1 0 0 0 0 0 12
-5 0 0 0 0 0 0 0 6 | 0 -2 -1 0 0 0 0 0 6
-5 0 0 1 0 0 0 0 12 | 0 -9 -1 0 0 0 0 0 12
5 0 0 1 0 0 0 0 12 | 0 -9 1 0 0 0 0 0 12
13 0 0 1 0 0 0 0 12 | 0 -3 -1 0 0 0 0 0 12
2 0 0 0 0 0 0 0 3 | 0 1 -1 0 0 0 0 0 6
-1 0 0 0 0 0 0 0 6 | 0 1 -2 0 0 0 0 0 6
-7 0 0 1 0 0 0 0 12 | 0 -3 -5 0 0 0 0 0 12
15 0 0 1 0 0 0 0 12 | 0 1 1 0 0 0 0 0 4
-5 0 0 0 0 0 0 0 6 | 0 4 -1 0 0 0 0 0 6
-15 0 0 1 0 0 0 0 12 | 0 1 -1 0 0 0 0 0 4
1 0 0 0 0 0 0 0 2 | 0 -2 3 0 0 0 0 0 6
-1 0 0 0 0 0 0 0 3 | 0 0 1 0 0 0 0 0 3
1 0 0 1 0 0 0 0 12 | 0 -5 5 0 0 0 0 0 12
3 0 0 0 0 0 0 0 2 | 0 -1 0 0 0 0 0 0 6
5 0 0 0 0 0 0 0 6 | 0 2 1 0 0 0 0 0 6
5 0 0 1 0 0 0 0 12 | 0 -1 1 0 0 0 0 0 12
5 0 0 1 0 0 0 0 6 | 0 -3 1 0 0 0 0 0 6
9 0 0 -1 0 0 0 0 12 | 0 1 1 0 0 0 0 0 4
1 0 0 0 0 0 0 0 3 | 0 5 1 0 0 0 0 0 6
-1 0 0 1 0 0 0 0 12 | 0 5 1 0 0 0 0 0 12
2 0 0 1 0 0 0 0 6 | 0 0 1 0 0 0 0 0 6
-13 0 0 1 0 0 0 0 12 | 0 5 1 0 0 0 0 0 12
-4 0 0 1 0 0 0 0 6 | 0 0 1 0 0 0 0 0 6
1 0 0 1 0 0 0 0 6 | 0 0 1 0 0 0 0 0 3
-3 0 0 1 0 0 0 0 4 | 0 1 3 0 0 0 0 0 12
-1 0 0 0 0 0 0 0 3 | 0 1 1 0 0 0 0 0 3
-7 0 0 0 0 0 0 0 6 | 0 2 1 0 0 0 0 0 6
-19 0 0 1 0 0 0 0 12 | 0 -1 1 0 0 0 0 0 12
1 0 0 0 0 0 0 0 6 | 0 -1 2 0 0 0 0 0 6
-2 0 0 0 0 0 0 0 3 | 0 -1 1 0 0 0 0 0 6
-13 0 0 1 0 0 0 0 12 | 0 -7 1 0 0 0 0 0 12
9 0 0 -1 0 0 0 0 12 | 0 -3 1 0 0 0 0 0 4
6 0 0 1 0 0 0 0 6 | 0 -1 0 0 0 0 0 0 2
1 0 0 0 0 0 0 0 3 | 0 -1 1 0 0 0 0 0 6
-1 0 0 1 0 0 0 0 12 | 0 -7 1 0 0 0 0 0 12
-1 0 0 1 0 0 0 0 6 | 0 3 1 0 0 0 0 0 6
0 0 0 -1 0 0 0 0 6 | 0 -2 3 0 0 0 0 0 6
-1 0 0 -1 0 0 0 0 6 | 0 1 1 0 0 0 0 0 6
-7 0 0 -1 0 0 0 0 12 | 0 -3 1 0 0 0 0 0 12
-1 0 0 0 0 0 0 0 6 | 0 -4 1 0 0 0 0 0 6
9 0 0 -1 0 0 0 0 12 | 0 -1 -1 0 0 0 0 0 4
1 0 0 -1 0 0 0 0 12 | 0 3 -1 0 0 0 0 0 12
1 0 0 1 0 0 0 0 12 | 0 -7 -1 0 0 0 0 0 12
11 0 0 1 0 0 0 0 12 | 0 -7 1 0 0 0 0 0 12
3 0 0 1 0 0 0 0 4 | 0 1 -3 0 0 0 0 0 12
11 0 0 1 0 0 0 0 12 | 0 5 1 0 0 0 0 0 12
1 0 0 1 0 0 0 0 12 | 0 5 -1 0 0 0 0 0 12
-2 0 0 1 0 0 0 0 6 | 0 0 -1 0 0 0 0 0 6
3 0 0 -1 0 0 0 0 12 | 0 3 1 0 0 0 0 0 4
-6 0 0 1 0 0 0 0 6 | 0 -1 0 0 0 0 0 0 2
-3 0 0 -1 0 0 0 0 6 | 0 1 3 0 0 0 0 0 6
1 0 0 -1 0 0 0 0 12 | 0 -3 5 0 0 0 0 0 12
3 0 0 -2 0 0 0 0 6 | 0 1 0 0 0 0 0 0 6
-1 0 0 -1 0 0 0 0 6 | 0 -1 1 0 0 0 0 0 6
3 0 0 -1 0 0 0 0 6 | 0 1 1 0 0 0 0 0 2
3 0 0 -1 0 0 0 0 4 | 0 5 3 0 0 0 0 0 12
6 0 0 -1 0 0 0 0 6 | 0 1 0 0 0 0 0 0 2
1 0 0 0 0 0 0 0 1 | 0 2 0 0 0 0 0 0 3
-1 0 0 -1 0 0 0 0 12 | 0 7 1 0 0 0 0 0 12
1 0 0 0 0 0 0 0 3 | 0 1 1 0 0 0 0 0 6
-1 0 0 -1 0 0 0 0 4 | 0 5 3 0 0 0 0 0 12
0 0 0 -1 0 0 0 0 6 | 0 1 0 0 0 0 0 0 2
-13 0 0 -1 0 0 0 0 12 | 0 7 1 0 0 0 0 0 12
-1 0 0 0 0 0 0 0 1 | 0 1 3 0 0 0 0 0 6
-3 0 0 -1 0 0 0 0 4 | 0 -1 3 0 0 0 0 0 12
1 0 0 -1 0 0 0 0 12 | 0 1 5 0 0 0 0 0 12
-7 0 0 0 0 0 0 0 6 | 0 -2 1 0 0 0 0 0 6
-1 0 0 0 0 0 0 0 3 | 0 -1 1 0 0 0 0 0 3
-1 0 0 -1 0 0 0 0 4 | 0 -7 3 0 0 0 0 0 12
1 0 0 -1 0 0 0 0 6 | 0 0 1 0 0 0 0 0 3
-4 0 0 -1 0 0 0 0 6 | 0 0 1 0 0 0 0 0 6
1 0 0 0 0 0 0 0 6 | 0 -5 2 0 0 0 0 0 6
2 0 0 -1 0 0 0 0 6 | 0 0 1 0 0 0 0 0 6
-1 0 0 -1 0 0 0 0 12 | 0 -5 1 0 0 0 0 0 12
-1 0 0 0 0 0 0 0 6 | 0 4 1 0 0 0 0 0 6
4 0 0 1 0 0 0 0 6 | 0 -1 2 0 0 0 0 0 6
-5 0 0 -1 0 0 0 0 12 | 0 7 5 0 0 0 0 0 12
-5 0 0 0 0 0 0 0 6 | 0 1 2 0 0 0 0 0 6
-5 0 0 1 0 0 0 0 12 | 0 -3 5 0 0 0 0 0 12
-7 0 0 -3 0 0 0 0 12 | 0 -1 1 0 0 0 0 0 12
-1 0 0 -1 0 0 0 0 6 | 0 -3 1 0 0 0 0 0 6
1 0 0 -3 0 0 0 0 12 | 0 5 -1 0 0 0 0 0 12
1 0 0 -1 0 0 0 0 12 | 0 -5 -1 0 0 0 0 0 12
11 0 0 -1 0 0 0 0 12 | 0 -5 1 0 0 0 0 0 12
1 0 0 -1 0 0 0 0 12 | 0 7 -1 0 0 0 0 0 12
-1 0 0 0 0 0 0 0 3 | 0 1 -1 0 0 0 0 0 6
-6 0 0 -1 0 0 0 0 6 | 0 1 0 0 0 0 0 0 2
-5 0 0 -3 0 0 0 0 12 | 0 -1 -1 0 0 0 0 0 12
3 0 0 -1 0 0 0 0 4 | 0 1 -1 0 0 0 0 0 4
1 0 0 -1 0 0 0 0 6 | 0 -1 -1 0 0 0 0 0 6
7 0 0 -1 0 0 0 0 12 | 0 -3 -1 0 0 0 0 0 12
17 0 0 -1 0 0 0 0 12 | 0 -3 1 0 0 0 0 0 12
1 0 0 0 0 0 0 0 2 | 0 5 0 0 0 0 0 0 6
1 0 0 -1 0 0 0 0 4 | 0 7 3 0 0 0 0 0 12
-9 0 0 -1 0 0 0 0 12 | 0 3 1 0 0 0 0 0 4
-1 0 0 -1 0 0 0 0 4 | 0 7 -3 0 0 0 0 0 12
-11 0 0 -1 0 0 0 0 12 | 0 3 -1 0 0 0 0 0 12
-3 0 0 -1 0 0 0 0 4 | 0 1 -3 0 0 0 0 0 12
-9 0 0 -1 0 0 0 0 12 | 0 1 -1 0 0 0 0 0 4
-1 0 0 -1 0 0 0 0 4 | 0 -5 -3 0 0 0 0 0 12
2 0 0 -1 0 0 0 0 6 | 0 -2 1 0 0 0 0 0 6
-1 0 0 -1 0 0 0 0 12 | 0 -9 1 0 0 0 0 0 12
1 0 0 -1 0 0 0 0 12 | 0 -9 -1 0 0 0 0 0 12
5 0 0 -1 0 0 0 0 12 | 0 9 1 0 0 0 0 0 12
-5 0 0 0 0 0 0 0 6 | 0 2 -1 0 0 0 0 0 6
-4 0 0 -1 0 0 0 0 6 | 0 -2 1 0 0 0 0 0 6
13 0 0 -1 0 0 0 0 12 | 0 3 -1 0 0 0 0 0 12
-15 0 0 -1 0 0 0 0 12 | 0 -1 -1 0 0 0 0 0 4
-5 0 0 0 0 0 0 0 6 | 0 -4 -1 0 0 0 0 0 6
5 0 0 0 0 0 0 0 6 | 0 -4 1 0 0 0 0 0 6
0 0 0 -1 0 0 0 0 6 | 0 -2 -3 0 0 0 0 0 6
-1 0 0 0 0 0 0 0 2 | 0 2 -3 0 0 0 0 0 6
1 0 0 0 0 0 0 0 3 | 0 0 -1 0 0 0 0 0 3
1 0 0 0 0 0 0 0 1 | 0 1 -3 0 0 0 0 0 6
19 0 0 -1 0 0 0 0 12 | 0 1 -1 0 0 0 0 0 12
7 0 0 0 0 0 0 0 6 | 0 -2 -1 0 0 0 0 0 6
13 0 0 -1 0 0 0 0 12 | 0 7 -1 0 0 0 0 0 12
-9 0 0 1 0 0 0 0 12 | 0 3 -1 0 0 0 0 0 4
-3 0 0 0 0 0 0 0 2 | 0 1 0 0 0 0 0 0 6
-5 0 0 -1 0 0 0 0 6 | 0 3 -1 0 0 0 0 0 6
-1 0 0 0 0 0 0 0 3 | 0 -5 -1 0 0 0 0 0 6
1 0 0 -1 0 0 0 0 4 | 0 -7 -3 0 0 0 0 0 12
13 0 0 -1 0 0 0 0 12 | 0 -5 -1 0 0 0 0 0 12
1 0 0 0 0 0 0 0 6 | 0 4 -1 0 0 0 0 0 6
-11 0 0 -1 0 0 0 0 12 | 0 -5 -1 0 0 0 0 0 12
17 0 0 -1 0 0 0 0 12 | 0 1 1 0 0 0 0 0 12
7 0 0 1 0 0 0 0 12 | 0 -9 -1 0 0 0 0 0 12
2 0 0 1 0 0 0 0 6 | 0 -1 -2 0 0 0 0 0 6
7 0 0 0 0 0 0 0 6 | 0 2 -1 0 0 0 0 0 6
1 0 0 0 0 0 0 0 3 | 0 1 -1 0 0 0 0 0 3
1 0 0 1 0 0 0 0 4 | 0 7 -3 0 0 0 0 0 12
3 0 0 1 0 0 0 0 6 | 0 1 -1 0 0 0 0 0 2
2 0 0 0 0 0 0 0 3 | 0 5 -1 0 0 0 0 0 6
-3 0 0 1 0 0 0 0 6 | 0 1 -1 0 0 0 0 0 2
-1 0 0 0 0 0 0 0 3 | 0 5 -1 0 0 0 0 0 6
-3 0 0 0 0 0 0 0 2 | 0 -1 0 0 0 0 0 0 6
-5 0 0 1 0 0 0 0 6 | 0 -3 -1 0 0 0 0 0 6
-3 0 0 1 0 0 0 0 4 | 0 -5 -3 0 0 0 0 0 12
-9 0 0 -1 0 0 0 0 12 | 0 -3 -1 0 0 0 0 0 4
13 0 0 1 0 0 0 0 12 | 0 -7 -1 0 0 0 0 0 12
1 0 0 1 0 0 0 0 6 | 0 3 -1 0 0 0 0 0 6
-1 0 0 3 0 0 0 0 12 | 0 -5 1 0 0 0 0 0 12
1 0 0 0 0 0 0 0 6 | 0 -4 -1 0 0 0 0 0 6
5 0 0 -1 0 0 0 0 12 | 0 3 -5 0 0 0 0 0 12
17 0 0 1 0 0 0 0 12 | 0 -1 1 0 0 0 0 0 12
7 0 0 -1 0 0 0 0 12 | 0 9 -1 0 0 0 0 0 12
21 0 0 -1 0 0 0 0 12 | 0 -1 3 0 0 0 0 0 12
7 0 0 0 0 0 0 0 6 | 0 0 -1 0 0 0 0 0 6
15 0 0 1 0 0 0 0 12 | 0 7 3 0 0 0 0 0 12
23 0 0 1 0 0 0 0 12 | 0 1 1 0 0 0 0 0 12
9 0 0 1 0 0 0 0 6 | 0 -1 0 0 0 0 0 0 3
15 0 0 -1 0 0 0 0 12 | 0 -7 3 0 0 0 0 0 12
7 0 0 1 0 0 0 0 12 | 0 7 -1 0 0 0 0 0 12
2 0 0 1 0 0 0 0 6 | 0 -2 1 0 0 0 0 0 6
2 0 0 -1 0 0 0 0 6 | 0 2 1 0 0 0 0 0 6
7 0 0 0 0 0 0 0 6 | 0 -3 2 0 0 0 0 0 6
7 0 0 -1 0 0 0 0 12 | 0 -7 -1 0 0 0 0 0 12
5 0 0 1 0 0 0 0 12 | 0 1 -5 0 0 0 0 0 12
6 0 0 -1 0 0 0 0 6 | 0 5 0 0 0 0 0 0 6
-2 0 0 0 0 0 0 0 3 | 0 0 -1 0 0 0 0 0 3
1 0 0 3 0 0 0 0 12 | 0 3 -1 0 0 0 0 0 12
-7 0 0 1 0 0 0 0 12 | 0 7 1 0 0 0 0 0 12
2 0 0 0 0 0 0 0 3 | 0 0 1 0 0 0 0 0 3
-2 0 0 1 0 0 0 0 6 | 0 -2 -1 0 0 0 0 0 6
-9 0 0 -1 0 0 0 0 6 | 0 1 0 0 0 0 0 0 3
-11 0 0 3 0 0 0 0 12 | 0 3 -1 0 0 0 0 0 12
-1 0 0 3 0 0 0 0 12 | 0 3 1 0 0 0 0 0 12
-2 0 0 1 0 0 0 0 6 | 0 1 2 0 0 0 0 0 6
-21 0 0 1 0 0 0 0 12 | 0 1 -3 0 0 0 0 0 12
-9 0 0 1 0 0 0 0 6 | 0 -1 0 0 0 0 0 0 3
-15 0 0 -1 0 0 0 0 12 | 0 -7 -3 0 0 0 0 0 12
-5 0 0 0 0 0 0 0 6 | 0 3 2 0 0 0 0 0 6
-7 0 0 -1 0 0 0 0 12 | 0 -7 1 0 0 0 0 0 12
-1 0 0 1 0 0 0 0 6 | 0 -5 1 0 0 0 0 0 6
-1 0 0 0 0 0 0 0 6 | 0 -6 1 0 0 0 0 0 6
-3 0 0 1 0 0 0 0 12 | 0 -11 3 0 0 0 0 0 12
3 0 0 1 0 0 0 0 12 | 0 -11 -3 0 0 0 0 0 12
-2 0 0 -1 0 0 0 0 6 | 0 -1 2 0 0 0 0 0 6
13 0 0 1 0 0 0 0 12 | 0 -5 5 0 0 0 0 0 12
595 0 0 0 0 0 3 0 768 | 0 0 -119 0 15 0 0 0 768
595 0 0 119 0 -15 3 0 1536 | 0 595 -119 0 15 0 0 3 1536
-595 0 0 119 0 -15 -3 0 1536 | 0 595 119 0 -15 0 0 3 1536
-595 0 0 0 0 0 -3 0 768 | 0 0 119 0 -15 0 0 0 768
-595 0 0 -119 0 15 -3 0 1536 | 0 -595 119 0 -15 0 0 -3 1536
595 0 0 -119 0 15 3 0 1536 | 0 -595 -119 0 15 0 0 -3 1536
0 0 0 -119 0 -3 0 0 768 | 0 119 0 0 0 0 0 -3 768
-357 0 0 -119 0 -3 9 0 1536 | 0 119 -357 0 -9 0 0 -3 1536
-357 0 0 119 0 3 9 0 1536 | 0 -119 -357 0 -9 0 0 3 1536
119 0 0 0 0 0 0 0 128 | 0 0 0 0 3 0 0 0 128
119 0 0 0 0 -3 0 0 256 | 0 119 0 0 3 0 0 0 256
0 0 0 119 0 -3 0 0 768 | 0 119 0 0 0 0 0 3 768
-357 0 0 119 0 -3 -9 0 1536 | 0 119 357 0 -9 0 0 3 1536
-357 0 0 -119 0 3 -9 0 1536 | 0 -119 357 0 -9 0 0 -3 1536
357 0 0 -119 0 3 9 0 1536 | 0 -119 -357 0 9 0 0 -3 1536
357 0 0 119 0 -3 9 0 1536 | 0 119 -357 0 9 0 0 3 1536
595 0 0 0 0 0 -3 0 768 | 0 0 119 0 15 0 0 0 768
595 0 0 -119 0 -15 -3 0 1536 | 0 595 119 0 15 0 0 -3 1536
-595 0 0 -119 0 -15 3 0 1536 | 0 595 -119 0 -15 0 0 -3 1536
-595 0 0 0 0 0 3 0 768 | 0 0 -119 0 -15 0 0 0 768
-595 0 0 119 0 15 3 0 1536 | 0 -595 -119 0 -15 0 0 3 1536
595 0 0 119 0 15 -3 0 1536 | 0 -595 119 0 15 0 0 3 1536
1785 0 0 -119 0 15 9 0 1536 | 0 -595 -357 0 45 0 0 -3 1536
595 0 0 119 0 3 3 0 768 | 0 -119 -119 0 15 0 0 3 768
1547 0 0 -119 0 -3 -3 0 1536 | 0 119 119 0 39 0 0 -3 1536
833 0 0 -119 0 -3 15 0 1536 | 0 119 -595 0 21 0 0 -3 1536
1309 0 0 0 0 0 3 0 768 | 0 0 -119 0 33 0 0 0 768
-119 0 0 0 0 0 3 0 768 | 0 0 -119 0 -3 0 0 0 768
238 0 0 0 0 9 3 0 768 | 0 -357 -119 0 6 0 0 0 768
952 0 0 0 0 9 3 0 768 | 0 -357 -119 0 24 0 0 0 768
595 0 0 119 0 -3 3 0 768 | 0 119 -119 0 15 0 0 3 768
833 0 0 119 0 -3 -3 0 1536 | 0 119 119 0 21 0 0 3 1536
833 0 0 -119 0 3 -3 0 1536 | 0 -119 119 0 21 0 0 -3 1536
595 0 0 -119 0 3 3 0 768 | 0 -119 -119 0 15 0 0 -3 768
595 0 0 0 0 0 0 0 384 | 0 0 0 0 5 0 0 0 128
0 0 0 0 0 0 1 0 128 | 0 0 -119 0 0 0 0 0 384
595 0 0 119 0 15 9 0 1536 | 0 -595 -357 0 15 0 0 3 1536
476 0 0 0 0 -9 -3 0 768 | 0 357 119 0 12 0 0 0 768
595 0 0 -119 0 -21 3 0 1536 | 0 833 -119 0 15 0 0 -3 1536
119 0 0 119 0 -6 6 0 768 | 0 238 -238 0 3 0 0 3 768
2023 0 0 119 0 -15 3 0 1536 | 0 595 -119 0 51 0 0 3 1536
-833 0 0 119 0 -15 3 0 1536 | 0 595 -119 0 -21 0 0 3 1536
-119 0 0 119 0 3 3 0 1536 | 0 -119 -119 0 -3 0 0 3 1536
1309 0 0 119 0 3 3 0 1536 | 0 -119 -119 0 33 0 0 3 1536
119 0 0 0 0 -6 -3 0 768 | 0 238 119 0 3 0 0 0 768
595 0 0 -119 0 -9 3 0 1536 | 0 357 -119 0 15 0 0 -3 1536
238 0 0 0 0 -3 3 0 384 | 0 119 -119 0 6 0 0 0 384
0 0 0 119 0 0 3 0 768 | 0 0 -119 0 0 0 0 3 768
595 0 0 119 0 0 0 0 768 | 0 0 0 0 5 0 0 1 256
-1785 0 0 119 0 -15 -9 0 1536 | 0 595 357 0 -45 0 0 3 1536
-119 0 0 119 0 -6 -6 0 768 | 0 238 238 0 -3 0 0 3 768
-1309 0 0 119 0 3 -3 0 1536 | 0 -119 119 0 -33 0 0 3 1536
119 0 0 119 0 3 -3 0 1536 | 0 -119 119 0 3 0 0 3 1536
-238 0 0 0 0 -3 -3 0 384 | 0 119 119 0 -6 0 0 0 384
-595 0 0 -119 0 -9 -3 0 1536 | 0 357 119 0 -15 0 0 -3 1536
-119 0 0 0 0 -6 3 0 768 | 0 238 -119 0 -3 0 0 0 768
-119 0 0 119 0 -9 3 0 768 | 0 357 -119 0 -3 0 0 3 768
595 0 0 119 0 -15 -9 0 1536 | 0 595 357 0 15 0 0 3 1536
0 0 0 119 0 0 -3 0 768 | 0 0 119 0 0 0 0 3 768
-595 0 0 119 0 3 -3 0 768 | 0 -119 119 0 -15 0 0 3 768
-833 0 0 119 0 3 -15 0 1536 | 0 -119 595 0 -21 0 0 3 1536
-1547 0 0 119 0 3 3 0 1536 | 0 -119 -119 0 -39 0 0 3 1536
119 0 0 0 0 0 -3 0 768 | 0 0 119 0 3 0 0 0 768
-238 0 0 0 0 9 -3 0 768 | 0 -357 119 0 -6 0 0 0 768
-595 0 0 119 0 -3 -3 0 768 | 0 119 119 0 -15 0 0 3 768
-833 0 0 -119 0 3 3 0 1536 | 0 -119 -119 0 -21 0 0 -3 1536
-833 0 0 119 0 -3 3 0 1536 | 0 119 -119 0 -21 0 0 3 1536
0 0 0 0 0 0 -1 0 128 | 0 0 119 0 0 0 0 0 384
-119 0 0 0 0 9 -6 0 768 | 0 -357 238 0 -3 0 0 0 768
-476 0 0 -119 0 6 3 0 768 | 0 -238 -119 0 -12 0 0 -3 768
-476 0 0 0 0 9 3 0 768 | 0 -357 -119 0 -12 0 0 0 768
119 0 0 -119 0 -3 -3 0 1536 | 0 119 119 0 3 0 0 -3 1536
-1309 0 0 -119 0 -3 -3 0 1536 | 0 119 119 0 -33 0 0 -3 1536
-595 0 0 119 0 9 -3 0 1536 | 0 -357 119 0 -15 0 0 3 1536
-119 0 0 -119 0 9 3 0 768 | 0 -357 -119 0 -3 0 0 -3 768
-119 0 0 0 0 6 3 0 768 | 0 -238 -119 0 -3 0 0 0 768
595 0 0 -119 0 15 -9 0 1536 | 0 -595 357 0 15 0 0 -3 1536
0 0 0 0 0 5 -1 0 256 | 0 -595 119 0 0 0 0 0 768
595 0 0 119 0 21 3 0 1536 | 0 -833 -119 0 15 0 0 3 1536
476 0 0 0 0 9 -3 0 768 | 0 -357 119 0 12 0 0 0 768
476 0 0 -119 0 6 -3 0 768 | 0 -238 119 0 12 0 0 -3 768
595 0 0 -357 0 9 3 0 1536 | 0 -357 -119 0 15 0 0 -9 1536
119 0 0 0 0 9 6 0 768 | 0 -357 -238 0 3 0 0 0 768
2023 0 0 -119 0 15 3 0 1536 | 0 -595 -119 0 51 0 0 -3 1536
1309 0 0 -119 0 -3 3 0 1536 | 0 119 -119 0 33 0 0 -3 1536
-119 0 0 -119 0 -3 3 0 1536 | 0 119 -119 0 -3 0 0 -3 1536
-833 0 0 -119 0 15 3 0 1536 | 0 -595 -119 0 -21 0 0 -3 1536
1309 0 0 -119 0 33 3 0 1536 | 0 -1309 -119 0 33 0 0 -3 1536
595 0 0 119 0 9 3 0 1536 | 0 -357 -119 0 15 0 0 3 1536
119 0 0 0 0 6 -3 0 768 | 0 -238 119 0 3 0 0 0 768
119 0 0 -119 0 9 -3 0 768 | 0 -357 119 0 3 0 0 -3 768
238 0 0 0 0 3 3 0 384 | 0 -119 -119 0 6 0 0 0 384
1785 0 0 -119 0 15 -3 0 1536 | 0 -595 119 0 45 0 0 -3 1536
0 0 0 -119 0 0 3 0 768 | 0 0 -119 0 0 0 0 -3 768
595 0 0 0 0 15 0 0 768 | 0 -595 0 0 15 0 0 0 768
119 0 0 119 0 3 -3 0 512 | 0 -119 119 0 3 0 0 3 512
-119 0 0 119 0 3 3 0 512 | 0 -119 -119 0 -3 0 0 3 512
357 0 0 119 0 -6 0 0 768 | 0 238 0 0 9 0 0 3 768
-357 0 0 119 0 -6 0 0 768 | 0 238 0 0 -9 0 0 3 768
-714 0 0 119 0 3 0 0 768 | 0 -119 0 0 -18 0 0 3 768
357 0 0 119 0 12 0 0 768 | 0 -476 0 0 9 0 0 3 768
-357 0 0 119 0 9 -9 0 1536 | 0 -119 119 0 -3 0 0 1 512
357 0 0 119 0 9 9 0 1536 | 0 -119 -119 0 3 0 0 1 512
119 0 0 119 0 1 3 0 512 | 0 -119 -357 0 9 0 0 9 1536
595 0 0 119 0 -9 -3 0 1536 | 0 357 119 0 15 0 0 3 1536
-595 0 0 119 0 -9 3 0 1536 | 0 357 -119 0 -15 0 0 3 1536
-595 0 0 119 0 3 3 0 768 | 0 -119 -119 0 -15 0 0 3 768
1785 0 0 119 0 3 -9 0 1536 | 0 -119 357 0 45 0 0 3 1536
1071 0 0 119 0 -15 -9 0 1536 | 0 595 357 0 27 0 0 3 1536
-357 0 0 119 0 -15 -9 0 1536 | 0 595 357 0 -9 0 0 3 1536
-1071 0 0 119 0 3 -9 0 1536 | 0 -119 357 0 -27 0 0 3 1536
-357 0 0 119 0 21 -9 0 1536 | 0 -833 357 0 -9 0 0 3 1536
1071 0 0 119 0 21 -9 0 1536 | 0 -833 357 0 27 0 0 3 1536
0 0 0 0 0 1 -3 0 256 | 0 -119 357 0 0 0 0 0 768
357 0 0 -119 0 9 -9 0 1536 | 0 -119 119 0 3 0 0 -1 512
119 0 0 0 0 1 0 0 256 | 0 -119 0 0 9 0 0 0 768
238 0 0 0 0 -3 -3 0 384 | 0 119 119 0 6 0 0 0 384
-833 0 0 119 0 3 -3 0 1536 | 0 -119 119 0 -21 0 0 3 1536
-119 0 0 119 0 9 -3 0 768 | 0 -357 119 0 -3 0 0 3 768
119 0 0 -119 0 -3 -3 0 512 | 0 119 119 0 3 0 0 -3 512
1785 0 0 -119 0 -3 -9 0 1536 | 0 119 357 0 45 0 0 -3 1536
1071 0 0 -119 0 -21 -9 0 1536 | 0 833 357 0 27 0 0 -3 1536
-357 0 0 -119 0 15 -9 0 1536 | 0 -595 357 0 -9 0 0 -3 1536
1071 0 0 -119 0 15 -9 0 1536 | 0 -595 357 0 27 0 0 -3 1536
357 0 0 119 0 -9 -9 0 1536 | 0 119 119 0 3 0 0 1 512
0 0 0 -119 0 0 -9 0 768 | 0 0 119 0 0 0 0 -1 256
119 0 0 -119 0 1 -3 0 512 | 0 -119 357 0 9 0 0 -9 1536
357 0 0 -119 0 0 0 0 768 | 0 0 0 0 3 0 0 -1 256
119 0 0 0 0 -1 0 0 256 | 0 119 0 0 9 0 0 0 768
-119 0 0 -119 0 -9 -3 0 768 | 0 357 119 0 -3 0 0 -3 768
-833 0 0 -119 0 -3 -3 0 1536 | 0 119 119 0 -21 0 0 -3 1536
-119 0 0 0 0 6 -3 0 768 | 0 -238 119 0 -3 0 0 0 768
238 0 0 0 0 3 -3 0 384 | 0 -119 119 0 6 0 0 0 384
-357 0 0 -119 0 -12 0 0 768 | 0 476 0 0 -9 0 0 -3 768
-714 0 0 -119 0 -3 0 0 768 | 0 119 0 0 -18 0 0 -3 768
-357 0 0 -119 0 6 0 0 768 | 0 -238 0 0 -9 0 0 -3 768
357 0 0 -119 0 6 0 0 768 | 0 -238 0 0 9 0 0 -3 768
0 0 0 0 0 -1 0 0 128 | 0 119 0 0 0 0 0 0 384
-119 0 0 -119 0 -1 -3 0 512 | 0 119 357 0 -9 0 0 -9 1536
357 0 0 -119 0 -9 9 0 1536 | 0 119 -119 0 3 0 0 -1 512
595 0 0 -119 0 -3 -3 0 768 | 0 119 119 0 15 0 0 -3 768
-595 0 0 -119 0 -3 3 0 768 | 0 119 -119 0 -15 0 0 -3 768
-595 0 0 -119 0 9 3 0 1536 | 0 -357 -119 0 -15 0 0 -3 1536
595 0 0 -119 0 9 -3 0 1536 | 0 -357 119 0 15 0 0 -3 1536
-119 0 0 0 0 0 3 0 256 | 0 0 -119 0 -3 0 0 0 256
1071 0 0 -119 0 -3 9 0 1536 | 0 119 -357 0 27 0 0 -3 1536
357 0 0 -119 0 -21 9 0 1536 | 0 833 -357 0 9 0 0 -3 1536
-1071 0 0 -119 0 15 9 0 1536 | 0 -595 -357 0 -27 0 0 -3 1536
-357 0 0 119 0 -9 9 0 1536 | 0 119 -119 0 -3 0 0 1 512
-119 0 0 0 0 -1 0 0 256 | 0 119 0 0 -9 0 0 0 768
-357 0 0 -119 0 0 0 0 768 | 0 0 0 0 -3 0 0 -1 256
-119 0 0 -119 0 1 3 0 512 | 0 -119 -357 0 -9 0 0 -9 1536
0 0 0 -119 0 0 9 0 768 | 0 0 -119 0 0 0 0 -1 256
0 0 0 0 0 -1 3 0 256 | 0 119 -357 0 0 0 0 0 768
833 0 0 -119 0 -3 3 0 1536 | 0 119 -119 0 21 0 0 -3 1536
119 0 0 -119 0 -9 3 0 768 | 0 357 -119 0 3 0 0 -3 768
119 0 0 0 0 6 3 0 768 | 0 -238 -119 0 3 0 0 0 768
1071 0 0 119 0 3 9 0 1536 | 0 -119 -357 0 27 0 0 3 1536
357 0 0 119 0 -15 9 0 1536 | 0 595 -357 0 9 0 0 3 1536
-1071 0 0 119 0 -15 9 0 1536 | 0 595 -357 0 -27 0 0 3 1536
-1785 0 0 119 0 3 9 0 1536 | 0 -119 -357 0 -45 0 0 3 1536
357 0 0 119 0 21 9 0 1536 | 0 -833 -357 0 9 0 0 3 1536
-119 0 0 119 0 -1 3 0 512 | 0 119 -357 0 -9 0 0 9 1536
-357 0 0 119 0 0 0 0 768 | 0 0 0 0 -3 0 0 1 256
-119 0 0 0 0 1 0 0 256 | 0 -119 0 0 -9 0 0 0 768
-357 0 0 -119 0 9 9 0 1536 | 0 -119 -119 0 -3 0 0 -1 512
0 0 0 0 0 1 3 0 256 | 0 -119 -357 0 0 0 0 0 768
833 0 0 119 0 3 3 0 1536 | 0 -119 -119 0 21 0 0 3 1536
119 0 0 0 0 -6 3 0 768 | 0 238 -119 0 3 0 0 0 768
119 0 0 119 0 9 3 0 768 | 0 -357 -119 0 3 0 0 3 768
1785 0 0 -119 0 3 9 0 1536 | 0 -119 -357 0 45 0 0 -3 1536
1785 0 0 119 0 -3 9 0 1536 | 0 119 -357 0 45 0 0 3 1536
833 0 0 -119 0 -15 3 0 1536 | 0 595 -119 0 21 0 0 -3 1536
119 0 0 0 0 0 3 0 768 | 0 0 -119 0 3 0 0 0 768
833 0 0 119 0 15 3 0 1536 | 0 -595 -119 0 21 0 0 3 1536
2023 0 0 119 0 15 -3 0 1536 | 0 -595 119 0 51 0 0 3 1536
357 0 0 119 0 -12 0 0 768 | 0 476 0 0 9 0 0 3 768
357 0 0 119 0 -21 -9 0 1536 | 0 833 357 0 9 0 0 3 1536
357 0 0 -119 0 -15 -9 0 1536 | 0 595 357 0 9 0 0 -3 1536
1071 0 0 -119 0 -15 9 0 1536 | 0 595 -357 0 27 0 0 -3 1536
1071 0 0 119 0 -21 9 0 1536 | 0 833 -357 0 27 0 0 3 1536
-238 0 0 0 0 -9 3 0 768 | 0 357 -119 0 -6 0 0 0 768
119 0 0 119 0 -3 3 0 1536 | 0 119 -119 0 3 0 0 3 1536
1309 0 0 119 0 -3 -3 0 1536 | 0 119 119 0 33 0 0 3 1536
-357 0 0 0 0 -3 0 0 256 | 0 119 0 0 -9 0 0 0 256
-1071 0 0 -119 0 -15 -9 0 1536 | 0 595 357 0 -27 0 0 -3 1536
-357 0 0 -119 0 -6 0 0 768 | 0 238 0 0 -9 0 0 -3 768
-357 0 0 -119 0 -15 9 0 1536 | 0 595 -357 0 -9 0 0 -3 1536
-357 0 0 119 0 -21 9 0 1536 | 0 833 -357 0 -9 0 0 3 1536
-1309 0 0 119 0 -3 3 0 1536 | 0 119 -119 0 -33 0 0 3 1536
-119 0 0 119 0 -3 -3 0 1536 | 0 119 119 0 -3 0 0 3 1536
-357 0 0 0 0 3 0 0 256 | 0 -119 0 0 -9 0 0 0 256
-714 0 0 119 0 -3 0 0 768 | 0 119 0 0 -18 0 0 3 768
-1785 0 0 119 0 -3 -9 0 1536 | 0 119 357 0 -45 0 0 3 1536
-1785 0 0 -119 0 3 -9 0 1536 | 0 -119 357 0 -45 0 0 -3 1536
-1071 0 0 -119 0 3 9 0 1536 | 0 -119 -357 0 -27 0 0 -3 1536
-1071 0 0 119 0 -3 9 0 1536 | 0 119 -357 0 -27 0 0 3 1536
-119 0 0 0 0 0 -3 0 768 | 0 0 119 0 -3 0 0 0 768
-833 0 0 119 0 15 -3 0 1536 | 0 -595 119 0 -21 0 0 3 1536
0 0 0 0 0 3 0 0 128 | 0 -119 0 0 0 0 0 0 128
-357 0 0 119 0 6 0 0 768 | 0 -238 0 0 -9 0 0 3 768
-1071 0 0 119 0 15 -9 0 1536 | 0 -595 357 0 -27 0 0 3 1536
-1071 0 0 -119 0 21 -9 0 1536 | 0 -833 357 0 -27 0 0 -3 1536
-357 0 0 -119 0 21 9 0 1536 | 0 -833 -357 0 -9 0 0 -3 1536
-357 0 0 119 0 15 9 0 1536 | 0 -595 -357 0 -9 0 0 3 1536
238 0 0 0 0 9 -3 0 768 | 0 -357 119 0 6 0 0 0 768
-119 0 0 -119 0 3 -3 0 1536 | 0 -119 119 0 -3 0 0 -3 1536
-1309 0 0 -119 0 3 3 0 1536 | 0 -119 -119 0 -33 0 0 -3 1536
119 0 0 0 0 3 0 0 128 | 0 -119 0 0 3 0 0 0 128
357 0 0 119 0 6 0 0 768 | 0 -238 0 0 9 0 0 3 768
357 0 0 -119 0 21 -9 0 1536 | 0 -833 357 0 9 0 0 -3 1536
357 0 0 -119 0 12 0 0 768 | 0 -476 0 0 9 0 0 -3 768
1071 0 0 -119 0 21 9 0 1536 | 0 -833 -357 0 27 0 0 -3 1536
1071 0 0 119 0 15 9 0 1536 | 0 -595 -357 0 27 0 0 3 1536
952 0 0 0 0 9 -3 0 768 | 0 -357 119 0 24 0 0 0 768
119 0 0 -119 0 3 3 0 1536 | 0 -119 -119 0 3 0 0 -3 1536
-238 0 0 0 0 9 3 0 768 | 0 -357 -119 0 -6 0 0 0 768
-119 0 0 119 0 -3 -3 0 512 | 0 119 119 0 -3 0 0 3 512
119 0 0 119 0 -3 3 0 512 | 0 119 -119 0 3 0 0 3 512
595 0 0 119 0 -3 -3 0 768 | 0 119 119 0 15 0 0 3 768
-595 0 0 119 0 -21 3 0 1536 | 0 833 -119 0 -15 0 0 3 1536
-357 0 0 119 0 -3 -9 0 768 | 0 119 357 0 -9 0 0 3 768
-119 0 0 0 0 0 -3 0 256 | 0 0 119 0 -3 0 0 0 256
119 0 0 0 0 -9 -6 0 768 | 0 357 238 0 3 0 0 0 768
-476 0 0 0 0 -9 -3 0 768 | 0 357 119 0 -12 0 0 0 768
-1547 0 0 119 0 -3 -3 0 1536 | 0 119 119 0 -39 0 0 3 1536
-476 0 0 119 0 6 -3 0 768 | 0 -238 119 0 -12 0 0 3 768
119 0 0 119 0 6 -6 0 768 | 0 -238 238 0 3 0 0 3 768
-357 0 0 -119 0 3 -9 0 768 | 0 -119 357 0 -9 0 0 -3 768
-119 0 0 -119 0 3 -3 0 512 | 0 -119 119 0 -3 0 0 -3 512
833 0 0 -119 0 3 -15 0 1536 | 0 -119 595 0 21 0 0 -3 1536
119 0 0 -119 0 -6 -6 0 768 | 0 238 238 0 3 0 0 -3 768
-476 0 0 -119 0 -6 -3 0 768 | 0 238 119 0 -12 0 0 -3 768
-1547 0 0 -119 0 3 -3 0 1536 | 0 -119 119 0 -39 0 0 -3 1536
119 0 0 0 0 9 -6 0 768 | 0 -357 238 0 3 0 0 0 768
0 0 0 -119 0 3 0 0 384 | 0 -119 0 0 0 0 0 -3 384
595 0 0 -119 0 3 -3 0 768 | 0 -119 119 0 15 0 0 -3 768
595 0 0 -119 0 21 -3 0 1536 | 0 -833 119 0 15 0 0 -3 1536
119 0 0 0 0 0 3 0 256 | 0 0 -119 0 3 0 0 0 256
1547 0 0 -119 0 3 3 0 1536 | 0 -119 -119 0 39 0 0 -3 1536
476 0 0 -119 0 -6 3 0 768 | 0 238 -119 0 12 0 0 -3 768
-119 0 0 0 0 9 6 0 768 | 0 -357 -238 0 -3 0 0 0 768
476 0 0 0 0 9 3 0 768 | 0 -357 -119 0 12 0 0 0 768
476 0 0 119 0 6 3 0 768 | 0 -238 -119 0 12 0 0 3 768
1785 0 0 -119 0 -15 -9 0 1536 | 0 595 357 0 45 0 0 -3 1536
1785 0 0 119 0 15 -9 0 1536 | 0 -595 357 0 45 0 0 3 1536
595 0 0 -119 0 -15 -3 0 768 | 0 595 119 0 15 0 0 -3 768
-1785 0 0 119 0 15 9 0 1536 | 0 -595 -357 0 -45 0 0 3 1536
2023 0 0 119 0 -3 3 0 1536 | 0 119 -119 0 51 0 0 3 1536
2023 0 0 -119 0 3 3 0 1536 | 0 -119 -119 0 51 0 0 -3 1536
1785 0 0 -119 0 -21 9 0 1536 | 0 833 -357 0 45 0 0 -3 1536
238 0 0 0 0 -3 3 0 256 | 0 119 -119 0 6 0 0 0 256
2499 0 0 119 0 3 9 0 1536 | 0 -119 -357 0 63 0 0 3 1536
714 0 0 119 0 -9 0 0 768 | 0 119 0 0 6 0 0 1 256
119 0 0 0 0 -1 0 0 128 | 0 119 0 0 9 0 0 0 384
1785 0 0 -119 0 -9 9 0 1536 | 0 119 -119 0 15 0 0 -1 512
1785 0 0 119 0 21 9 0 1536 | 0 -833 -357 0 45 0 0 3 1536
1071 0 0 -119 0 6 0 0 768 | 0 -238 0 0 27 0 0 -3 768
595 0 0 -119 0 3 3 0 512 | 0 -119 -119 0 15 0 0 -3 512
714 0 0 -119 0 6 9 0 768 | 0 -238 -357 0 18 0 0 -3 768
2499 0 0 -119 0 -3 9 0 1536 | 0 119 -357 0 63 0 0 -3 1536
119 0 0 0 0 1 0 0 128 | 0 -119 0 0 9 0 0 0 384
714 0 0 -119 0 9 0 0 768 | 0 -119 0 0 6 0 0 -1 256
595 0 0 -119 0 15 15 0 1536 | 0 -595 -595 0 15 0 0 -3 1536
238 0 0 119 0 -6 3 0 768 | 0 238 -119 0 6 0 0 3 768
-119 0 0 119 0 3 3 0 768 | 0 -119 -119 0 -3 0 0 3 768
833 0 0 119 0 9 -3 0 1536 | 0 -357 119 0 21 0 0 3 1536
833 0 0 119 0 21 -3 0 1536 | 0 -833 119 0 21 0 0 3 1536
1547 0 0 357 0 -3 -3 0 1536 | 0 119 119 0 39 0 0 9 1536
595 0 0 119 0 0 -6 0 768 | 0 0 238 0 15 0 0 3 768
1547 0 0 -119 0 9 -3 0 1536 | 0 -357 119 0 39 0 0 -3 1536
357 0 0 119 0 3 3 0 1536 | 0 -119 -119 0 9 0 0 3 1536
1547 0 0 119 0 -9 -3 0 1536 | 0 357 119 0 39 0 0 3 1536
595 0 0 0 0 -3 -6 0 768 | 0 119 238 0 15 0 0 0 768
1547 0 0 -357 0 3 -3 0 1536 | 0 -119 119 0 39 0 0 -9 1536
952 0 0 -119 0 0 3 0 768 | 0 0 -119 0 24 0 0 -3 768
952 0 0 0 0 -3 3 0 768 | 0 119 -119 0 24 0 0 0 768
357 0 0 -119 0 -3 3 0 1536 | 0 119 -119 0 9 0 0 -3 1536
238 0 0 -119 0 -12 3 0 768 | 0 476 -119 0 6 0 0 -3 768
-119 0 0 -119 0 -3 3 0 768 | 0 119 -119 0 -3 0 0 -3 768
238 0 0 -119 0 6 3 0 768 | 0 -238 -119 0 6 0 0 -3 768
833 0 0 -357 0 -3 -3 0 1536 | 0 119 119 0 21 0 0 -9 1536
2261 0 0 -119 0 -3 15 0 1536 | 0 119 -595 0 57 0 0 -3 1536
-595 0 0 -119 0 -3 15 0 1536 | 0 119 -595 0 -15 0 0 -3 1536
119 0 0 -119 0 15 15 0 1536 | 0 -595 -595 0 3 0 0 -3 1536
238 0 0 0 0 -3 3 0 768 | 0 119 -119 0 6 0 0 0 768
238 0 0 -119 0 0 3 0 768 | 0 0 -119 0 6 0 0 -3 768
119 0 0 119 0 -15 15 0 1536 | 0 595 -595 0 3 0 0 3 1536
238 0 0 0 0 3 3 0 768 | 0 -119 -119 0 6 0 0 0 768
2261 0 0 119 0 -3 -3 0 1536 | 0 119 119 0 57 0 0 3 1536
119 0 0 0 0 0 0 0 48 | 0 0 0 0 1 0 0 0 16
1547 0 0 119 0 -21 -3 0 1536 | 0 833 119 0 39 0 0 3 1536
1547 0 0 -119 0 -15 -3 0 1536 | 0 595 119 0 39 0 0 -3 1536
119 0 0 -119 0 -15 -3 0 1536 | 0 595 119 0 3 0 0 -3 1536
-119 0 0 119 0 -3 9 0 1536 | 0 119 -357 0 -3 0 0 3 1536
1071 0 0 119 0 -3 3 0 1536 | 0 119 -119 0 27 0 0 3 1536
-119 0 0 119 0 -3 3 0 768 | 0 119 -119 0 -3 0 0 3 768
-595 0 0 119 0 -3 -3 0 1536 | 0 119 119 0 -15 0 0 3 1536
-119 0 0 -119 0 3 3 0 768 | 0 -119 -119 0 -3 0 0 -3 768
119 0 0 -119 0 3 15 0 1536 | 0 -119 -595 0 3 0 0 -3 1536
119 0 0 119 0 -3 15 0 1536 | 0 119 -595 0 3 0 0 3 1536
119 0 0 0 0 0 0 0 192 | 0 0 0 0 1 0 0 0 64
357 0 0 -119 0 -15 3 0 1536 | 0 595 -119 0 9 0 0 -3 1536
357 0 0 119 0 15 3 0 1536 | 0 -595 -119 0 9 0 0 3 1536
595 0 0 0 0 18 3 0 768 | 0 -714 -119 0 15 0 0 0 768
238 0 0 119 0 6 3 0 768 | 0 -238 -119 0 6 0 0 3 768
119 0 0 -119 0 21 -3 0 1536 | 0 -833 119 0 3 0 0 -3 1536
238 0 0 -119 0 12 3 0 768 | 0 -476 -119 0 6 0 0 -3 768
833 0 0 -119 0 21 15 0 1536 | 0 -833 -595 0 21 0 0 -3 1536
833 0 0 0 0 9 0 0 768 | 0 -119 0 0 7 0 0 0 256
1071 0 0 -119 0 3 3 0 1536 | 0 -119 -119 0 27 0 0 -3 1536
-119 0 0 -119 0 3 9 0 1536 | 0 -119 -357 0 -3 0 0 -3 1536
1547 0 0 119 0 15 -3 0 1536 | 0 -595 119 0 39 0 0 3 1536
1547 0 0 -119 0 21 -3 0 1536 | 0 -833 119 0 39 0 0 -3 1536
952 0 0 -119 0 12 3 0 768 | 0 -476 -119 0 24 0 0 -3 768
1547 0 0 0 0 9 0 0 768 | 0 -119 0 0 13 0 0 0 256
238 0 0 119 0 -3 -6 0 768 | 0 119 238 0 6 0 0 3 768
238 0 0 -119 0 3 -6 0 768 | 0 -119 238 0 6 0 0 -3 768
-357 0 0 -119 0 3 3 0 1536 | 0 -119 -119 0 -9 0 0 -3 1536
119 0 0 0 0 9 0 0 768 | 0 -119 0 0 1 0 0 0 256
595 0 0 -119 0 21 9 0 1536 | 0 -833 -357 0 15 0 0 -3 1536
833 0 0 119 0 -27 -3 0 1536 | 0 1071 119 0 21 0 0 3 1536
-357 0 0 119 0 -27 -9 0 1536 | 0 357 119 0 -3 0 0 1 512
357 0 0 119 0 -27 9 0 1536 | 0 357 -119 0 3 0 0 1 512
-833 0 0 357 0 -9 3 0 1536 | 0 357 -119 0 -21 0 0 9 1536
-119 0 0 357 0 9 3 0 1536 | 0 -357 -119 0 -3 0 0 9 1536
119 0 0 119 0 -3 -3 0 768 | 0 119 119 0 3 0 0 3 768
595 0 0 119 0 -3 3 0 1536 | 0 119 -119 0 15 0 0 3 1536
-238 0 0 119 0 -6 -3 0 768 | 0 238 119 0 -6 0 0 3 768
119 0 0 119 0 3 -3 0 768 | 0 -119 119 0 3 0 0 3 768
595 0 0 119 0 -9 -15 0 1536 | 0 357 595 0 15 0 0 3 1536
476 0 0 0 0 -3 -3 0 768 | 0 119 119 0 12 0 0 0 768
833 0 0 0 0 0 -3 0 768 | 0 0 119 0 21 0 0 0 768
595 0 0 -119 0 -15 -15 0 1536 | 0 595 595 0 15 0 0 -3 1536
476 0 0 -119 0 -6 -3 0 768 | 0 238 119 0 12 0 0 -3 768
1309 0 0 119 0 -21 3 0 1536 | 0 833 -119 0 33 0 0 3 1536
357 0 0 119 0 -3 -3 0 1536 | 0 119 119 0 9 0 0 3 1536
-833 0 0 -119 0 -21 3 0 1536 | 0 833 -119 0 -21 0 0 -3 1536
595 0 0 119 0 -27 3 0 1536 | 0 1071 -119 0 15 0 0 3 1536
119 0 0 0 0 -12 -3 0 768 | 0 476 119 0 3 0 0 0 768
119 0 0 -119 0 -9 -3 0 768 | 0 357 119 0 3 0 0 -3 768
595 0 0 -357 0 -15 3 0 1536 | 0 595 -119 0 15 0 0 -9 1536
-119 0 0 0 0 0 3 0 384 | 0 0 -119 0 -3 0 0 0 384
-119 0 0 119 0 -21 3 0 1536 | 0 833 -119 0 -3 0 0 3 1536
119 0 0 -119 0 -6 6 0 768 | 0 238 -238 0 3 0 0 -3 768
-238 0 0 119 0 3 6 0 768 | 0 -119 -238 0 -6 0 0 3 768
-119 0 0 357 0 -15 3 0 1536 | 0 595 -119 0 -3 0 0 9 1536
119 0 0 0 0 -3 6 0 768 | 0 119 -238 0 3 0 0 0 768
833 0 0 0 0 -6 -3 0 768 | 0 238 119 0 21 0 0 0 768
2023 0 0 -119 0 -9 3 0 1536 | 0 357 -119 0 51 0 0 -3 1536
476 0 0 0 0 -15 -3 0 768 | 0 595 119 0 12 0 0 0 768
1309 0 0 -119 0 -27 3 0 1536 | 0 1071 -119 0 33 0 0 -3 1536
-238 0 0 0 0 -15 -3 0 768 | 0 595 119 0 -6 0 0 0 768
-119 0 0 -119 0 -27 3 0 1536 | 0 1071 -119 0 -3 0 0 -3 1536
-595 0 0 0 0 -6 -3 0 768 | 0 238 119 0 -15 0 0 0 768
-833 0 0 -119 0 -9 3 0 1536 | 0 357 -119 0 -21 0 0 -3 1536
-119 0 0 0 0 -3 3 0 384 | 0 119 -119 0 -3 0 0 0 384
357 0 0 119 0 -15 -3 0 1536 | 0 595 119 0 9 0 0 3 1536
-119 0 0 119 0 0 0 0 768 | 0 0 0 0 -1 0 0 1 256
-833 0 0 119 0 21 3 0 1536 | 0 -833 -119 0 -21 0 0 3 1536
-119 0 0 -119 0 9 3 0 1536 | 0 -357 -119 0 -3 0 0 -3 1536
119 0 0 0 0 3 6 0 768 | 0 -119 -238 0 3 0 0 0 768
119 0 0 119 0 0 6 0 768 | 0 0 -238 0 3 0 0 3 768
1071 0 0 119 0 3 -3 0 1536 | 0 -119 119 0 27 0 0 3 1536
119 0 0 0 0 -3 0 0 384 | 0 119 0 0 3 0 0 0 384
476 0 0 119 0 0 -3 0 768 | 0 0 119 0 12 0 0 3 768
476 0 0 0 0 3 -3 0 768 | 0 -119 119 0 12 0 0 0 768
1309 0 0 -119 0 9 3 0 1536 | 0 -357 -119 0 33 0 0 -3 1536
833 0 0 0 0 3 6 0 768 | 0 -119 -238 0 21 0 0 0 768
2499 0 0 119 0 3 -3 0 1536 | 0 -119 119 0 63 0 0 3 1536
476 0 0 0 0 -3 0 0 384 | 0 119 0 0 12 0 0 0 384
119 0 0 0 0 -2 1 0 256 | 0 238 -119 0 9 0 0 0 768
119 0 0 119 0 3 9 0 1536 | 0 -119 -357 0 3 0 0 3 1536
119 0 0 -119 0 -3 -3 0 768 | 0 119 119 0 3 0 0 -3 768
-238 0 0 0 0 -3 0 0 384 | 0 119 0 0 -6 0 0 0 384
595 0 0 -357 0 -3 3 0 1536 | 0 119 -119 0 15 0 0 -9 1536
0 0 0 0 0 1 1 0 256 | 0 -119 -119 0 0 0 0 0 768
595 0 0 0 0 3 0 0 768 | 0 -119 0 0 15 0 0 0 768
-595 0 0 119 0 0 6 0 768 | 0 0 -238 0 -15 0 0 3 768
-833 0 0 119 0 -27 3 0 1536 | 0 1071 -119 0 -21 0 0 3 1536
-595 0 0 119 0 -3 -3 0 512 | 0 119 119 0 -15 0 0 3 512
-1785 0 0 -119 0 -21 -9 0 1536 | 0 833 357 0 -45 0 0 -3 1536
-1071 0 0 119 0 -6 0 0 768 | 0 238 0 0 -27 0 0 3 768
-2499 0 0 119 0 3 -9 0 1536 | 0 -119 357 0 -63 0 0 3 1536
-1785 0 0 -119 0 -9 -9 0 1536 | 0 119 119 0 -15 0 0 -1 512
-119 0 0 0 0 -1 0 0 128 | 0 119 0 0 -9 0 0 0 384
-714 0 0 119 0 -9 0 0 768 | 0 119 0 0 -6 0 0 1 256
-476 0 0 119 0 3 -6 0 768 | 0 -119 238 0 -12 0 0 3 768
-119 0 0 0 0 -3 -6 0 768 | 0 119 238 0 -3 0 0 0 768
595 0 0 0 0 -9 -6 0 768 | 0 357 238 0 15 0 0 0 768
-238 0 0 0 0 0 -3 0 384 | 0 0 119 0 -6 0 0 0 384
-119 0 0 -119 0 -6 -6 0 768 | 0 238 238 0 -3 0 0 -3 768
-595 0 0 -357 0 -15 -3 0 1536 | 0 595 119 0 -15 0 0 -9 1536
-119 0 0 -119 0 -9 3 0 768 | 0 357 -119 0 -3 0 0 -3 768
-119 0 0 0 0 -12 3 0 768 | 0 476 -119 0 -3 0 0 0 768
595 0 0 -119 0 -21 -9 0 1536 | 0 833 357 0 15 0 0 -3 1536
0 0 0 0 0 -1 -1 0 256 | 0 119 119 0 0 0 0 0 768
-1309 0 0 -119 0 -15 -3 0 1536 | 0 595 119 0 -33 0 0 -3 1536
-595 0 0 119 0 -9 15 0 1536 | 0 357 -595 0 -15 0 0 3 1536
119 0 0 0 0 -3 -3 0 384 | 0 119 119 0 3 0 0 0 384
119 0 0 -119 0 -27 -3 0 1536 | 0 1071 119 0 3 0 0 -3 1536
238 0 0 0 0 -15 3 0 768 | 0 595 -119 0 6 0 0 0 768
-1309 0 0 -119 0 -27 -3 0 1536 | 0 1071 119 0 -33 0 0 -3 1536
-2023 0 0 -119 0 -9 -3 0 1536 | 0 357 119 0 -51 0 0 -3 1536
-833 0 0 0 0 -6 3 0 768 | 0 238 -119 0 -21 0 0 0 768
-1309 0 0 -119 0 9 -3 0 1536 | 0 -357 119 0 -33 0 0 -3 1536
-476 0 0 0 0 3 3 0 768 | 0 -119 -119 0 -12 0 0 0 768
-476 0 0 119 0 0 3 0 768 | 0 0 -119 0 -12 0 0 3 768
-119 0 0 119 0 3 -9 0 1536 | 0 -119 357 0 -3 0 0 3 1536
119 0 0 357 0 -3 -3 0 1536 | 0 119 119 0 3 0 0 9 1536
-119 0 0 119 0 0 -6 0 768 | 0 0 238 0 -3 0 0 3 768
-119 0 0 0 0 3 -6 0 768 | 0 -119 238 0 -3 0 0 0 768
1309 0 0 119 0 3 -9 0 1536 | 0 -119 357 0 33 0 0 3 1536
119 0 0 0 0 -2 -1 0 256 | 0 238 119 0 9 0 0 0 768
-1071 0 0 119 0 3 3 0 1536 | 0 -119 -119 0 -27 0 0 3 1536
-476 0 0 -119 0 -3 -6 0 768 | 0 119 238 0 -12 0 0 -3 768
-1785 0 0 119 0 21 -9 0 1536 | 0 -833 357 0 -45 0 0 3 1536
-238 0 0 0 0 3 -3 0 256 | 0 -119 119 0 -6 0 0 0 256
-1071 0 0 -119 0 33 -9 0 1536 | 0 -1309 357 0 -27 0 0 -3 1536
-714 0 0 -119 0 9 0 0 768 | 0 -119 0 0 -6 0 0 -1 256
-119 0 0 0 0 1 0 0 128 | 0 -119 0 0 -9 0 0 0 384
-595 0 0 -119 0 15 -15 0 1536 | 0 -595 595 0 -15 0 0 -3 1536
-595 0 0 -119 0 0 -6 0 768 | 0 0 238 0 -15 0 0 -3 768
-595 0 0 0 0 6 -3 0 768 | 0 -238 119 0 -15 0 0 0 768
-833 0 0 119 0 9 3 0 1536 | 0 -357 -119 0 -21 0 0 3 1536
-833 0 0 357 0 3 3 0 1536 | 0 -119 -119 0 -21 0 0 9 1536
595 0 0 119 0 3 -15 0 1536 | 0 -119 595 0 15 0 0 3 1536
-119 0 0 -119 0 15 -15 0 1536 | 0 -595 595 0 -3 0 0 -3 1536
-833 0 0 119 0 -9 -15 0 1536 | 0 357 595 0 -21 0 0 3 1536
-238 0 0 0 0 -3 -3 0 768 | 0 119 119 0 -6 0 0 0 768
-238 0 0 -119 0 6 -3 0 768 | 0 -238 119 0 -6 0 0 -3 768
-833 0 0 -357 0 -3 3 0 1536 | 0 119 -119 0 -21 0 0 -9 1536
-952 0 0 0 0 -3 -3 0 768 | 0 119 119 0 -24 0 0 0 768
-595 0 0 0 0 -3 6 0 768 | 0 119 -238 0 -15 0 0 0 768
-357 0 0 -119 0 -3 -3 0 1536 | 0 119 119 0 -9 0 0 -3 1536
-595 0 0 0 0 3 6 0 768 | 0 -119 -238 0 -15 0 0 0 768
-119 0 0 -119 0 3 -15 0 1536 | 0 -119 595 0 -3 0 0 -3 1536
595 0 0 -119 0 3 3 0 1536 | 0 -119 -119 0 15 0 0 -3 1536
-357 0 0 119 0 15 -3 0 1536 | 0 -595 119 0 -9 0 0 3 1536
-238 0 0 119 0 -12 -3 0 768 | 0 476 119 0 -6 0 0 3 768
-833 0 0 -119 0 -15 -15 0 1536 | 0 595 595 0 -21 0 0 -3 1536
-1071 0 0 119 0 -3 -3 0 1536 | 0 119 119 0 -27 0 0 3 1536
119 0 0 119 0 -3 -9 0 1536 | 0 119 357 0 3 0 0 3 1536
-1547 0 0 -119 0 -15 3 0 1536 | 0 595 -119 0 -39 0 0 -3 1536
-238 0 0 -119 0 12 -3 0 768 | 0 -476 119 0 -6 0 0 -3 768
-119 0 0 -119 0 21 3 0 1536 | 0 -833 -119 0 -3 0 0 -3 1536
357 0 0 -119 0 3 -3 0 1536 | 0 -119 119 0 9 0 0 -3 1536
-119 0 0 0 0 9 0 0 768 | 0 -119 0 0 -1 0 0 0 256
595 0 0 119 0 15 -15 0 1536 | 0 -595 595 0 15 0 0 3 1536
357 0 0 -119 0 33 -9 0 1536 | 0 -1309 357 0 9 0 0 -3 1536
0 0 0 0 0 1 0 0 64 | 0 -119 0 0 0 0 0 0 192
-357 0 0 -119 0 27 -9 0 1536 | 0 -357 119 0 -3 0 0 -1 512
357 0 0 -119 0 27 9 0 1536 | 0 -357 -119 0 3 0 0 -1 512
595 0 0 -357 0 15 -3 0 1536 | 0 -595 119 0 15 0 0 -9 1536
-595 0 0 -357 0 15 3 0 1536 | 0 -595 -119 0 -15 0 0 -9 1536
-119 0 0 0 0 12 3 0 768 | 0 -476 -119 0 -3 0 0 0 768
595 0 0 0 0 9 -6 0 768 | 0 -357 238 0 15 0 0 0 768
119 0 0 -357 0 -9 -3 0 1536 | 0 357 119 0 3 0 0 -9 1536
119 0 0 -119 0 6 0 0 768 | 0 -238 0 0 3 0 0 -3 768
-476 0 0 119 0 6 3 0 768 | 0 -238 -119 0 -12 0 0 3 768
-1309 0 0 119 0 15 -3 0 1536 | 0 -595 119 0 -33 0 0 3 1536
-595 0 0 -119 0 21 15 0 1536 | 0 -833 -595 0 -15 0 0 -3 1536
2023 0 0 -119 0 15 -9 0 1536 | 0 -595 357 0 51 0 0 -3 1536
119 0 0 -119 0 0 0 0 768 | 0 0 0 0 1 0 0 -1 256
-119 0 0 -119 0 0 -6 0 768 | 0 0 238 0 -3 0 0 -3 768
119 0 0 -357 0 3 -3 0 1536 | 0 -119 119 0 3 0 0 -9 1536
1309 0 0 -119 0 -3 -9 0 1536 | 0 119 357 0 33 0 0 -3 1536
-1071 0 0 -119 0 -3 3 0 1536 | 0 119 -119 0 -27 0 0 -3 1536
119 0 0 0 0 2 -1 0 256 | 0 -238 119 0 9 0 0 0 768
-833 0 0 0 0 -3 -6 0 768 | 0 119 238 0 -21 0 0 0 768
-476 0 0 -119 0 0 3 0 768 | 0 0 -119 0 -12 0 0 -3 768
-119 0 0 -119 0 -3 -9 0 1536 | 0 119 357 0 -3 0 0 -3 1536
-119 0 0 0 0 2 -1 0 256 | 0 -238 119 0 -9 0 0 0 768
-833 0 0 0 0 6 3 0 768 | 0 -238 -119 0 -21 0 0 0 768
119 0 0 119 0 27 -3 0 1536 | 0 -1071 119 0 3 0 0 3 1536
833 0 0 -119 0 27 -3 0 1536 | 0 -1071 119 0 21 0 0 -3 1536
119 0 0 119 0 9 -3 0 768 | 0 -357 119 0 3 0 0 3 768
1309 0 0 -119 0 15 -15 0 1536 | 0 -595 595 0 33 0 0 -3 1536
476 0 0 119 0 6 -3 0 768 | 0 -238 119 0 12 0 0 3 768
1309 0 0 -357 0 15 3 0 1536 | 0 -595 -119 0 33 0 0 -9 1536
1309 0 0 -357 0 -9 3 0 1536 | 0 357 -119 0 33 0 0 -9 1536
-119 0 0 -357 0 27 3 0 1536 | 0 -1071 -119 0 -3 0 0 -9 1536
-119 0 0 -357 0 15 3 0 1536 | 0 -595 -119 0 -3 0 0 -9 1536
833 0 0 -119 0 3 9 0 1536 | 0 -119 -357 0 21 0 0 -3 1536
2023 0 0 119 0 9 3 0 1536 | 0 -357 -119 0 51 0 0 3 1536
833 0 0 0 0 6 -3 0 768 | 0 -238 119 0 21 0 0 0 768
3213 0 0 -119 0 15 -3 0 1536 | 0 -595 119 0 81 0 0 -3 1536
833 0 0 -119 0 15 9 0 1536 | 0 -595 -357 0 21 0 0 -3 1536
1309 0 0 0 0 15 0 0 768 | 0 -595 0 0 33 0 0 0 768
476 0 0 -119 0 0 -3 0 768 | 0 0 119 0 12 0 0 -3 768
2499 0 0 -119 0 -3 -3 0 1536 | 0 119 119 0 63 0 0 -3 1536
119 0 0 -119 0 -3 9 0 1536 | 0 119 -357 0 3 0 0 -3 1536
119 0 0 0 0 2 1 0 256 | 0 -238 -119 0 9 0 0 0 768
476 0 0 0 0 3 0 0 384 | 0 -119 0 0 12 0 0 0 384
119 0 0 -119 0 0 6 0 768 | 0 0 -238 0 3 0 0 -3 768
1071 0 0 -119 0 -3 -3 0 1536 | 0 119 119 0 27 0 0 -3 1536
119 0 0 0 0 3 0 0 384 | 0 -119 0 0 3 0 0 0 384
-595 0 0 -119 0 9 -3 0 768 | 0 -357 119 0 -15 0 0 -3 768
-119 0 0 0 0 3 3 0 384 | 0 -119 -119 0 -3 0 0 0 384
357 0 0 -119 0 15 -3 0 1536 | 0 -595 119 0 9 0 0 -3 1536
-119 0 0 119 0 27 3 0 1536 | 0 -1071 -119 0 -3 0 0 3 1536
-238 0 0 0 0 15 -3 0 768 | 0 -595 119 0 -6 0 0 0 768
2499 0 0 -119 0 33 -3 0 1536 | 0 -1309 119 0 63 0 0 -3 1536
119 0 0 0 0 3 0 0 96 | 0 -119 0 0 3 0 0 0 96
-119 0 0 119 0 9 -15 0 1536 | 0 -357 595 0 -3 0 0 3 1536
-357 0 0 238 0 -3 0 0 768 | 0 119 0 0 -9 0 0 6 768
-119 0 0 119 0 5 -3 0 512 | 0 -595 357 0 -9 0 0 9 1536
0 0 0 119 0 9 0 0 768 | 0 -119 0 0 0 0 0 1 256
119 0 0 119 0 5 3 0 512 | 0 -595 -357 0 9 0 0 9 1536
-357 0 0 119 0 3 -3 0 512 | 0 -119 119 0 -9 0 0 3 512
-119 0 0 119 0 9 -3 0 512 | 0 -357 119 0 -3 0 0 3 512
476 0 0 119 0 -3 -6 0 768 | 0 119 238 0 12 0 0 3 768
-119 0 0 119 0 -3 -3 0 768 | 0 119 119 0 -3 0 0 3 768
357 0 0 119 0 3 3 0 512 | 0 -119 -119 0 9 0 0 3 512
-357 0 0 119 0 -3 3 0 512 | 0 119 -119 0 -9 0 0 3 512
0 0 0 119 0 6 9 0 768 | 0 -238 -357 0 0 0 0 3 768
119 0 0 119 0 -3 3 0 768 | 0 119 -119 0 3 0 0 3 768
2023 0 0 119 0 -9 -3 0 1536 | 0 357 119 0 51 0 0 3 1536
833 0 0 119 0 -9 3 0 1536 | 0 357 -119 0 21 0 0 3 1536
119 0 0 119 0 3 3 0 768 | 0 -119 -119 0 3 0 0 3 768
119 0 0 119 0 -5 -3 0 512 | 0 595 357 0 9 0 0 9 1536
1071 0 0 119 0 -9 9 0 1536 | 0 119 -119 0 9 0 0 1 512
-238 0 0 119 0 -6 3 0 768 | 0 238 -119 0 -6 0 0 3 768
-119 0 0 119 0 -5 3 0 512 | 0 595 -357 0 -9 0 0 9 1536
238 0 0 119 0 -6 -3 0 768 | 0 238 119 0 6 0 0 3 768
-1071 0 0 119 0 9 9 0 1536 | 0 -119 -119 0 -9 0 0 1 512
-833 0 0 119 0 -9 -3 0 1536 | 0 357 119 0 -21 0 0 3 1536
-1071 0 0 119 0 27 -9 0 1536 | 0 -357 119 0 -9 0 0 1 512
-119 0 0 0 0 5 0 0 256 | 0 -595 0 0 -9 0 0 0 768
-119 0 0 119 0 9 -3 0 1536 | 0 -357 119 0 -3 0 0 3 1536
119 0 0 0 0 5 0 0 256 | 0 -595 0 0 9 0 0 0 768
1309 0 0 119 0 9 -3 0 1536 | 0 -357 119 0 33 0 0 3 1536
119 0 0 119 0 9 3 0 1536 | 0 -357 -119 0 3 0 0 3 1536
119 0 0 0 0 -3 -6 0 768 | 0 119 238 0 3 0 0 0 768
0 0 0 -119 0 9 0 0 768 | 0 -119 0 0 0 0 0 -1 256
595 0 0 -119 0 -3 -3 0 1536 | 0 119 119 0 15 0 0 -3 1536
-595 0 0 -119 0 -3 3 0 1536 | 0 119 -119 0 -15 0 0 -3 1536
-595 0 0 0 0 6 3 0 768 | 0 -238 -119 0 -15 0 0 0 768
1547 0 0 119 0 9 3 0 1536 | 0 -357 -119 0 39 0 0 3 1536
476 0 0 0 0 -3 3 0 768 | 0 119 -119 0 12 0 0 0 768
-119 0 0 0 0 -3 6 0 768 | 0 119 -238 0 -3 0 0 0 768
-833 0 0 119 0 9 15 0 1536 | 0 -357 -595 0 -21 0 0 3 1536
476 0 0 119 0 -6 3 0 768 | 0 238 -119 0 12 0 0 3 768
-119 0 0 119 0 -6 6 0 768 | 0 238 -238 0 -3 0 0 3 768
595 0 0 0 0 -12 -3 0 768 | 0 476 119 0 15 0 0 0 768
-1785 0 0 119 0 -9 9 0 1536 | 0 119 -119 0 -15 0 0 1 512
0 0 0 119 0 12 -9 0 768 | 0 -476 357 0 0 0 0 3 768
119 0 0 0 0 2 -3 0 256 | 0 -238 357 0 9 0 0 0 768
0 0 0 0 0 -3 -3 0 256 | 0 119 119 0 0 0 0 0 256
0 0 0 0 0 3 -3 0 256 | 0 -119 119 0 0 0 0 0 256
357 0 0 -119 0 3 -9 0 768 | 0 -119 357 0 9 0 0 -3 768
-119 0 0 0 0 0 -3 0 384 | 0 0 119 0 -3 0 0 0 384
238 0 0 0 0 1 -3 0 256 | 0 -119 357 0 18 0 0 0 768
1785 0 0 -119 0 9 -9 0 1536 | 0 -119 119 0 15 0 0 -1 512
357 0 0 0 0 1 0 0 256 | 0 -119 0 0 27 0 0 0 768
1071 0 0 119 0 0 0 0 768 | 0 0 0 0 9 0 0 1 256
595 0 0 0 0 -6 -3 0 768 | 0 238 119 0 15 0 0 0 768
595 0 0 119 0 3 -3 0 1536 | 0 -119 119 0 15 0 0 3 1536
1071 0 0 -119 0 -9 -9 0 1536 | 0 119 119 0 9 0 0 -1 512
-119 0 0 119 0 -15 -3 0 1536 | 0 595 119 0 -3 0 0 3 1536
238 0 0 119 0 0 -3 0 768 | 0 0 119 0 6 0 0 3 768
-119 0 0 119 0 -7 -3 0 512 | 0 833 357 0 -9 0 0 9 1536
0 0 0 119 0 -9 0 0 768 | 0 119 0 0 0 0 0 1 256
-476 0 0 119 0 0 -3 0 768 | 0 0 119 0 -12 0 0 3 768
-357 0 0 119 0 -1 -3 0 512 | 0 119 357 0 -27 0 0 9 1536
-238 0 0 0 0 1 -3 0 256 | 0 -119 357 0 -18 0 0 0 768
-1071 0 0 -119 0 9 -9 0 1536 | 0 -119 119 0 -9 0 0 -1 512
-119 0 0 0 0 -3 -3 0 384 | 0 119 119 0 -3 0 0 0 384
119 0 0 0 0 3 -6 0 768 | 0 -119 238 0 3 0 0 0 768
-476 0 0 0 0 3 -3 0 768 | 0 -119 119 0 -12 0 0 0 768
-1547 0 0 119 0 21 -3 0 1536 | 0 -833 119 0 -39 0 0 3 1536
119 0 0 0 0 2 0 0 128 | 0 -238 0 0 9 0 0 0 384
714 0 0 119 0 9 0 0 768 | 0 -119 0 0 6 0 0 1 256
238 0 0 0 0 3 -3 0 768 | 0 -119 119 0 6 0 0 0 768
-119 0 0 119 0 21 -3 0 1536 | 0 -833 119 0 -3 0 0 3 1536
0 0 0 -119 0 6 -9 0 768 | 0 -238 357 0 0 0 0 -3 768
-595 0 0 -119 0 -9 -15 0 1536 | 0 357 595 0 -15 0 0 -3 1536
-595 0 0 0 0 3 -6 0 768 | 0 -119 238 0 -15 0 0 0 768
119 0 0 -119 0 5 -3 0 512 | 0 -595 357 0 9 0 0 -9 1536
-119 0 0 -119 0 -3 -3 0 768 | 0 119 119 0 -3 0 0 -3 768
-833 0 0 -119 0 9 -3 0 1536 | 0 -357 119 0 -21 0 0 -3 1536
952 0 0 0 0 3 -3 0 768 | 0 -119 119 0 24 0 0 0 768
1309 0 0 -119 0 -9 -3 0 1536 | 0 357 119 0 33 0 0 -3 1536
119 0 0 -119 0 -9 3 0 1536 | 0 357 -119 0 3 0 0 -3 1536
-238 0 0 0 0 3 3 0 768 | 0 -119 -119 0 -6 0 0 0 768
119 0 0 119 0 21 3 0 1536 | 0 -833 -119 0 3 0 0 3 1536
1309 0 0 119 0 21 -3 0 1536 | 0 -833 119 0 33 0 0 3 1536
119 0 0 119 0 -15 3 0 1536 | 0 595 -119 0 3 0 0 3 1536
357 0 0 -119 0 -27 -9 0 1536 | 0 357 119 0 3 0 0 -1 512
-714 0 0 119 0 9 0 0 768 | 0 -119 0 0 -6 0 0 1 256
357 0 0 -119 0 -1 -3 0 512 | 0 119 357 0 27 0 0 -9 1536
119 0 0 -119 0 9 -15 0 1536 | 0 -357 595 0 3 0 0 -3 1536
-357 0 0 -119 0 -3 -3 0 512 | 0 119 119 0 -9 0 0 -3 512
-119 0 0 -119 0 3 -3 0 768 | 0 -119 119 0 -3 0 0 -3 768
357 0 0 0 0 -1 0 0 256 | 0 119 0 0 27 0 0 0 768
357 0 0 -119 0 -9 -9 0 768 | 0 119 119 0 3 0 0 -1 256
357 0 0 -119 0 -5 -3 0 512 | 0 595 357 0 27 0 0 -9 1536
714 0 0 -119 0 -9 0 0 768 | 0 119 0 0 6 0 0 -1 256
119 0 0 0 0 -2 0 0 128 | 0 238 0 0 9 0 0 0 384
-119 0 0 -119 0 -21 -3 0 1536 | 0 833 119 0 -3 0 0 -3 1536
238 0 0 0 0 -3 -3 0 768 | 0 119 119 0 6 0 0 0 768
-714 0 0 -119 0 0 -9 0 768 | 0 0 119 0 -6 0 0 -1 256
-357 0 0 -119 0 1 -3 0 512 | 0 -119 357 0 -27 0 0 -9 1536
119 0 0 -119 0 -3 -15 0 1536 | 0 119 595 0 3 0 0 -3 1536
-119 0 0 0 0 3 -3 0 384 | 0 -119 119 0 -3 0 0 0 384
833 0 0 -119 0 15 -15 0 1536 | 0 -595 595 0 21 0 0 -3 1536
357 0 0 -119 0 7 -3 0 512 | 0 -833 357 0 27 0 0 -9 1536
-119 0 0 0 0 -12 -3 0 768 | 0 476 119 0 -3 0 0 0 768
-595 0 0 -119 0 -21 -15 0 1536 | 0 833 595 0 -15 0 0 -3 1536
-595 0 0 0 0 -3 -6 0 768 | 0 119 238 0 -15 0 0 0 768
-595 0 0 119 0 9 -15 0 1536 | 0 -357 595 0 -15 0 0 3 1536
357 0 0 -238 0 3 0 0 768 | 0 -119 0 0 9 0 0 -6 768
-119 0 0 -119 0 9 -3 0 768 | 0 -357 119 0 -3 0 0 -3 768
357 0 0 -119 0 1 3 0 512 | 0 -119 -357 0 27 0 0 -9 1536
-238 0 0 -119 0 0 3 0 768 | 0 0 -119 0 -6 0 0 -3 768
119 0 0 -119 0 15 3 0 1536 | 0 -595 -119 0 3 0 0 -3 1536
952 0 0 0 0 -3 -3 0 768 | 0 119 119 0 24 0 0 0 768
1309 0 0 -119 0 -21 -3 0 1536 | 0 833 119 0 33 0 0 -3 1536
119 0 0 -119 0 -21 3 0 1536 | 0 833 -119 0 3 0 0 -3 1536
-714 0 0 -119 0 -9 0 0 768 | 0 119 0 0 -6 0 0 -1 256
-595 0 0 -357 0 3 3 0 1536 | 0 -119 -119 0 -15 0 0 -9 1536
595 0 0 -357 0 3 -3 0 1536 | 0 -119 119 0 15 0 0 -9 1536
-357 0 0 -238 0 -3 0 0 768 | 0 119 0 0 -9 0 0 -6 768
833 0 0 -357 0 -9 3 0 1536 | 0 357 -119 0 21 0 0 -9 1536
119 0 0 -119 0 3 3 0 768 | 0 -119 -119 0 3 0 0 -3 768
119 0 0 -119 0 -3 3 0 768 | 0 119 -119 0 3 0 0 -3 768
833 0 0 -119 0 9 3 0 1536 | 0 -357 -119 0 21 0 0 -3 1536
2023 0 0 -119 0 9 -3 0 1536 | 0 -357 119 0 51 0 0 -3 1536
119 0 0 -119 0 -7 -3 0 512 | 0 833 357 0 9 0 0 -9 1536
-119 0 0 0 0 -5 0 0 256 | 0 595 0 0 -9 0 0 0 768
-1071 0 0 -119 0 -27 -9 0 1536 | 0 357 119 0 -9 0 0 -1 512
-119 0 0 -119 0 -7 3 0 512 | 0 833 -357 0 -9 0 0 -9 1536
-357 0 0 -119 0 -27 9 0 1536 | 0 357 -119 0 -3 0 0 -1 512
-357 0 0 -119 0 -1 3 0 512 | 0 119 -357 0 -27 0 0 -9 1536
-119 0 0 -119 0 5 3 0 512 | 0 -595 -357 0 -9 0 0 -9 1536
238 0 0 -119 0 6 -3 0 768 | 0 -238 119 0 6 0 0 -3 768
-119 0 0 -119 0 27 -3 0 1536 | 0 -1071 119 0 -3 0 0 -3 1536
357 0 0 -119 0 5 3 0 512 | 0 -595 -357 0 27 0 0 -9 1536
952 0 0 -119 0 6 -3 0 768 | 0 -238 119 0 24 0 0 -3 768
-238 0 0 -119 0 6 3 0 768 | 0 -238 -119 0 -6 0 0 -3 768
-595 0 0 0 0 -6 3 0 768 | 0 238 -119 0 -15 0 0 0 768
-595 0 0 119 0 3 3 0 1536 | 0 -119 -119 0 -15 0 0 3 1536
833 0 0 -119 0 -9 -15 0 1536 | 0 357 595 0 21 0 0 -3 1536
-1547 0 0 -119 0 -9 -3 0 1536 | 0 357 119 0 -39 0 0 -3 1536
119 0 0 -119 0 6 -6 0 768 | 0 -238 238 0 3 0 0 -3 768
1547 0 0 -119 0 -9 3 0 1536 | 0 357 -119 0 39 0 0 -3 1536
476 0 0 0 0 3 3 0 768 | 0 -119 -119 0 12 0 0 0 768
-595 0 0 0 0 12 3 0 768 | 0 -476 -119 0 -15 0 0 0 768
119 0 0 0 0 0 3 0 384 | 0 0 -119 0 3 0 0 0 384
-119 0 0 -119 0 -15 15 0 1536 | 0 595 -595 0 -3 0 0 -3 1536
238 0 0 0 0 -1 3 0 256 | 0 119 -357 0 18 0 0 0 768
2261 0 0 -119 0 -3 3 0 1536 | 0 119 -119 0 57 0 0 -3 1536
119 0 0 0 0 3 3 0 384 | 0 -119 -119 0 3 0 0 0 384
833 0 0 0 0 6 3 0 768 | 0 -238 -119 0 21 0 0 0 768
-119 0 0 0 0 -2 0 0 128 | 0 238 0 0 -9 0 0 0 384
-357 0 0 0 0 -1 0 0 256 | 0 119 0 0 -27 0 0 0 768
119 0 0 -119 0 7 3 0 512 | 0 -833 -357 0 9 0 0 -9 1536
1547 0 0 -119 0 15 3 0 1536 | 0 -595 -119 0 39 0 0 -3 1536
476 0 0 -119 0 0 3 0 768 | 0 0 -119 0 12 0 0 -3 768
119 0 0 -119 0 9 3 0 768 | 0 -357 -119 0 3 0 0 -3 768
595 0 0 119 0 9 15 0 1536 | 0 -357 -595 0 15 0 0 3 1536
238 0 0 0 0 1 3 0 256 | 0 -119 -357 0 18 0 0 0 768
2261 0 0 119 0 3 3 0 1536 | 0 -119 -119 0 57 0 0 3 1536
833 0 0 0 0 -6 3 0 768 | 0 238 -119 0 21 0 0 0 768
119 0 0 0 0 -3 3 0 384 | 0 119 -119 0 3 0 0 0 384
-119 0 0 119 0 3 15 0 1536 | 0 -119 -595 0 -3 0 0 3 1536
1547 0 0 119 0 -15 3 0 1536 | 0 595 -119 0 39 0 0 3 1536
476 0 0 119 0 0 3 0 768 | 0 0 -119 0 12 0 0 3 768
-1071 0 0 119 0 0 0 0 768 | 0 0 0 0 -9 0 0 1 256
-357 0 0 0 0 1 0 0 256 | 0 -119 0 0 -27 0 0 0 768
-595 0 0 119 0 9 3 0 768 | 0 -357 -119 0 -15 0 0 3 768
1547 0 0 119 0 21 3 0 1536 | 0 -833 -119 0 39 0 0 3 1536
-119 0 0 357 0 15 -3 0 1536 | 0 -595 119 0 -3 0 0 9 1536
119 0 0 0 0 12 3 0 768 | 0 -476 -119 0 3 0 0 0 768
595 0 0 0 0 3 6 0 768 | 0 -119 -238 0 15 0 0 0 768
2499 0 0 119 0 -3 -9 0 1536 | 0 119 357 0 63 0 0 3 1536
1785 0 0 119 0 -21 -9 0 1536 | 0 833 357 0 45 0 0 3 1536
1071 0 0 -119 0 -6 0 0 768 | 0 238 0 0 27 0 0 -3 768
1071 0 0 119 0 6 0 0 768 | 0 -238 0 0 27 0 0 3 768
1785 0 0 -119 0 21 -9 0 1536 | 0 -833 357 0 45 0 0 -3 1536
238 0 0 119 0 6 -3 0 768 | 0 -238 119 0 6 0 0 3 768
238 0 0 -119 0 -6 -3 0 768 | 0 238 119 0 6 0 0 -3 768
833 0 0 -119 0 21 3 0 1536 | 0 -833 -119 0 21 0 0 -3 1536
595 0 0 -119 0 3 15 0 1536 | 0 -119 -595 0 15 0 0 -3 1536
-238 0 0 0 0 0 3 0 384 | 0 0 -119 0 -6 0 0 0 384
714 0 0 119 0 15 0 0 768 | 0 -595 0 0 18 0 0 3 768
-357 0 0 -119 0 -33 -9 0 1536 | 0 1309 357 0 -9 0 0 -3 1536
357 0 0 -119 0 -33 9 0 1536 | 0 1309 -357 0 9 0 0 -3 1536
119 0 0 357 0 -9 3 0 1536 | 0 357 -119 0 3 0 0 9 1536
238 0 0 0 0 0 -3 0 384 | 0 0 119 0 6 0 0 0 384
952 0 0 -119 0 -6 -3 0 768 | 0 238 119 0 24 0 0 -3 768
-238 0 0 -119 0 -6 3 0 768 | 0 238 -119 0 -6 0 0 -3 768
238 0 0 119 0 -3 6 0 768 | 0 119 -238 0 6 0 0 3 768
-1071 0 0 -119 0 -33 9 0 1536 | 0 1309 -357 0 -27 0 0 -3 1536
-238 0 0 119 0 6 3 0 768 | 0 -238 -119 0 -6 0 0 3 768
-1071 0 0 -119 0 -6 0 0 768 | 0 238 0 0 -27 0 0 -3 768
-595 0 0 0 0 9 -6 0 768 | 0 -357 238 0 -15 0 0 0 768
-833 0 0 -119 0 21 -3 0 1536 | 0 -833 119 0 -21 0 0 -3 1536
-357 0 0 119 0 33 -9 0 1536 | 0 -1309 357 0 -9 0 0 3 1536
357 0 0 119 0 33 9 0 1536 | 0 -1309 -357 0 9 0 0 3 1536
595 0 0 0 0 18 -3 0 768 | 0 -714 119 0 15 0 0 0 768
-238 0 0 -119 0 3 -6 0 768 | 0 -119 238 0 -6 0 0 -3 768
-119 0 0 -357 0 9 -3 0 1536 | 0 -357 119 0 -3 0 0 -9 1536
1071 0 0 119 0 33 -9 0 1536 | 0 -1309 357 0 27 0 0 3 1536
